<svg id="Layer_1" data-name="Layer 1" xmlns="http://www.w3.org/2000/svg" viewBox="0 0 41 41"><defs><style>.cls-1{fill:#e65400;}.cls-2{fill:#76787c;}</style></defs><title>ai-icons</title><g id="analyst-report-sm"><path id="secondary" class="cls-1" d="M12.31,9.59a2,2,0,1,1-2-2A2,2,0,0,1,12.31,9.59ZM23.68,26.08a2,2,0,1,0,2,2A2,2,0,0,0,23.68,26.08Z"/><path id="primary" class="cls-2" d="M31.58,3.34V.5H2.83V36.75H6.25l-.08.79,28.17,3L38.17,4ZM4.08,35.5V1.75H30.33V35.5Zm29.15,3.63L10.58,36.75h21V4.6l5.21.55ZM25.68,9.59a2,2,0,0,0-4-.34H12.28a1.86,1.86,0,0,1-.2,1.25h9.84a2,2,0,0,0,1.54,1.06v5.3A2,2,0,0,0,21.87,18H12.21v.23a2,2,0,1,0-2.5,2.49v5.46a2,2,0,1,0,2.52,2.44h9.55a1.86,1.86,0,0,1,0-1.25H12.21v.1A2,2,0,0,0,11,26.2V20.71a2,2,0,0,0,1.31-1.46h9.47a2,2,0,1,0,3-2.12V11.29A2,2,0,0,0,25.68,9.59ZM11.06,28.08a.74.74,0,1,1-.74-.75A.75.75,0,0,1,11.06,28.08Zm-.74-8.5a.75.75,0,1,1,.74-.75A.75.75,0,0,1,10.32,19.58Zm13.37,0a.75.75,0,1,1,.74-.75A.75.75,0,0,1,23.68,19.58Zm0-9.24a.75.75,0,1,1,.74-.75A.75.75,0,0,1,23.68,10.33Z"/></g></svg>