<svg id="Layer_1" data-name="Layer 1" xmlns="http://www.w3.org/2000/svg" viewBox="0 0 41 41"><defs><style>.cls-1{fill:#e65400;}.cls-2{fill:#76787c;}</style></defs><title>ai-icons</title><g id="best-practices-sm"><g id="secondary"><polygon class="cls-1" points="1.56 1.7 3.57 8.88 8.7 3.71 1.56 1.7"/></g><path id="primary" class="cls-2" d="M39.65,8.68,32.22,1.25,30,3.45h0l-.75.75h0L27.45,6h0l-.75.75h0L24.88,8.59h0l-.75.75h0L22.3,11.16h0l-.75.75h0l-1.24,1.24L11.79,4.59,8.7,3.72l-.86.86,3.39,1L37.94,32.36l-2.51,2.53L8.81,8.15l-.75.75L34.68,35.64l-2.59,2.6L5.38,11.42,4.43,8l-.86.87L4.44,12l8.51,8.55-.93.93h0l-.75.75h0L9.45,24h0L9,24.44,6.87,26.59h0l0,0L4.3,29.16h0l-.75.75h0l-2.2,2.2,7.43,7.43L20.36,28,32.09,39.75l7.35-7.39L27.73,20.6ZM8.78,38,2.86,32.11,4.3,30.67l1,1L6,30.87l-1-1L6.87,28.1l1,1,.75-.75-1-1,1.82-1.82,2.66,2.66.75-.75L10.2,24.77,12,23l1,1,.75-.75-1-1,.93-.93,5.91,5.94ZM21.07,13.9l1.24-1.24,1,1,.75-.75-1-1,1.82-1.82,2.66,2.66.75-.75L25.63,9.34l1.82-1.82,1,1,.75-.75-1-1L30,4.95l1,1,.75-.75-1-1,1.44-1.44,5.93,5.93L27,19.84Z"/></g></svg>