<svg id="Layer_1" data-name="Layer 1" xmlns="http://www.w3.org/2000/svg" viewBox="0 0 68 68"><defs><style>.cls-1{fill:#e65400;}.cls-2{fill:#76787c;}</style></defs><title>ai-icons</title><g id="best-practices"><g id="secondary"><polygon class="cls-1" points="2.34 2.58 5.7 14.57 14.28 5.95 2.34 2.58"/></g><path id="primary" class="cls-2" d="M66,14.24,53.58,1.83,49.91,5.5h0L48.66,6.75h0l-3,3h0l-1.26,1.26h0l-3,3h0l-1.26,1.26h0l-3,3h0l-1.26,1.26h0l-2.07,2.07L19.44,7.4,14.28,5.95,12.85,7.39,18.51,9,63.15,53.82,58.95,58,14.45,13.37l-1.26,1.25,44.5,44.69-4.32,4.35L8.74,18.83l-1.6-5.7L5.7,14.57l1.45,5.18L21.37,34l-1.55,1.55h0l-1.26,1.26h0l-3,3h0l-.71.71-3.59,3.59h0l-.08.08L6.93,48.48h0L5.67,49.74h0L2,53.41,14.42,65.83,33.76,46.48,53.37,66.17,65.66,53.82,46.08,34.16ZM14.42,63.31l-9.9-9.9L6.93,51l1.59,1.59,1.26-1.26L8.18,49.74l3-3,1.59,1.59L14.08,47l-1.59-1.59,3-3L20,46.84l1.26-1.26-4.44-4.44,3-3,1.59,1.59,1.26-1.26-1.59-1.59,1.55-1.55,9.88,9.92ZM34.95,23,37,20.91l1.59,1.59,1.26-1.26-1.59-1.59,3-3L45.76,21,47,19.79l-4.44-4.44,3-3,1.59,1.59,1.26-1.26-1.59-1.59,3-3L51.5,9.6l1.26-1.26L51.17,6.75l2.41-2.41,9.9,9.9L44.83,32.9Z"/></g></svg>