<svg id="Layer_1" data-name="Layer 1" xmlns="http://www.w3.org/2000/svg" viewBox="0 0 41 41"><defs><style>.cls-1{fill:#e65400;}.cls-2{fill:#76787c;}</style></defs><title>ai-icons</title><g id="building-1-sm"><path id="secondary" class="cls-1" d="M10,36.27H8.81V19.09H10ZM32.19,19.09H31V36.27h1.23ZM20.5,6a3.69,3.69,0,1,0,3.69,3.69A3.69,3.69,0,0,0,20.5,6Z"/><path id="primary" class="cls-2" d="M7,36.27H5.73V19.09H7ZM17.49,19.09H16.26V36.27h1.23Zm6.72,0H23V36.27h1.23Zm11.05,0H34V36.27h1.23ZM40.19,39H.81v1.23H40.19ZM20.5,2.38,4.34,15.21H36.66L20.5,2.38m0-1.57L40.19,16.44H.81L20.5.81Z"/></g></svg>