<svg id="Layer_1" data-name="Layer 1" xmlns="http://www.w3.org/2000/svg" viewBox="0 0 68 68"><defs><style>.cls-1{fill:#e65400;}.cls-2{fill:#76787c;}</style></defs><title>ai-icons</title><g id="calendar-2"><circle id="secondary" class="cls-1" cx="53.07" cy="41.5" r="3"/><path id="primary" class="cls-2" d="M47,13.5v-5H45v5H23v-5H21v5H2v46H66v-46Zm17,44H4v-32H64Zm0-34H4v-8H21v3h2v-3H45v3h2v-3H64Zm-50.95,9a2,2,0,1,1,2,2A2,2,0,0,1,13.05,32.5Zm9.47,0a2,2,0,1,1,2,2A2,2,0,0,1,22.53,32.5Zm9.47,0a2,2,0,1,1,2,2A2,2,0,0,1,32,32.5Zm9.37,0a2,2,0,1,1,2,2A2,2,0,0,1,41.37,32.5Zm9.58,0a2,2,0,1,1,2,2A2,2,0,0,1,50.95,32.5Zm-37.89,9a2,2,0,1,1,2,2A2,2,0,0,1,13.05,41.5Zm9.47,0a2,2,0,1,1,2,2A2,2,0,0,1,22.53,41.5Zm9.47,0a2,2,0,1,1,2,2A2,2,0,0,1,32,41.5Zm9.37,0a2,2,0,1,1,2,2A2,2,0,0,1,41.37,41.5Zm-28.32,9a2,2,0,1,1,2,2A2,2,0,0,1,13.05,50.5Zm9.47,0a2,2,0,1,1,2,2A2,2,0,0,1,22.53,50.5Zm9.47,0a2,2,0,1,1,2,2A2,2,0,0,1,32,50.5Zm9.37,0a2,2,0,1,1,2,2A2,2,0,0,1,41.37,50.5Z"/></g></svg>