<svg id="Layer_1" data-name="Layer 1" xmlns="http://www.w3.org/2000/svg" viewBox="0 0 41 41"><defs><style>.cls-1{fill:#e65400;}.cls-2{fill:#76787c;}</style></defs><title>ai-icons</title><g id="collaborative-sm"><circle id="secondary" class="cls-1" cx="20.5" cy="21.07" r="2.86"/><path id="primary" class="cls-2" d="M20.5,1.75a1.61,1.61,0,1,1-1.61,1.61A1.61,1.61,0,0,1,20.5,1.75M20.5.5a2.86,2.86,0,1,0,2.86,2.86A2.86,2.86,0,0,0,20.5.5ZM20.5,36a1.61,1.61,0,1,1-1.61,1.61A1.61,1.61,0,0,1,20.5,36m0-1.25a2.86,2.86,0,1,0,2.86,2.86,2.86,2.86,0,0,0-2.86-2.86ZM35.36,28a1.61,1.61,0,1,1-1.61,1.61A1.61,1.61,0,0,1,35.36,28m0-1.25a2.86,2.86,0,1,0,2.86,2.86,2.86,2.86,0,0,0-2.86-2.86Zm0-15.89a1.61,1.61,0,1,1-1.61,1.61,1.61,1.61,0,0,1,1.61-1.61m0-1.25a2.86,2.86,0,1,0,2.86,2.86,2.86,2.86,0,0,0-2.86-2.86ZM5.64,28A1.61,1.61,0,1,1,4,29.64,1.61,1.61,0,0,1,5.64,28m0-1.25A2.86,2.86,0,1,0,8.5,29.64a2.86,2.86,0,0,0-2.86-2.86Zm0-15.89A1.61,1.61,0,1,1,4,12.5a1.61,1.61,0,0,1,1.61-1.61m0-1.25A2.86,2.86,0,1,0,8.5,12.5,2.86,2.86,0,0,0,5.64,9.64Zm2.72,2,10.43-6a2.85,2.85,0,0,1-.82-1L7.74,10.57A2.84,2.84,0,0,1,8.36,11.66Zm13.85-6,10.43,6a2.84,2.84,0,0,1,.62-1.09L23,4.67A2.85,2.85,0,0,1,22.21,5.64ZM20.5,34.79a2.85,2.85,0,0,1,.62.07V26.17a4.68,4.68,0,0,1-1.25,0v8.69A2.85,2.85,0,0,1,20.5,34.79ZM32.68,13.48l-8,4.62a5.13,5.13,0,0,1,.6,1.1l8.07-4.66A2.85,2.85,0,0,1,32.68,13.48ZM24.62,24.13l8.13,4.34A2.84,2.84,0,0,1,33,28l.32-.6L25.25,23A5.13,5.13,0,0,1,24.62,24.13Zm-4.12-8.2a5.15,5.15,0,0,1,.62,0V6.14a2.7,2.7,0,0,1-1.25,0V16A5.15,5.15,0,0,1,20.5,15.93Zm-4.67,7.28-8,4.62a2.83,2.83,0,0,1,.57,1.12l8.08-4.67A5.15,5.15,0,0,1,15.83,23.21ZM18.1,36.11,8.36,30.48a2.84,2.84,0,0,1-.62,1.09l9.94,5.74A2.83,2.83,0,0,1,18.1,36.11ZM35.36,15.36a2.85,2.85,0,0,1-.64-.08V26.86a2.7,2.7,0,0,1,1.25,0V15.29A2.85,2.85,0,0,1,35.36,15.36ZM32.64,30.48,22.9,36.11a2.83,2.83,0,0,1,.42,1.2l9.94-5.74A2.84,2.84,0,0,1,32.64,30.48Zm-27-3.7a2.85,2.85,0,0,1,.64.08V15.28a2.7,2.7,0,0,1-1.25,0V26.86A2.85,2.85,0,0,1,5.64,26.79Zm10.57-8.55-8.1-4.32a2.86,2.86,0,0,1-.87,1l8.41,4.49A5.13,5.13,0,0,1,16.22,18.23Z"/></g></svg>