<svg id="Layer_1" data-name="Layer 1" xmlns="http://www.w3.org/2000/svg" viewBox="0 0 68 68"><defs><style>.cls-1{fill:#e65400;}.cls-2{fill:#76787c;}</style></defs><title>ai-icons</title><g id="comprehensive"><path id="secondary" class="cls-1" d="M29.38,13.56a6.07,6.07,0,0,1,4.22,1.68,1,1,0,0,0,1.71-.7V4.06c-.43,0-.87,0-1.31,0l-.69,0v8.51a8.4,8.4,0,0,0-3.93-1,7.59,7.59,0,1,0,3.93,14.08v8.51h0l0,10.65a1,1,0,0,0,.7.93,1,1,0,0,0,1.13-.37l.15-.16.22-.21a5.59,5.59,0,1,1,3.74,9.75A6.07,6.07,0,0,1,35,53.06a1,1,0,0,0-1.71.7V64L34,64c.42,0,.84,0,1.26,0v-8.2a8.4,8.4,0,0,0,3.93,1,7.59,7.59,0,1,0-3.93-14.09V34.15l0-10.65a1,1,0,0,0-.7-.93,1,1,0,0,0-1.13.37l-.15.16-.22.21a5.59,5.59,0,1,1-3.74-9.75Z"/><path id="primary" class="cls-2" d="M34,2A32,32,0,1,0,66,34,32,32,0,0,0,34,2ZM63.95,34.8a30,30,0,0,1-59.9,0h8.38a8.4,8.4,0,0,0-1,3.93,7.59,7.59,0,1,0,14.08-3.93h7.8v-.61h0V32.75H23.37a1,1,0,0,0-.93.7,1,1,0,0,0,.37,1.13l.16.15.21.22a5.59,5.59,0,1,1-9.75,3.74,6.07,6.07,0,0,1,1.68-4.22,1,1,0,0,0-.7-1.71H3.79c0,.41.24.83.24,1.25a30,30,0,0,1,59.91-1.2H55.6a8.4,8.4,0,0,0,1-3.93A7.59,7.59,0,1,0,42.52,32.8H35.27v2h9.4a1,1,0,0,0,.93-.7A1,1,0,0,0,45.23,33l-.16-.15-.21-.22a5.59,5.59,0,1,1,9.75-3.74,6.07,6.07,0,0,1-1.68,4.22,1,1,0,0,0,.7,1.71Z"/></g></svg>