<svg id="Layer_1" data-name="Layer 1" xmlns="http://www.w3.org/2000/svg" viewBox="0 0 41 41"><defs><style>.cls-1{fill:#e65400;}.cls-2{fill:#76787c;}</style></defs><title>ai-icons</title><g id="demo-sm"><path id="secondary" class="cls-1" d="M5.5,14.88h5v1.25h-5ZM13,16.13H23V14.88H13Zm12.5-1.25v1.25h10V14.88Zm-20,6.25h5V19.88h-5Zm7.5,0H23V19.88H13Zm18.75,0H35.5V19.88H31.75Zm-26.25,5h5V24.88h-5Zm7.5,0H23V24.88H13ZM5.5,30.5h5V29.25h-5Zm7.5,0H23V29.25H13Zm12.5,0h3.75V29.25H25.5Z"/><path id="primary" class="cls-2" d="M26.81,27.62V17.94l7,6.73-3.34.09,2.16,5.1-1.37.58-2.14-5.05ZM40.5,6.13V34.88H.5V6.13Zm-1.25,5H1.75v22.5h37.5Zm0-3.75H1.75v2.5h37.5Z"/></g></svg>