<svg id="Layer_1" data-name="Layer 1" xmlns="http://www.w3.org/2000/svg" viewBox="0 0 68 68"><defs><style>.cls-1{fill:#e65400;}.cls-2{fill:#76787c;}</style></defs><title>ai-icons</title><g id="disability-insurance"><path id="secondary" class="cls-1" d="M40.51,15.74V27.49H52.26v13H40.51V52.26h-13V40.5H15.74v-13H27.49V15.74h13m1.22-2H26.28a.78.78,0,0,0-.78.78v11h-11a.78.78,0,0,0-.78.78V41.72a.78.78,0,0,0,.78.78h11v11a.78.78,0,0,0,.78.78H41.73a.78.78,0,0,0,.78-.78v-11h11a.78.78,0,0,0,.78-.78V26.27a.79.79,0,0,0-.79-.78h-11v-11a.78.78,0,0,0-.78-.78Z"/><path id="primary" class="cls-2" d="M34,4A30,30,0,1,1,4,34,30,30,0,0,1,34,4m0-2A32,32,0,1,0,66,34,32,32,0,0,0,34,2Z"/></g></svg>