<svg id="Layer_1" data-name="Layer 1" xmlns="http://www.w3.org/2000/svg" viewBox="0 0 41 41"><defs><style>.cls-1{fill:#e65400;}.cls-2{fill:#76787c;}</style></defs><title>ai-icons</title><g id="donut-sm"><g id="secondary"><path class="cls-1" d="M20.06,6a.67.67,0,0,0-.62.91l1,2.65A.67.67,0,0,0,21.7,9l-1-2.65A.67.67,0,0,0,20.06,6Zm8.61,1.15a.67.67,0,0,0-.45.17L26.12,9.2a.67.67,0,0,0,.45,1.16.66.66,0,0,0,.45-.17l2.11-1.9a.67.67,0,0,0-.45-1.16ZM15.31,8a.67.67,0,0,0-.41.14L12.65,9.84a.67.67,0,0,0,.81,1.05l2.25-1.74A.67.67,0,0,0,15.31,8ZM8.56,11.12a.67.67,0,0,0-.62.91l1,2.64a.67.67,0,0,0,1.24-.49l-1-2.64a.67.67,0,0,0-.62-.42Zm20.19,2a.67.67,0,0,0-.33,1.25l2.48,1.39a.66.66,0,0,0,.32.09.67.67,0,0,0,.33-1.25l-2.48-1.39a.66.66,0,0,0-.32-.09Zm6.13,1a.66.66,0,0,0-.62.91l1.06,2.64a.67.67,0,1,0,1.24-.5l-1.06-2.64a.67.67,0,0,0-.62-.42ZM5.77,17a.67.67,0,0,0-.66.58l-.38,2.82a.67.67,0,0,0,.57.75h.09A.67.67,0,0,0,6,20.6l.38-2.82A.67.67,0,0,0,5.86,17Zm26.1,4.15a.67.67,0,0,0-.66.58l-.38,2.82a.66.66,0,0,0,.57.75h.09a.67.67,0,0,0,.66-.58l.38-2.82a.67.67,0,0,0-.57-.75ZM7.85,23a.67.67,0,0,0-.33,1.25L10,25.62a.66.66,0,0,0,.32.09.67.67,0,0,0,.33-1.25L8.17,23.07A.66.66,0,0,0,7.85,23ZM9,28.68a.66.66,0,0,0-.62.9l1,2.65a.67.67,0,0,0,.62.43.67.67,0,0,0,.62-.91l-1-2.65A.67.67,0,0,0,9,28.68Zm24.9.12H33.8L31,29.35a.67.67,0,0,0,.13,1.32h.13l2.79-.54a.67.67,0,0,0-.13-1.32Zm-16.87.94a.66.66,0,0,0-.43.15l-2.18,1.82a.67.67,0,0,0,.86,1l2.18-1.82a.67.67,0,0,0-.43-1.18Zm9.11.48h-.09a.67.67,0,0,0-.57.75l.38,2.82a.67.67,0,0,0,.66.58h.09a.67.67,0,0,0,.57-.75l-.38-2.82a.67.67,0,0,0-.66-.58Zm-6.68,3.61a.67.67,0,0,0-.17,1.31l2.74.73.17,0a.67.67,0,0,0,.17-1.31l-2.74-.73-.17,0Z"/></g><path id="primary" class="cls-2" d="M20.5,1.93A18.57,18.57,0,1,1,1.93,20.5,18.6,18.6,0,0,1,20.5,1.93m0-1.24A19.81,19.81,0,1,0,40.31,20.5,19.81,19.81,0,0,0,20.5.69Zm0,13.62a6.19,6.19,0,1,1-6.19,6.19,6.2,6.2,0,0,1,6.19-6.19m0-1.24a7.43,7.43,0,1,0,7.43,7.43,7.43,7.43,0,0,0-7.43-7.43Z"/></g></svg>