<svg id="Layer_1" data-name="Layer 1" xmlns="http://www.w3.org/2000/svg" viewBox="0 0 68 68"><defs><style>.cls-1{fill:#e65400;}.cls-2{fill:#76787c;}</style></defs><title>ai-icons</title><g id="donut"><g id="Secondary"><path class="cls-1" d="M33.29,10.53a1.07,1.07,0,0,0-1,1.46l1.65,4.28a1.08,1.08,0,0,0,2-.77l-1.65-4.28a1.08,1.08,0,0,0-1-.69ZM47.2,12.39a1.07,1.07,0,0,0-.72.28l-3.41,3.07a1.07,1.07,0,0,0,.72,1.87,1.07,1.07,0,0,0,.72-.28l3.41-3.07a1.07,1.07,0,0,0-.72-1.87ZM25.61,13.75A1.08,1.08,0,0,0,25,14l-3.63,2.81a1.08,1.08,0,0,0,1.32,1.7l3.63-2.81a1.08,1.08,0,0,0-.66-1.93Zm-10.9,5.1a1.07,1.07,0,0,0-1,1.47l1.69,4.27a1.08,1.08,0,0,0,2-.79l-1.69-4.27a1.08,1.08,0,0,0-1-.68Zm32.6,3.21a1.08,1.08,0,0,0-.53,2l4,2.24a1.07,1.07,0,0,0,.52.14,1.08,1.08,0,0,0,.53-2l-4-2.24a1.07,1.07,0,0,0-.52-.14Zm9.89,1.62a1.07,1.07,0,0,0-1,1.47l1.71,4.26a1.08,1.08,0,1,0,2-.8l-1.71-4.26a1.08,1.08,0,0,0-1-.68Zm-47,4.71a1.08,1.08,0,0,0-1.07.93l-.62,4.55a1.08,1.08,0,0,0,.92,1.21h.14a1.08,1.08,0,0,0,1.07-.93l.62-4.55a1.08,1.08,0,0,0-.92-1.21Zm42.15,6.7A1.08,1.08,0,0,0,51.3,36l-.62,4.55a1.07,1.07,0,0,0,.92,1.21h.14a1.08,1.08,0,0,0,1.07-.93l.62-4.55a1.08,1.08,0,0,0-.92-1.21ZM13.56,38A1.08,1.08,0,0,0,13,40l4,2.24a1.07,1.07,0,0,0,.52.14,1.08,1.08,0,0,0,.53-2l-4-2.24a1.07,1.07,0,0,0-.52-.14Zm1.91,9.2a1.07,1.07,0,0,0-1,1.46L16.12,53a1.08,1.08,0,1,0,2-.77L16.48,47.9a1.08,1.08,0,0,0-1-.69Zm40.22.19-.21,0L51,48.3a1.08,1.08,0,0,0,.2,2.13l.21,0,4.5-.88a1.08,1.08,0,0,0-.2-2.13ZM28.45,48.91a1.07,1.07,0,0,0-.69.25l-3.52,2.94a1.08,1.08,0,0,0,1.38,1.65l3.52-2.94a1.08,1.08,0,0,0-.69-1.9Zm14.71.78H43a1.07,1.07,0,0,0-.92,1.21l.62,4.55a1.08,1.08,0,0,0,1.07.93h.14a1.08,1.08,0,0,0,.92-1.21l-.62-4.55a1.07,1.07,0,0,0-1.07-.93ZM32.37,55.53a1.08,1.08,0,0,0-.27,2.12l4.43,1.18a1.08,1.08,0,1,0,.55-2.08l-4.43-1.18a1.08,1.08,0,0,0-.28,0Z"/></g><path id="primary" class="cls-2" d="M34,4A30,30,0,1,1,4,34,30,30,0,0,1,34,4m0-2A32,32,0,1,0,66,34,32,32,0,0,0,34,2Zm0,22A10,10,0,1,1,24,34,10,10,0,0,1,34,24m0-2A12,12,0,1,0,46,34,12,12,0,0,0,34,22Z"/></g></svg>