<svg id="Layer_1" data-name="Layer 1" xmlns="http://www.w3.org/2000/svg" viewBox="0 0 41 41"><defs><style>.cls-1{fill:#e65400;}.cls-2{fill:#76787c;}</style></defs><title>ai-icons</title><g id="generic-money-bill-sm"><g id="secondary"><path class="cls-1" d="M12.65,20.5a1.81,1.81,0,1,1-1.81-1.81A1.81,1.81,0,0,1,12.65,20.5Zm17.52-1.81A1.81,1.81,0,1,0,32,20.5,1.81,1.81,0,0,0,30.17,18.69Z"/></g><path id="primary" class="cls-2" d="M38.63,11.44V29.56H2.38V11.44H38.63m1.21-1.21H1.17V30.77H39.83V10.23Zm-19.33,6a4.23,4.23,0,1,1-4.23,4.23,4.23,4.23,0,0,1,4.23-4.23m0-1.21a5.44,5.44,0,1,0,5.44,5.44,5.44,5.44,0,0,0-5.44-5.44Z"/></g></svg>