<svg id="Layer_1" data-name="Layer 1" xmlns="http://www.w3.org/2000/svg" viewBox="0 0 41 41"><defs><style>.cls-1{fill:#e65400;}.cls-2{fill:#76787c;}</style></defs><title>ai-icons</title><g id="hand-and-coins-sm"><path id="secondary" class="cls-1" d="M24.5,8.16a3.7,3.7,0,1,0-3.7-3.7A3.7,3.7,0,0,0,24.5,8.16ZM24.5,2A2.47,2.47,0,1,1,22,4.45,2.47,2.47,0,0,1,24.5,2ZM14.62,14.33a3.7,3.7,0,1,0,3.7-3.7A3.7,3.7,0,0,0,14.62,14.33Zm3.7-2.47a2.47,2.47,0,1,1-2.47,2.47A2.47,2.47,0,0,1,18.33,11.86ZM13.39,9.39a3.7,3.7,0,1,0-3.7-3.7A3.7,3.7,0,0,0,13.39,9.39Zm0-6.17a2.47,2.47,0,1,1-2.47,2.47A2.47,2.47,0,0,1,13.39,3.22Z"/><path id="primary" class="cls-2" d="M39.82,25.79c0-.1-.86-2.52-2.76-3.19a3.5,3.5,0,0,0-3.14.54l-.5.32c-.9.58-1.87,1.2-2.94,1.85a4,4,0,0,0-1-2.73,3.15,3.15,0,0,0-2.91-.82,39.69,39.69,0,0,1-7.51.55A11.33,11.33,0,0,1,15.54,21c-2.3-1.18-5.24-1.72-12-.52V19.11H1v1.23H2.28V37.63H1v1.23H3.51V36.06A15.67,15.67,0,0,1,7.89,37a14.25,14.25,0,0,1,1.61.81c1.89,1,4.47,2.44,7.49,2.44,5.61,0,13.39-6.3,13.72-6.56L40,26.19Zm-9.89,6.94C29.85,32.79,22.15,39,17,39c-2.7,0-5.12-1.33-6.89-2.29a14.93,14.93,0,0,0-1.78-.88,16.92,16.92,0,0,0-4.8-1V21.52l0,.17c7.31-1.32,9.74-.5,11.43.37a12.53,12.53,0,0,0,3.94,1.44c1.76.27,6.28-.3,7.88-.55a2,2,0,0,1,1.83.46,3.25,3.25,0,0,1,.59,2.63c-.7.41-1.45.82-2.25,1.23-2,1-5.36,1-8.4,0l-.4,1.17c3.39,1.17,7.07,1.16,9.37,0,2.66-1.38,4.74-2.71,6.57-3.89l.5-.32a2.31,2.31,0,0,1,2.06-.41,3.78,3.78,0,0,1,1.84,2Z"/></g></svg>