<svg id="Layer_1" data-name="Layer 1" xmlns="http://www.w3.org/2000/svg" viewBox="0 0 41 41"><defs><style>.cls-1{fill:#e65400;}.cls-2{fill:#76787c;}</style></defs><title>ai-icons</title><g id="healthcare-sm"><polygon id="secondary" class="cls-1" points="18.1 30.1 18.1 18.83 16.67 21.69 10.29 21.69 10.29 20.49 15.92 20.49 19.3 13.74 19.3 24.09 25.31 9.67 25.31 19.96 26.11 18.08 31.91 18.08 31.91 19.29 26.9 19.29 24.1 25.82 24.1 15.68 18.1 30.1"/><path id="primary" class="cls-2" d="M20.49,37.33a1.45,1.45,0,0,1-1-.42L3.76,21.4a10.29,10.29,0,0,1,0-14.69,10.6,10.6,0,0,1,14.86,0l1.89,1.87,1.86-1.85a10.63,10.63,0,0,1,14.87,0,10.3,10.3,0,0,1,0,14.7l-7.79,7.67-7.95,7.82A1.45,1.45,0,0,1,20.49,37.33ZM11.19,4.87A9.33,9.33,0,0,0,4.6,7.57a9.09,9.09,0,0,0,0,13l15.7,15.52a.25.25,0,0,0,.36,0l7.95-7.82,7.78-7.67a9.1,9.1,0,0,0,0-13,9.43,9.43,0,0,0-13.18,0l-2.7,2.69-2.73-2.7A9.33,9.33,0,0,0,11.19,4.87Z"/></g></svg>