<svg id="Layer_1" data-name="Layer 1" xmlns="http://www.w3.org/2000/svg" viewBox="0 0 68 68"><defs><style>.cls-1{fill:#e65400;}.cls-2{fill:#76787c;}</style></defs><title>ai-icons</title><g id="Idea"><path id="secondary" class="cls-1" d="M51.63,19.65l-.92-1.77,6.56-3.42.92,1.77ZM35.17,2h-2V9.61h2ZM17.86,17.76,11.2,14.54l-.87,1.8L17,19.56Zm40.41,17.1-3.33-1.61L54.06,35l3.33,1.61ZM13.94,35l-.87-1.8L9.73,34.86l.87,1.8Z"/><path id="primary" class="cls-2" d="M27.32,52.5l-.25-.15a3.11,3.11,0,0,1-1.39-2.42l-.3-3.64c-.38-1.58-1.9-4-3.38-6.35a15.82,15.82,0,0,1-2.18-3.6l0-.05a1.15,1.15,0,0,1-.17-.44,15.79,15.79,0,1,1,28.51,1.81l-.13.26c-.56,1.1-1.31,2.36-2,3.58a23.48,23.48,0,0,0-2.1,3.93L43,49.85a3.42,3.42,0,0,1-2,2.44l-.29,0ZM21.68,35.6a14.15,14.15,0,0,0,1.91,3.12l.07.1c1.68,2.66,3.26,5.17,3.69,7.09l0,.13.31,3.71a1.39,1.39,0,0,0,.27.73l12.47-.14a1.64,1.64,0,0,0,.6-.85L41.9,45a20.71,20.71,0,0,1,2.34-4.55c.43-.71.86-1.44,1.25-2.13h-.05L46.22,37A13.78,13.78,0,1,0,21.55,35.3ZM41.53,59.95l-.31-2-13.6,2.11.31,2Zm0,3.93-.31-2L27.62,64l.31,2Zm0-7.68-.31-2-13.6,2.11.31,2Z"/></g></svg>