<svg id="Layer_1" data-name="Layer 1" xmlns="http://www.w3.org/2000/svg" viewBox="0 0 41 41"><defs><style>.cls-1{fill:#e65400;}.cls-2{fill:#76787c;}</style></defs><title>ai-icons</title><g id="Idea-sm"><path id="secondary" class="cls-1" d="M31.09,11.87l-.56-1.07,3.94-2.05L35,9.82ZM21.2,1.27H20V5.84h1.2ZM10.8,10.74,6.8,8.8,6.27,9.89l4,1.94ZM35.08,21l-2-1-.52,1.08,2,1Zm-26.64.11L7.92,20l-2,1,.52,1.08Z"/><path id="primary" class="cls-2" d="M16.48,31.62l-.15-.09a1.87,1.87,0,0,1-.84-1.46l-.18-2.19a16.73,16.73,0,0,0-2-3.81A9.51,9.51,0,0,1,12,21.9l0,0a.69.69,0,0,1-.1-.26A9.49,9.49,0,1,1,29,22.69l-.08.16c-.34.66-.79,1.42-1.23,2.15a14.11,14.11,0,0,0-1.26,2.36L25.9,30a2.05,2.05,0,0,1-1.23,1.47l-.17,0ZM13.09,21.46a8.5,8.5,0,0,0,1.15,1.87l0,.06a16.49,16.49,0,0,1,2.21,4.26v.08L16.7,30a.83.83,0,0,0,.16.44l7.5-.09a1,1,0,0,0,.36-.51l.53-2.69a12.45,12.45,0,0,1,1.41-2.73c.26-.43.52-.86.75-1.28h0l.47-.82a8.28,8.28,0,1,0-14.83-1ZM25,36.09l-.18-1.19-8.17,1.27.18,1.19Zm0,2.36-.18-1.19-8.17,1.27.18,1.19Zm0-4.61-.18-1.19-8.17,1.27.18,1.19Z"/></g></svg>