<svg id="Layer_1" data-name="Layer 1" xmlns="http://www.w3.org/2000/svg" viewBox="0 0 68 68"><defs><style>.cls-1{fill:#e65400;}.cls-2{fill:#76787c;}</style></defs><title>ai-icons</title><g id="in-person-event"><path id="secondary" class="cls-1" d="M14.32,15.75l-1.63-1.16A27.65,27.65,0,0,1,56.2,12.67l.62-5.44,2,.23-1,8.83-8.83-1,.23-2,5.44.62a25.65,25.65,0,0,0-40.33,1.83ZM35.53,63A25.65,25.65,0,0,1,15.9,54.51l5.45.49.18-2-8.85-.8-.8,8.85,2,.18.49-5.45A27.74,27.74,0,0,0,35,65h.63A27.74,27.74,0,0,0,57.83,52.9l-1.65-1.13A25.74,25.74,0,0,1,35.53,63Z"/><path id="primary" class="cls-2" d="M17.95,32.56a9.2,9.2,0,0,0,1.29-4.8c0-4-2.71-6.88-6.45-6.88s-6.45,2.89-6.45,6.88a9.24,9.24,0,0,0,1.21,4.67,17.81,17.81,0,0,0-6.16,4.36,1,1,0,0,0-.32.76v3.52a1.05,1.05,0,0,0,.27.7,15.29,15.29,0,0,0,11.47,5c5.08,0,9-3.09,10.84-4.94a1.05,1.05,0,0,0,.31-.75V37.55a1.05,1.05,0,0,0-.21-.63A13,13,0,0,0,17.95,32.56Zm-5.16-9.68c2.46,0,4.45,1.85,4.45,4.88s-2,6.1-4.45,6.1-4.45-3.07-4.45-6.1S10.32,22.88,12.78,22.88Zm9.06,17.75c-1.74,1.63-5,4-9,4a13.24,13.24,0,0,1-9.63-4V38c1-1,3.37-3.21,5.77-3.78h0a5.73,5.73,0,0,0,3.84,1.66,5.69,5.69,0,0,0,3.73-1.57h0a10.52,10.52,0,0,1,5.28,3.61Zm44.89-3.71a13,13,0,0,0-5.79-4.36,9.2,9.2,0,0,0,1.29-4.8c0-4-2.71-6.88-6.45-6.88s-6.45,2.89-6.45,6.88a9.24,9.24,0,0,0,1.21,4.67,17.81,17.81,0,0,0-6.16,4.36,1,1,0,0,0-.32.76v3.52a1.05,1.05,0,0,0,.27.7,15.29,15.29,0,0,0,11.47,5c5.08,0,9-3.09,10.84-4.94a1.05,1.05,0,0,0,.31-.75V37.55A1.05,1.05,0,0,0,66.73,36.92Zm-10.95-14c2.46,0,4.45,1.85,4.45,4.88s-2,6.1-4.45,6.1-4.45-3.07-4.45-6.1S53.32,22.88,55.78,22.88Zm9.06,17.75c-1.74,1.63-5,4-9,4a13.24,13.24,0,0,1-9.63-4V38c1-1,3.37-3.21,5.77-3.78h0a5.25,5.25,0,0,0,7.58.1h0a10.52,10.52,0,0,1,5.28,3.61Z"/></g></svg>