<svg id="Layer_1" data-name="Layer 1" xmlns="http://www.w3.org/2000/svg" viewBox="0 0 68 68"><defs><style>.cls-1{fill:#e65400;}.cls-2{fill:#76787c;}</style></defs><title>ai-icons</title><g id="revenue-management"><path id="secondary" class="cls-1" d="M52.65,36.31A13.35,13.35,0,1,0,66,49.65,13.35,13.35,0,0,0,52.65,36.31Zm.87,20v1.75H51.89V56.31a6.39,6.39,0,0,1-3.8-1.79l1.33-1.84a5.4,5.4,0,0,0,3.36,1.42c1,0,2-.53,2-1.63,0-2.28-6.42-2.05-6.42-6.14a3.94,3.94,0,0,1,3.57-3.82V40.74h1.63v1.75a5.46,5.46,0,0,1,3.34,1.39l-1.06,2a4.93,4.93,0,0,0-3-1.18c-1.14,0-2,.66-2,1.61,0,2.26,6.4,1.86,6.4,6.12A3.92,3.92,0,0,1,53.53,56.31Z"/><path id="primary" class="cls-2" d="M12,55.5H2v-2H12Zm13-2H15v2H25Zm13,0H28v2H38Zm-26-7H2v2H12Zm13,0H15v2H25Zm13,0H28v2H38Zm-13-7H15v2H25Zm13,0H28v2H38Zm-13-7H15v2H25Zm13,0H28v2H38Zm13,0H41v2H51Zm-13-7H28v2H38Zm13,0H41v2H51Zm-13-7H28v2H38Zm13,0H41v2H51Zm0-7H41v2H51Zm0-7H41v2H51Zm-7,35H41v2h1.1A13.41,13.41,0,0,1,44,39.5Z"/></g></svg>