<svg id="Layer_1" data-name="Layer 1" xmlns="http://www.w3.org/2000/svg" viewBox="0 0 41 41"><defs><style>.cls-1{fill:#e65400;}.cls-2{fill:#76787c;}</style></defs><title>ai-icons</title><g id="webcast-sm"><path id="secondary" class="cls-1" d="M14.88,30.5A1.88,1.88,0,1,1,13,28.63,1.87,1.87,0,0,1,14.88,30.5ZM24.2,19l-6.65-4.35h0a.43.43,0,0,0-.48,0c-.17.1-.14.28-.14.47v8.7c0,.2,0,.38.14.47s0,.07.14.07a.58.58,0,0,0,.29-.08L24.18,20a.55.55,0,0,0,.28-.47A.53.53,0,0,0,24.2,19Z"/><path id="primary" class="cls-2" d="M40.5,6.13V34.88H.5V6.13ZM1.75,7.38v2.5h37.5V7.38Zm37.5,26.25V11.13H1.75v22.5ZM11.13,30.5a1.86,1.86,0,0,1,.11-.62H6.13v1.25h5.11A1.86,1.86,0,0,1,11.13,30.5Zm3.64-.62a1.76,1.76,0,0,1,0,1.25H34.88V29.88Z"/></g></svg>