<svg id="Layer_1" data-name="Layer 1" xmlns="http://www.w3.org/2000/svg" viewBox="0 0 41 41"><defs><style>.cls-1{fill:#e65400;}.cls-2{fill:#76787c;}</style></defs><title>ai-icons</title><g id="webinar-sm"><path id="secondary" class="cls-1" d="M24.64,17.39c0,2.69-1.82,5.41-4.06,5.41s-4.06-2.72-4.06-5.41a4.06,4.06,0,1,1,8.11,0ZM14.36,29.79a1.85,1.85,0,0,1,3.65,0H29.79v-3c0-1.34-2.64-3.1-5.18-4a5.52,5.52,0,0,1-3.75,1.55,6.79,6.79,0,0,1-4.25-1.56c-2.55.86-5.41,2.64-5.41,4v3ZM16.19,32a1.85,1.85,0,0,1-1.6-.93H11.21v2.48H29.79V31h-12A1.85,1.85,0,0,1,16.19,32Z"/><path id="primary" class="cls-2" d="M.67,6.25v28.5H40.33V6.25ZM39.09,33.52H1.91V11.21H39.09Zm0-23.55H1.91V7.48H39.09ZM14.59,31H6.25V29.79h8.11A1.74,1.74,0,0,0,14.59,31Zm3.2,0A1.74,1.74,0,0,0,18,29.79H34.75V31Z"/></g></svg>