<svg id="Layer_1" data-name="Layer 1" xmlns="http://www.w3.org/2000/svg" viewBox="0 0 68 68"><defs><style>.cls-1{fill:#e65400;}.cls-2{fill:#76787c;}</style></defs><title>ai-icons</title><g id="webinar"><path id="secondary" class="cls-1" d="M40.69,29c0,4.34-2.93,8.73-6.55,8.73S27.59,33.32,27.59,29s2.93-7,6.55-7S40.69,24.65,40.69,29ZM24.09,49A3,3,0,0,1,30,49H49V44.23c0-2.17-4.26-5-8.36-6.41a8.91,8.91,0,0,1-6.05,2.51,11,11,0,0,1-6.85-2.52C23.62,39.2,19,42.06,19,44.23V49ZM27,52.5A3,3,0,0,1,24.46,51H19v4H49V51H29.63A3,3,0,0,1,27,52.5Z"/><path id="primary" class="cls-2" d="M2,11V57H66V11ZM64,55H4V19H64Zm0-38H4V13H64ZM24.46,51H11V49H24.09a2.8,2.8,0,0,0,.37,2Zm5.17,0A2.8,2.8,0,0,0,30,49H57v2Z"/></g></svg>