<svg id="Layer_1" data-name="Layer 1" xmlns="http://www.w3.org/2000/svg" viewBox="0 0 41 41"><defs><style>.cls-1{fill:#e65400;}.cls-2{fill:#76787c;}</style></defs><title>ai-icons</title><g id="whitepaper-sm"><path id="secondary" class="cls-1" d="M9.71,28.62a1.25,1.25,0,1,1-1.25-1.25A1.25,1.25,0,0,1,9.71,28.62ZM8.46,17.38a1.25,1.25,0,1,0,1.25,1.25A1.25,1.25,0,0,0,8.46,17.38Zm0-6.87A1.25,1.25,0,1,0,7.21,9.25,1.25,1.25,0,0,0,8.46,10.5Z"/><path id="primary" class="cls-2" d="M31.58,3.34V.5H2.83V36.75H6.25l-.08.79,28.17,3L38.17,4ZM4.08,35.5V1.75H30.33V35.5Zm29.15,3.63L10.58,36.75h21V4.6l5.21.55ZM12.83,28H26v1.25H12.83Zm0-10H26v1.25H12.83Zm0-9.37H26V9.88H12.83Z"/></g></svg>