<svg id="Layer_1" data-name="Layer 1" xmlns="http://www.w3.org/2000/svg" viewBox="0 0 68 68"><defs><style>.cls-1{fill:#e65400;}.cls-2{fill:#76787c;}</style></defs><title>ai-icons</title><g id="whitepaper"><path id="secondary" class="cls-1" d="M16.73,47a2,2,0,1,1-2-2A2,2,0,0,1,16.73,47Zm-2-18a2,2,0,1,0,2,2A2,2,0,0,0,14.73,29Zm0-11a2,2,0,1,0-2-2A2,2,0,0,0,14.73,18Z"/><path id="primary" class="cls-2" d="M51.73,6.55V2h-46V60H11.2l-.13,1.27L56.15,66,62.27,7.65ZM7.73,58V4h42V58Zm46.64,5.8L18.13,60h33.6V8.56l8.34.88ZM21.73,46h21v2h-21Zm0-16h21v2h-21Zm0-15h21v2h-21Z"/></g></svg>