<svg id="Layer_1" data-name="Layer 1" xmlns="http://www.w3.org/2000/svg" viewBox="0 0 41 41"><defs><style>.cls-1{fill:#e65400;}.cls-2{fill:#76787c;}</style></defs><title>ai-icons</title><g id="balance-sheet"><path id="secondary" class="cls-1" d="M5.45,25.08H18.78a6.67,6.67,0,0,1-13.33,0Zm21.67-6.55a6.67,6.67,0,1,0,13.33,0Z"/><path id="primary" class="cls-2" d="M34.68,5.86l-10.79,3V5.5H.55v30H23.89V10.11L35,7.06Zm-12,3.3L10.8,12.39l.33,1.21,11.5-3.15v23.8H1.8V6.75H22.64ZM5.46,25.08l0,0,6.08-8.2a.84.84,0,0,1,1.17,0l6.08,8.2,0,0H17l.15-.14-5-6.76-5,6.76.15.14Zm35-6.56,0,0H38.65l.15-.14-5-6.76-5,6.76.15.14H27.13l0,0,6.08-8.2a.84.84,0,0,1,1.17,0Z"/></g></svg>