<svg id="Layer_1" data-name="Layer 1" xmlns="http://www.w3.org/2000/svg" viewBox="0 0 68 68"><defs><style>.cls-1{fill:#e65400;}.cls-2{fill:#76787c;}</style></defs><title>ai-icons</title><g id="balance-sheet"><path id="secondary" class="cls-1" d="M9.92,39.83H31.25a10.67,10.67,0,0,1-21.33,0ZM44.58,29.36a10.67,10.67,0,1,0,21.33,0Z"/><path id="primary" class="cls-2" d="M56.68,9.07,39.42,13.8V8.5H2.08v48H39.42V15.87L57.21,11ZM37.42,14.34,18.48,19.52,19,21.45l18.4-5V54.5H4.08v-44H37.42ZM9.94,39.83l0,0,9.73-13.12a1.34,1.34,0,0,1,1.87,0l9.73,13.12,0,0H28.37l.23-.23-8-10.82-8,10.82.23.23Zm56-10.5,0,0H63l.23-.23-8-10.82-8,10.82.23.23H44.61l0,0,9.73-13.12a1.34,1.34,0,0,1,1.87,0Z"/></g></svg>