<svg id="Layer_1" data-name="Layer 1" xmlns="http://www.w3.org/2000/svg" viewBox="0 0 41 41"><defs><style>.cls-1{fill:#e65400;}.cls-2{fill:#76787c;}</style></defs><title>ai-icons</title><g id="calendar-4-sm"><path id="secondary" class="cls-1" d="M33.26,22.63A6.69,6.69,0,1,0,40,29.31,6.69,6.69,0,0,0,33.26,22.63Zm3,10.94-3-2.3-3,2.3,1.15-3.71-3-2.3h3.71l1.15-3.71,1.15,3.71h3.71l-3,2.3Z"/><path id="primary" class="cls-2" d="M32.66,11.69H2.26V8h8.51V9.25H12V8H22.93V9.25h1.22V8h8.51ZM26.58,29.31H2.26V12.9H32.66v9.76c.2,0,.4,0,.61,0s.41,0,.61,0V6.82H24.15V5H22.93V6.82H12V5H10.77V6.82H1V30.52H26.69A6.71,6.71,0,0,1,26.58,29.31Z"/></g></svg>