<svg id="Layer_1" data-name="Layer 1" xmlns="http://www.w3.org/2000/svg" viewBox="0 0 68 68"><defs><style>.cls-1{fill:#e65400;}.cls-2{fill:#76787c;}</style></defs><title>ai-icons</title><g id="collaborative"><circle id="secondary" class="cls-1" cx="34" cy="34.91" r="4.57"/><path id="primary" class="cls-2" d="M34,4a2.57,2.57,0,1,1-2.57,2.57A2.57,2.57,0,0,1,34,4m0-2a4.57,4.57,0,1,0,4.57,4.57A4.57,4.57,0,0,0,34,2Zm0,56.86a2.57,2.57,0,1,1-2.57,2.57A2.57,2.57,0,0,1,34,58.86m0-2a4.57,4.57,0,1,0,4.57,4.57A4.57,4.57,0,0,0,34,56.86Zm23.77-10.8a2.57,2.57,0,1,1-2.57,2.57,2.57,2.57,0,0,1,2.57-2.57m0-2a4.57,4.57,0,1,0,4.57,4.57,4.57,4.57,0,0,0-4.57-4.57Zm0-25.43A2.57,2.57,0,1,1,55.2,21.2a2.57,2.57,0,0,1,2.57-2.57m0-2a4.57,4.57,0,1,0,4.57,4.57,4.57,4.57,0,0,0-4.57-4.57ZM10.23,46.06a2.57,2.57,0,1,1-2.57,2.57,2.57,2.57,0,0,1,2.57-2.57m0-2a4.57,4.57,0,1,0,4.57,4.57,4.57,4.57,0,0,0-4.57-4.57Zm0-25.43A2.57,2.57,0,1,1,7.66,21.2a2.57,2.57,0,0,1,2.57-2.57m0-2A4.57,4.57,0,1,0,14.8,21.2a4.57,4.57,0,0,0-4.57-4.57Zm4.35,3.23,16.69-9.64A4.57,4.57,0,0,1,30,8.66L13.58,18.12A4.54,4.54,0,0,1,14.58,19.86Zm22.16-9.64,16.69,9.64a4.54,4.54,0,0,1,1-1.74L38,8.66A4.57,4.57,0,0,1,36.73,10.22ZM34,56.86A4.56,4.56,0,0,1,35,57V43.08a7.49,7.49,0,0,1-2,0V57A4.56,4.56,0,0,1,34,56.86Zm19.49-34.1L40.7,30.15a8.21,8.21,0,0,1,1,1.76l12.91-7.46A4.56,4.56,0,0,1,53.49,22.76Zm-12.89,17,13,6.94a4.55,4.55,0,0,1,.46-.79l.51-1-13-6.93A8.22,8.22,0,0,1,40.6,39.81ZM34,26.69a8.24,8.24,0,0,1,1,.07V11a4.32,4.32,0,0,1-2,0V26.75A8.24,8.24,0,0,1,34,26.69ZM26.53,38.34,13.74,45.73a4.53,4.53,0,0,1,.91,1.78L27.58,40A8.24,8.24,0,0,1,26.53,38.34ZM30.16,59,14.58,50a4.54,4.54,0,0,1-1,1.74l15.9,9.18A4.53,4.53,0,0,1,30.16,59Zm27.61-33.2a4.56,4.56,0,0,1-1-.12V44.18a4.32,4.32,0,0,1,2,0V25.66A4.57,4.57,0,0,1,57.77,25.77ZM53.42,50,37.84,59a4.53,4.53,0,0,1,.67,1.92l15.9-9.18A4.54,4.54,0,0,1,53.42,50Zm-43.2-5.92a4.56,4.56,0,0,1,1,.12V25.65a4.32,4.32,0,0,1-2,0V44.17A4.57,4.57,0,0,1,10.23,44.06ZM27.15,30.37l-13-6.91A4.58,4.58,0,0,1,12.8,25l13.46,7.18A8.21,8.21,0,0,1,27.15,30.37Z"/></g></svg>