<svg id="Layer_1" data-name="Layer 1" xmlns="http://www.w3.org/2000/svg" viewBox="0 0 41 41"><defs><style>.cls-1{fill:#e65400;}.cls-2{fill:#76787c;}</style></defs><title>ai-icons</title><g id="fast-sm"><path id="secondary" class="cls-1" d="M5.1,31.11l-.88-.88,8.4-8.4.88.88Zm14-2.77-.88-.88-8.4,8.4.88.88Zm-1.63-4.89-.62-.26L.5,39.58l.88.88L17.77,24.08Z"/><path id="primary" class="cls-2" d="M36.25,1.79A19.69,19.69,0,0,1,39.1,2a19.68,19.68,0,0,1-.48,7.34c-1.54,5.81-5.69,9.84-12.34,12l-.81.26-.06.84a31.61,31.61,0,0,1-1,7.05l-1.22,1.22L19.62,22l-.2-.48-.48-.2-8.67-3.61,1.22-1.22a32.65,32.65,0,0,1,7.26-1l.87-.06.25-.83C23,4,30.53,1.79,36.25,1.79m0-1.25c-5.18,0-14,1.85-17.59,13.75-1.22.08-7.22.51-8,1.28l-2.6,2.6L18.46,22.5,22.8,32.89l2.6-2.6c.74-.74,1.16-6.21,1.27-7.79C43.74,17,40.19.92,40.19.92A18.64,18.64,0,0,0,36.25.54Z"/></g></svg>