<svg id="Layer_1" data-name="Layer 1" xmlns="http://www.w3.org/2000/svg" viewBox="0 0 68 68"><defs><style>.cls-1{fill:#e65400;}.cls-2{fill:#76787c;}</style></defs><title>ai-icons</title><g id="fast"><path id="secondary" class="cls-1" d="M9.37,51,8,49.57,21.4,36.12l1.41,1.41Zm22.45-4.44-1.41-1.41L17,58.57,18.37,60Zm-2.61-7.82-1-.42L2,64.53l1.41,1.41L29.63,39.72Z"/><path id="primary" class="cls-2" d="M59.2,4.06a31.51,31.51,0,0,1,4.56.33A31.48,31.48,0,0,1,63,16.12c-2.46,9.3-9.11,15.75-19.75,19.18L42,35.72l-.09,1.35c-.43,6.25-1.09,10.36-1.55,11.29L38.37,50.3,32.59,36.43l-.32-.76-.76-.32L17.64,29.57l1.95-1.95c.94-.46,5.26-1.16,11.61-1.57L32.58,26l.4-1.33C38.06,7.63,50,4.06,59.2,4.06m0-2c-8.29,0-22.45,3-28.14,22-2,.13-11.55.81-12.8,2.06l-4.16,4.16L30.74,37.2l6.93,16.63,4.16-4.16c1.18-1.18,1.86-9.94,2-12.46C71.19,28.4,65.51,2.67,65.51,2.67a29.82,29.82,0,0,0-6.31-.61Z"/></g></svg>