<svg id="Layer_1" data-name="Layer 1" xmlns="http://www.w3.org/2000/svg" viewBox="0 0 41 41"><defs><style>.cls-1{fill:#e65400;}.cls-2{fill:#76787c;}</style></defs><title>ai-icons</title><g id="in-person-event-sm"><path id="secondary" class="cls-1" d="M8.55,9.42l-1-.71A16.79,16.79,0,0,1,34,7.55l.37-3.3,1.21.14L35,9.75l-5.36-.61.14-1.21,3.3.37A15.57,15.57,0,0,0,8.55,9.42ZM21.43,38.1A15.57,15.57,0,0,1,9.51,33l3.31.3L12.93,32l-5.37-.49-.49,5.37L8.28,37l.3-3.31a16.84,16.84,0,0,0,12.5,5.59h.38A16.84,16.84,0,0,0,35,32l-1-.68A15.63,15.63,0,0,1,21.43,38.1Z"/><path id="primary" class="cls-2" d="M10.75,19.62a5.58,5.58,0,0,0,.78-2.91,3.93,3.93,0,1,0-7.83,0,5.61,5.61,0,0,0,.73,2.84A10.81,10.81,0,0,0,.7,22.2a.63.63,0,0,0-.2.46v2.14a.64.64,0,0,0,.16.42,9.28,9.28,0,0,0,7,3,9.72,9.72,0,0,0,6.58-3,.64.64,0,0,0,.19-.45V22.66a.64.64,0,0,0-.13-.38A7.86,7.86,0,0,0,10.75,19.62ZM7.62,13.75a2.72,2.72,0,0,1,2.7,3c0,1.84-1.21,3.7-2.7,3.7s-2.7-1.86-2.7-3.7A2.72,2.72,0,0,1,7.62,13.75Zm5.5,10.77A8.33,8.33,0,0,1,7.62,27a8,8,0,0,1-5.85-2.42V22.91a8.57,8.57,0,0,1,3.5-2.29h0a3.48,3.48,0,0,0,2.33,1,3.45,3.45,0,0,0,2.27-1h0a6.39,6.39,0,0,1,3.21,2.19Zm27.26-2.25a7.86,7.86,0,0,0-3.51-2.65,5.58,5.58,0,0,0,.78-2.91,3.93,3.93,0,1,0-7.83,0,5.61,5.61,0,0,0,.73,2.84A10.81,10.81,0,0,0,26.8,22.2a.63.63,0,0,0-.2.46v2.14a.64.64,0,0,0,.16.42,9.28,9.28,0,0,0,7,3,9.72,9.72,0,0,0,6.58-3,.64.64,0,0,0,.19-.45V22.66A.64.64,0,0,0,40.37,22.27Zm-6.65-8.53a2.72,2.72,0,0,1,2.7,3c0,1.84-1.21,3.7-2.7,3.7S31,18.55,31,16.71A2.72,2.72,0,0,1,33.72,13.75Zm5.5,10.77A8.33,8.33,0,0,1,33.73,27a8,8,0,0,1-5.85-2.42V22.91a8.57,8.57,0,0,1,3.5-2.29h0a3.19,3.19,0,0,0,4.6.06h0a6.39,6.39,0,0,1,3.21,2.19Z"/></g></svg>