<svg id="Layer_1" data-name="Layer 1" xmlns="http://www.w3.org/2000/svg" viewBox="0 0 41 41"><defs><style>.cls-1{fill:#e65400;}.cls-2{fill:#76787c;}</style></defs><title>ai-icons</title><g id="infographic-sm"><path id="secondary" class="cls-1" d="M15.5,24.25h3.75v7.5H15.5Zm-5.62,7.5h3.75v-10H9.88Zm-5.62,0H8v-5H4.25Zm32.11-7.26-1.9.8a2.93,2.93,0,0,1-4,3.78l-.91,1.86a5,5,0,0,0,2.2.51,5,5,0,0,0,4.61-6.95Z"/><path id="primary" class="cls-2" d="M.5,6.13V34.88h40V6.13ZM39.25,7.38v2.5H1.75V7.38ZM1.75,33.63V11.13h37.5v22.5Zm2.5-16.25h32.5v1.25H4.25Zm0-3.75h32.5v1.25H4.25ZM36.36,24.49l-1.9.81a2.93,2.93,0,1,0-4,3.78l-.91,1.86a5,5,0,1,1,6.8-6.44Z"/></g></svg>