<svg id="Layer_1" data-name="Layer 1" xmlns="http://www.w3.org/2000/svg" viewBox="0 0 68 68"><defs><style>.cls-1{fill:#e65400;}.cls-2{fill:#76787c;}</style></defs><title>ai-icons</title><g id="infographic"><path id="secondary" class="cls-1" d="M26,40h6V52H26ZM17,52h6V36H17ZM8,52h6V44H8ZM59.37,40.39l-3,1.29a4.69,4.69,0,0,1-6.38,6l-1.46,3A7.92,7.92,0,0,0,52,51.5a8,8,0,0,0,7.37-11.11Z"/><path id="primary" class="cls-2" d="M2,11V57H66V11Zm62,2v4H4V13ZM4,55V19H64V55ZM8,29H60v2H8Zm0-6H60v2H8ZM59.37,40.39l-3,1.29a4.69,4.69,0,1,0-6.38,6l-1.46,3a8,8,0,1,1,10.89-10.3Z"/></g></svg>