<svg id="Layer_1" data-name="Layer 1" xmlns="http://www.w3.org/2000/svg" viewBox="0 0 41 41"><defs><style>.cls-1{fill:#e65400;}.cls-2{fill:#76787c;}</style></defs><title>ai-icons</title><g id="news-sm"><path id="secondary" class="cls-1" d="M39.25,19.88V11.13H1.75v8.75Zm-11-5.5a1.72,1.72,0,0,1,1.9-1.64,2.43,2.43,0,0,1,1.72.61l-.55,1.07a2,2,0,0,0-1.18-.47c-.27,0-.57.12-.57.42,0,.67,2.41.55,2.41,2.25a1.71,1.71,0,0,1-1.89,1.66,2.77,2.77,0,0,1-2-.76l.69-1a2.22,2.22,0,0,0,1.28.55c.27,0,.56-.1.56-.43C30.63,16,28.22,16,28.22,14.37Zm-6.67-1.55.67,3.35a3.12,3.12,0,0,1,.07.56h0a3,3,0,0,1,.09-.56l.82-3.35h1.06l.8,3.35a3,3,0,0,1,.09.56h0a3.09,3.09,0,0,1,.07-.56L26,12.82h1.36L26,18.18H24.52l-.67-2.71a4.58,4.58,0,0,1-.1-.63h0a4.52,4.52,0,0,1-.1.63l-.68,2.71H21.47l-1.3-5.36Zm-5.69,0h3.36v1.12h-2v1h1.63V16H17.16v1h2.15v1.12H15.85Zm-6.16,0H11l1.48,2.5a9.57,9.57,0,0,1,.45.91h0s-.06-.58-.06-.91v-2.5h1.31v5.36H12.89l-1.49-2.5a9.6,9.6,0,0,1-.45-.91h0s.06.58.06.91v2.5H9.68Z"/><path id="primary" class="cls-2" d="M.5,6.13V34.88h40V6.13ZM39.25,7.38v2.5H1.75V7.38ZM1.75,33.63V11.13h37.5v22.5Zm3.13-3.75h6.88v1.25H4.88Zm0-3.75h6.88v1.25H4.88Zm11.88,3.75h7.5v1.25h-7.5Zm0-3.75h7.5v1.25h-7.5Zm6.88-3.75h.63v1.25h-7.5V22.38Zm5.63,7.5h6.88v1.25H29.25Zm0-3.75h6.88v1.25H29.25Zm0-3.75h6.88v1.25H29.25Zm-24.37,0h6.88v1.25H4.88Z"/></g></svg>