<svg id="Layer_1" data-name="Layer 1" xmlns="http://www.w3.org/2000/svg" viewBox="0 0 68 68"><defs><style>.cls-1{fill:#e65400;}.cls-2{fill:#76787c;}</style></defs><title>ai-icons</title><g id="news"><path id="secondary" class="cls-1" d="M64,33V19H4V33ZM46.34,24.19a2.75,2.75,0,0,1,3-2.63,3.89,3.89,0,0,1,2.76,1l-.89,1.71a3.27,3.27,0,0,0-1.89-.76c-.43,0-.91.19-.91.67,0,1.08,3.86.89,3.86,3.6a2.73,2.73,0,0,1-3,2.66,4.43,4.43,0,0,1-3.13-1.22l1.1-1.59a3.55,3.55,0,0,0,2.05.89c.43,0,.9-.17.9-.68C50.21,26.8,46.34,26.83,46.34,24.19ZM35.67,21.71l1.08,5.36a5,5,0,0,1,.11.9h0a4.73,4.73,0,0,1,.14-.9l1.32-5.36H40l1.28,5.36a4.73,4.73,0,0,1,.14.9h0a5,5,0,0,1,.11-.9l1.17-5.36h2.17l-2.17,8.58H40.43L39.35,26a7.33,7.33,0,0,1-.17-1h0A7.23,7.23,0,0,1,39,26l-1.08,4.33H35.54l-2.09-8.58Zm-9.11,0h5.37v1.8H28.66v1.56h2.61v1.8H28.66v1.62H32.1v1.8H26.56Zm-9.86,0h2.12l2.38,4a15.31,15.31,0,0,1,.72,1.46h0s-.1-.92-.1-1.46v-4h2.1v8.58H21.83l-2.39-4a15.35,15.35,0,0,1-.72-1.46h0s.1.92.1,1.46v4h-2.1Z"/><path id="primary" class="cls-2" d="M2,11V57H66V11Zm62,2v4H4V13ZM4,55V19H64V55Zm5-6H20v2H9Zm0-6H20v2H9Zm19,6H40v2H28Zm0-6H40v2H28Zm11-6h1v2H28V37Zm9,12H59v2H48Zm0-6H59v2H48Zm0-6H59v2H48ZM9,37H20v2H9Z"/></g></svg>