<svg id="Layer_1" data-name="Layer 1" xmlns="http://www.w3.org/2000/svg" viewBox="0 0 41 41"><defs><style>.cls-1{fill:#e65400;}.cls-2{fill:#76787c;}</style></defs><title>ai-icons</title><g id="revenue-management-sm"><path id="secondary" class="cls-1" d="M32.16,22.1a8.34,8.34,0,1,0,8.34,8.34A8.34,8.34,0,0,0,32.16,22.1Zm.55,12.5V35.7h-1V34.6a4,4,0,0,1-2.37-1.12l.83-1.15a3.38,3.38,0,0,0,2.1.89c.64,0,1.22-.33,1.22-1,0-1.43-4-1.28-4-3.84A2.46,2.46,0,0,1,31.68,26V24.87h1V26a3.41,3.41,0,0,1,2.09.87l-.66,1.25a3.08,3.08,0,0,0-1.86-.74c-.71,0-1.27.42-1.27,1,0,1.41,4,1.16,4,3.82A2.45,2.45,0,0,1,32.7,34.6Z"/><path id="primary" class="cls-2" d="M6.75,34.09H.5V32.84H6.75Zm8.13-1.25H8.63v1.25h6.25Zm8.13,0H16.75v1.25H23ZM6.75,28.47H.5v1.25H6.75Zm8.13,0H8.63v1.25h6.25Zm8.13,0H16.75v1.25H23Zm-8.12-4.37H8.63v1.25h6.25Zm8.13,0H16.75v1.25H23Zm-8.12-4.37H8.63V21h6.25Zm8.13,0H16.75V21H23Zm8.13,0H24.88V21h6.25ZM23,15.34H16.75v1.25H23Zm8.13,0H24.88v1.25h6.25ZM23,11H16.75v1.25H23Zm8.13,0H24.88v1.25h6.25Zm0-4.37H24.88V7.84h6.25Zm0-4.37H24.88V3.47h6.25ZM26.75,24.09H24.88v1.25h.69A8.38,8.38,0,0,1,26.75,24.09Z"/></g></svg>