<svg id="Layer_1" data-name="Layer 1" xmlns="http://www.w3.org/2000/svg" viewBox="0 0 68 68"><defs><style>.cls-1{fill:#e65400;}.cls-2{fill:#76787c;}</style></defs><title>ai-icons</title><g id="webcast"><path id="secondary" class="cls-1" d="M25,50a3,3,0,1,1-3-3A3,3,0,0,1,25,50ZM39.92,31.67l-10.63-7h0a.68.68,0,0,0-.77,0c-.27.16-.22.44-.22.76V39.38c0,.32-.05.6.22.76s.07.12.22.12a.92.92,0,0,0,.46-.13l10.65-6.95a.87.87,0,0,0,.44-.76A.85.85,0,0,0,39.92,31.67Z"/><path id="primary" class="cls-2" d="M66,11V57H2V11ZM4,13v4H64V13ZM64,55V19H4V55ZM19,50a3,3,0,0,1,.18-1H11v2h8.18A3,3,0,0,1,19,50Zm5.82-1a2.81,2.81,0,0,1,0,2H57V49Z"/></g></svg>