<?xml version="1.0" encoding="UTF-8"?>
<svg width="2050px" height="603px" viewBox="0 0 2050 603" version="1.1" xmlns="http://www.w3.org/2000/svg" xmlns:xlink="http://www.w3.org/1999/xlink">
    <!-- Generator: Sketch 49.3 (51167) - http://www.bohemiancoding.com/sketch -->
    <title>circle-group-light-alt</title>
    <desc>Created with Sketch.</desc>
    <defs>
        <path d="M718.225145,0.8851 L731.296855,0.8851 C769.915902,4.0884893 800.261,36.4955527 800.261,76.0001 L800.261,76.6427252 C800.260334,76.5118954 800.26,76.3809867 800.26,76.25 C800.26,117.879 766.565,151.625 725,151.625 C766.523389,151.625 800.192528,185.304465 800.259899,226.875001 C800.192528,268.446533 766.523389,302.125 725,302.125 C766.565,302.125 800.26,335.872 800.26,377.5 C800.26,360.134139 806.123906,344.1398 815.976842,331.394837 C829.754419,313.802845 851.17355,302.5 875.2279,302.5 C916.7939,302.5 950.4879,336.247 950.4879,377.875 C950.4879,419.503 916.7939,453.25 875.2279,453.25 C874.391781,453.25 873.558845,453.236344 872.729304,453.209241 C873.319786,453.230798 873.912004,453.245542 874.505881,453.253397 C874.746286,453.251134 874.986961,453.25 875.2279,453.25 C916.7939,453.25 950.4879,486.997 950.4879,528.625 C950.4879,570.253 916.7939,604 875.2279,604 C873.479838,604 871.745692,603.940308 870.027385,603.822849 C871.841529,603.691773 873.67349,603.6251 875.521,603.6251 C833.956,603.6251 800.261,569.8791 800.261,528.2501 C800.261,569.8791 766.566,603.6251 725.001,603.6251 C727.550394,603.6251 730.070182,603.752056 732.554404,604 L0,604 L0,0.8851 L580.296855,0.8851 C618.915902,4.0884893 649.261,36.4955527 649.261,76.0001 C649.261,36.4955527 679.606098,4.0884893 718.225145,0.8851 Z M845.792079,157.733576 C854.833798,153.881376 864.782388,151.75 875.2279,151.75 C916.7939,151.75 950.4879,185.497 950.4879,227.125 C950.4879,268.753 916.7939,302.5 875.2279,302.5 C873.479422,302.5 871.744868,302.44028 870.02616,302.322765 C871.840378,302.191679 873.672414,302.125 875.52,302.125 C833.996611,302.125 800.327472,268.446533 800.260101,226.875001 C800.310342,195.874662 819.046902,169.262635 845.792079,157.733576 Z M1101.0083,227.125 C1101.0083,268.753 1067.3133,302.5 1025.7473,302.5 C984.1833,302.5 950.4883,268.753 950.4883,227.125 C950.4883,185.497 984.1833,151.75 1025.7473,151.75 C1067.3133,151.75 1101.0083,185.497 1101.0083,227.125 Z M1101.0083,377.875 C1101.0083,419.503 1067.3133,453.25 1025.7473,453.25 C984.1833,453.25 950.4883,419.503 950.4883,377.875 C950.4883,336.247 984.1833,302.5 1025.7473,302.5 C1067.3133,302.5 1101.0083,336.247 1101.0083,377.875 Z" id="path-1"></path>
    </defs>
    <g id="circle-group-light-alt" stroke="none" stroke-width="1" fill="none" fill-rule="evenodd">
        <g id="graient-knocked-out-copy" transform="translate(0.000000, -1.000000)">
            <g id="Light">
                <mask id="mask-2" fill="white">
                    <use xlink:href="#path-1"></use>
                </mask>
                <use id="Mask" fill-opacity="0.1" fill="#FFFFFF" xlink:href="#path-1"></use>
            </g>
            <g id="Dark" transform="translate(799.000000, 1.000000)" fill="#FFFFFF" fill-opacity="0.3">
                <path d="M151.4879,75.375 C151.4879,117.004 117.7939,150.75 76.2279,150.75 C34.6639,150.75 0.9679,117.004 0.9679,75.375 C0.9679,33.747 34.6639,0 76.2279,0 C117.7939,0 151.4879,33.747 151.4879,75.375" id="Fill-18"></path>
                <path d="M226.7473,150.75 C185.1833,150.75 151.4883,117.004 151.4883,75.375 C151.4883,33.747 185.1833,0 226.7473,0 C268.3133,0 302.0083,33.747 302.0083,75.375 C302.0083,117.004 268.3133,150.75 226.7473,150.75 Z" id="Fill-10"></path>
                <path d="M452.5279,376.875 C452.5279,418.503 418.8329,452.25 377.2679,452.25 C335.7029,452.25 302.0079,418.503 302.0079,376.875 C302.0079,335.247 335.7029,301.5 377.2679,301.5 C418.8329,301.5 452.5279,335.247 452.5279,376.875" id="Fill-32"></path>
            </g>
            <path d="M1101.0083,528.625 C1101.0083,570.253 1067.3133,604 1025.7473,604 C984.1833,604 950.4883,570.253 950.4883,528.625 C950.4883,486.997 984.1833,453.25 1025.7473,453.25 C1067.3133,453.25 1101.0083,486.997 1101.0083,528.625" id="Fill-44" fill-opacity="0.7" fill="#B8E986"></path>
        </g>
    </g>
</svg>