<?xml version="1.0" encoding="UTF-8"?>
<svg width="394px" height="655px" viewBox="0 0 394 655" version="1.1" xmlns="http://www.w3.org/2000/svg" xmlns:xlink="http://www.w3.org/1999/xlink">
    <!-- Generator: Sketch 49.3 (51167) - http://www.bohemiancoding.com/sketch -->
    <title>svg-pattern-mobile</title>
    <desc>Created with Sketch.</desc>
    <defs></defs>
    <g id="svg-pattern-mobile" stroke="none" stroke-width="1" fill="none" fill-rule="evenodd">
        <g id="3%" transform="translate(0.000000, 392.000000)" fill="#231F20" fill-rule="nonzero" opacity="0.03">
            <path d="M131.71,66.17 C131.660311,102.255574 102.375675,131.473087 66.2900826,131.439972 C30.2044898,131.406858 0.973528472,102.135646 0.990068831,66.0500413 C1.00660919,29.9644371 30.264392,0.720034211 66.35,0.72 C102.471042,0.747604501 131.7321,30.0489542 131.71,66.17" id="Shape"></path>
        </g>
        <g id="4%" transform="translate(131.000000, 0.000000)" fill-rule="nonzero" opacity="0.04">
            <path d="M131.41,589.08 C131.354791,625.158739 102.072198,654.366758 65.9934353,654.329966 C29.9146724,654.293174 0.691710293,625.025495 0.710084986,588.946718 C0.728459679,552.867941 29.9812184,523.630042 66.06,523.63 C83.40516,523.643256 100.034641,530.546309 112.290144,542.820566 C124.545648,555.094823 131.423266,571.73484 131.41,589.08" id="Shape" fill="#231F20"></path>
            <path d="M262.12,196.36 C262.070308,232.446875 232.783641,261.664925 196.696749,261.629969 C160.609856,261.595012 131.37985,232.320278 131.400072,196.233374 C131.420294,160.14647 160.683091,130.904513 196.77,130.91 C214.11516,130.923256 230.744641,137.826309 243.000144,150.100566 C255.255648,162.374823 262.133266,179.01484 262.12,196.36" id="Shape" fill="#231F20"></path>
            <path d="M131.41,327.27 C131.349273,363.347427 102.064245,392.550427 65.9867901,392.509959 C29.9093348,392.469491 0.689894495,363.200867 0.71010283,327.123395 C0.730311166,291.045923 29.982522,261.810051 66.06,261.81 C83.4068941,261.823255 100.037892,268.727681 112.293683,281.004102 C124.549473,293.280522 131.42592,309.923108 131.41,327.27" id="Shape" fill="#231F20"></path>
            <path d="M262.12,65.45 C262.070308,101.536875 232.783641,130.754925 196.696749,130.719969 C160.609856,130.685012 131.37985,101.410278 131.400072,65.3233736 C131.420294,29.2364698 160.683091,-0.00548704023 196.77,0 C232.887136,0.0331231724 262.142102,29.332856 262.12,65.45" id="Shape" fill="#000000"></path>
            <path d="M262.12,589.08 C262.070308,625.166875 232.783641,654.384925 196.696749,654.349969 C160.609856,654.315012 131.37985,625.040278 131.400072,588.953374 C131.420294,552.86647 160.683091,523.624513 196.77,523.63 C214.11516,523.643256 230.744641,530.546309 243.000144,542.820566 C255.255648,555.094823 262.133266,571.73484 262.12,589.08" id="Shape" fill="#000000"></path>
        </g>
        <g id="8%" transform="translate(131.000000, 130.000000)" fill="#231F20" fill-rule="nonzero" opacity="0.08">
            <path d="M131.41,66.36 C131.354791,102.438739 102.072198,131.646758 65.9934353,131.609966 C29.9146724,131.573174 0.691710293,102.305495 0.710084986,66.2267177 C0.728459679,30.1479407 29.9812184,0.910042241 66.06,0.91 C83.40516,0.923255757 100.034641,7.82630919 112.290144,20.1005663 C124.545648,32.3748233 131.423266,49.01484 131.41,66.36" id="Shape"></path>
            <path d="M262.12,328.17 C262.070308,364.256875 232.783641,393.474925 196.696749,393.439969 C160.609856,393.405012 131.37985,364.130278 131.400072,328.043374 C131.420294,291.95647 160.683091,262.714513 196.77,262.72 C232.887136,262.753123 262.142102,292.052856 262.12,328.17" id="Shape"></path>
            <path d="M131.41,328.17 C131.354791,364.248739 102.072198,393.456758 65.9934353,393.419966 C29.9146724,393.383174 0.691710293,364.115495 0.710084986,328.036718 C0.728459679,291.957941 29.9812184,262.720042 66.06,262.72 C102.177136,262.753123 131.432102,292.052856 131.41,328.17" id="Shape"></path>
        </g>
    </g>
</svg>