<svg id="Layer_1" data-name="Layer 1" xmlns="http://www.w3.org/2000/svg" viewBox="0 0 68 68"><defs><style>.cls-1{fill:#e65400;}.cls-2{fill:#76787c;}</style></defs><title>ai-icons</title><g id="analyst-report"><path id="secondary" class="cls-1" d="M20.89,16.54a3.19,3.19,0,1,1-3.19-3.19A3.19,3.19,0,0,1,20.89,16.54Zm18.2,26.39a3.19,3.19,0,1,0,3.19,3.19A3.19,3.19,0,0,0,39.09,42.93Z"/><path id="primary" class="cls-2" d="M51.73,6.55V2h-46V60H11.2l-.13,1.27L56.15,66,62.27,7.65ZM7.73,58V4h42V58Zm46.64,5.8L18.13,60h33.6V8.56l8.34.88ZM42.28,16.54A3.19,3.19,0,0,0,36,16H20.84a3,3,0,0,1-.31,2H36.27a3.17,3.17,0,0,0,2.46,1.7v8.48A3.18,3.18,0,0,0,36.2,30H20.73v.37a3.18,3.18,0,1,0-4,4V43.1a3.18,3.18,0,1,0,4,3.9H36a3,3,0,0,1,.08-2H20.73v.16a3.18,3.18,0,0,0-2-2V34.34A3.19,3.19,0,0,0,20.82,32H36a3.19,3.19,0,1,0,4.76-3.39V19.27A3.18,3.18,0,0,0,42.28,16.54ZM18.89,46.13a1.19,1.19,0,1,1-1.19-1.19A1.19,1.19,0,0,1,18.89,46.13ZM17.7,32.53a1.19,1.19,0,1,1,1.19-1.19A1.19,1.19,0,0,1,17.7,32.53Zm21.39,0a1.19,1.19,0,1,1,1.19-1.19A1.19,1.19,0,0,1,39.09,32.53Zm0-14.79a1.19,1.19,0,1,1,1.19-1.19A1.19,1.19,0,0,1,39.09,17.73Z"/></g></svg>