<svg id="Layer_1" data-name="Layer 1" xmlns="http://www.w3.org/2000/svg" viewBox="0 0 68 68"><defs><style>.cls-1{fill:#e65400;}.cls-2{fill:#76787c;}</style></defs><title>ai-icons</title><g id="building-1"><path id="secondary" class="cls-1" d="M17,59.63H15V31.7h2ZM53,31.7H51V59.63h2ZM34,10.5a6,6,0,1,0,6,6A6,6,0,0,0,34,10.5Z"/><path id="primary" class="cls-2" d="M12,59.63H10V31.7h2ZM29.11,31.7h-2V59.63h2ZM40,31.7H38V59.63h2Zm18,0H56V59.63h2ZM66,64H2v2H66ZM34,4.55,7.74,25.41H60.26L34,4.55M34,2,66,27.41H2L34,2Z"/></g></svg>