<svg id="Layer_1" data-name="Layer 1" xmlns="http://www.w3.org/2000/svg" viewBox="0 0 41 41"><defs><style>.cls-1{fill:#e65400;}.cls-2{fill:#76787c;}</style></defs><title>ai-icons</title><g id="calendar-2-sm"><circle id="secondary" class="cls-1" cx="32.21" cy="25.11" r="1.84"/><path id="primary" class="cls-2" d="M28.49,7.91V4.83H27.26V7.91H13.72V4.83H12.49V7.91H.84V36.17H40.16V7.91Zm10.44,27H2.07V15.28H38.93Zm0-20.89H2.07V9.13H12.49V11h1.23V9.13H27.26V11h1.23V9.13H38.93ZM7.63,19.58a1.23,1.23,0,1,1,1.23,1.23A1.23,1.23,0,0,1,7.63,19.58Zm5.82,0a1.23,1.23,0,1,1,1.23,1.23A1.23,1.23,0,0,1,13.45,19.58Zm5.82,0a1.23,1.23,0,1,1,1.23,1.23A1.23,1.23,0,0,1,19.27,19.58Zm5.76,0a1.23,1.23,0,1,1,1.23,1.23A1.23,1.23,0,0,1,25,19.58Zm5.88,0a1.23,1.23,0,1,1,1.23,1.23A1.23,1.23,0,0,1,30.91,19.58ZM7.63,25.11a1.23,1.23,0,1,1,1.23,1.23A1.23,1.23,0,0,1,7.63,25.11Zm5.82,0a1.23,1.23,0,1,1,1.23,1.23A1.23,1.23,0,0,1,13.45,25.11Zm5.82,0a1.23,1.23,0,1,1,1.23,1.23A1.23,1.23,0,0,1,19.27,25.11Zm5.76,0a1.23,1.23,0,1,1,1.23,1.23A1.23,1.23,0,0,1,25,25.11ZM7.63,30.64a1.23,1.23,0,1,1,1.23,1.23A1.23,1.23,0,0,1,7.63,30.64Zm5.82,0a1.23,1.23,0,1,1,1.23,1.23A1.23,1.23,0,0,1,13.45,30.64Zm5.82,0a1.23,1.23,0,1,1,1.23,1.23A1.23,1.23,0,0,1,19.27,30.64Zm5.76,0a1.23,1.23,0,1,1,1.23,1.23A1.23,1.23,0,0,1,25,30.64Z"/></g></svg>