<svg id="Layer_1" data-name="Layer 1" xmlns="http://www.w3.org/2000/svg" viewBox="0 0 68 68"><defs><style>.cls-1{fill:#e65400;}.cls-2{fill:#76787c;}</style></defs><title>ai-icons</title><g id="calendar-4"><path id="secondary" class="cls-1" d="M55,37.5a11,11,0,1,0,11,11A11,11,0,0,0,55,37.5Zm4.94,18L55,51.72,50.06,55.5l1.89-6.11L47,45.61h6.11L55,39.5l1.89,6.11H63l-4.94,3.78Z"/><path id="primary" class="cls-2" d="M54,19.5H4v-6H18v2h2v-2H38v2h2v-2H54Zm-10,29H4v-27H54V37.55c.33,0,.66-.05,1-.05s.67,0,1,.05V11.49H40v-3H38v3H20v-3H18v3H2v39H44.19A11,11,0,0,1,44,48.5Z"/></g></svg>