<svg id="Layer_1" data-name="Layer 1" xmlns="http://www.w3.org/2000/svg" viewBox="0 0 41 41"><defs><style>.cls-1{fill:#e65400;}.cls-2{fill:#76787c;}</style></defs><title>ai-icons</title><g id="comprehensive-sm"><path id="secondary" class="cls-1" d="M17.61,7.72a3.79,3.79,0,0,1,2.64,1,.63.63,0,0,0,1.07-.44V1.79l-.82,0h-.43V7.1a5.25,5.25,0,0,0-2.46-.63,4.74,4.74,0,1,0,2.46,8.8v5.32h0l0,6.66a.62.62,0,0,0,.44.58.64.64,0,0,0,.71-.23l.09-.1.14-.13a3.49,3.49,0,1,1,2.34,6.09,3.79,3.79,0,0,1-2.64-1,.63.63,0,0,0-1.07.44v6.37h.46l.79,0V34.08a5.25,5.25,0,0,0,2.46.63,4.74,4.74,0,1,0-2.46-8.8V20.59l0-6.66a.62.62,0,0,0-.43-.58.64.64,0,0,0-.7.23l-.09.1-.14.13a3.49,3.49,0,1,1-2.34-6.09Z"/><path id="primary" class="cls-2" d="M20.5.5a20,20,0,1,0,20,20A20,20,0,0,0,20.5.5ZM39.22,21A18.72,18.72,0,0,1,1.78,21H7a5.25,5.25,0,0,0-.63,2.46A4.74,4.74,0,1,0,15.19,21h4.87v-.38h0v-.87H13.85a.62.62,0,0,0-.58.44.64.64,0,0,0,.23.71l.1.09.13.14a3.49,3.49,0,1,1-6.09,2.34,3.79,3.79,0,0,1,1-2.64.62.62,0,0,0-.44-1.07H1.62c0,.26.15.52.15.78a18.73,18.73,0,0,1,37.44-.75H34a5.25,5.25,0,0,0,.63-2.46,4.74,4.74,0,1,0-8.8,2.46H21.29V21h5.87a.62.62,0,0,0,.58-.44.64.64,0,0,0-.23-.71l-.1-.09-.13-.14a3.49,3.49,0,1,1,6.09-2.34,3.79,3.79,0,0,1-1,2.64A.62.62,0,0,0,32.77,21Z"/></g></svg>