<svg id="Layer_1" data-name="Layer 1" xmlns="http://www.w3.org/2000/svg" viewBox="0 0 68 68"><defs><style>.cls-1{fill:#e65400;}.cls-2{fill:#76787c;}</style></defs><title>ai-icons</title><g id="customer-story"><polygon id="secondary" class="cls-1" points="22.38 14.65 17.05 12.2 11.73 14.65 11.73 4 22.38 4 22.38 14.65"/><path id="primary" class="cls-2" d="M51.73,6.55V2h-46V60H11.2l-.13,1.27L56.15,66,62.27,7.65ZM7.73,58V4h42V58H42.16V49c0-2.26-3.67-5.28-8.06-6.65-.13.16-.26.31-.4.46l0,.11H33.6a6.88,6.88,0,0,1-4.87,2.44,6.87,6.87,0,0,1-4.87-2.43h-.1l0-.17c-.12-.14-.24-.27-.36-.42C19,43.73,15.3,46.75,15.3,49v9Zm46.64,5.8L18.21,60H51.73V8.56l8.34.88ZM22.27,33.15c0-4.21,2.66-7.15,6.46-7.15s6.46,2.94,6.46,7.15c0,4.77-3.08,9.11-6.46,9.11S22.27,37.92,22.27,33.15Z"/></g></svg>