<svg id="Layer_1" data-name="Layer 1" xmlns="http://www.w3.org/2000/svg" viewBox="0 0 41 41"><defs><style>.cls-1{fill:#e65400;}.cls-2{fill:#76787c;}</style></defs><title>ai-icons</title><g id="customer-story-sm"><polygon id="secondary" class="cls-1" points="13.24 8.41 9.91 6.87 6.58 8.41 6.58 1.75 13.24 1.75 13.24 8.41"/><path id="primary" class="cls-2" d="M31.58,3.34V.5H2.83V36.75H6.25l-.08.79,28.18,3L38.17,4ZM4.08,35.5V1.75H30.33V35.5H25.6V29.88c0-1.42-2.29-3.3-5-4.16l-.25.29,0,.07h0a4.3,4.3,0,0,1-3,1.52,4.3,4.3,0,0,1-3-1.52H14.1l0-.1-.22-.26c-2.74.86-5,2.74-5,4.16V35.5Zm29.15,3.63-22.6-2.37H31.58V4.6l5.21.55ZM13.17,20c0-2.63,1.66-4.47,4-4.47s4,1.84,4,4.47c0,3-1.92,5.69-4,5.69S13.17,23,13.17,20Z"/></g></svg>