<svg id="Layer_1" data-name="Layer 1" xmlns="http://www.w3.org/2000/svg" viewBox="0 0 68 68"><defs><style>.cls-1{fill:#e65400;}.cls-2{fill:#76787c;}</style></defs><title>ai-icons</title><g id="datasheet"><path id="secondary" class="cls-1" d="M19.73,12h4V23h-4Zm-7,11h4V14h-4Zm14-13V23h4V10Z"/><path id="primary" class="cls-2" d="M51.73,6.55V2h-46V60H11.2l-.13,1.27L56.15,66,62.27,7.65ZM7.73,58V4h42V58Zm46.64,5.8L18.13,60h33.6V8.56l8.34.88ZM33.73,16h11v2h-11Zm0,5h11v2h-11Zm-21,5h32v2h-32Zm0,5h32v2h-32Zm0,5h32v2h-32Zm0,5h32v2h-32Zm0,5h32v2h-32Zm0,5h16v2h-16Zm21-40h11v2h-11Z"/></g></svg>