<svg id="Layer_1" data-name="Layer 1" xmlns="http://www.w3.org/2000/svg" viewBox="0 0 41 41"><defs><style>.cls-1{fill:#e65400;}.cls-2{fill:#76787c;}</style></defs><title>ai-icons</title><g id="datasheet-sm"><path id="secondary" class="cls-1" d="M11.62,6.82h2.49v6.84H11.62ZM7.27,13.66H9.76V8.06H7.27ZM16,5.57v8.09h2.49V5.57Z"/><path id="primary" class="cls-2" d="M31.53,3.43V.6H2.92V36.67h3.4l-.08.79,28,2.94L38.08,4.11Zm-27.37,32V1.84H30.28V35.43Zm29,3.61L10.63,36.67h20.9v-32l5.19.54ZM20.33,9.3h6.84v1.24H20.33Zm0,3.11h6.84v1.24H20.33ZM7.27,15.52h19.9v1.24H7.27Zm0,3.11h19.9v1.24H7.27Zm0,3.11h19.9V23H7.27Zm0,3.11h19.9V26.1H7.27Zm0,3.11h19.9v1.24H7.27Zm0,3.11h10v1.24h-10ZM20.33,6.19h6.84V7.44H20.33Z"/></g></svg>