<svg id="Layer_1" data-name="Layer 1" xmlns="http://www.w3.org/2000/svg" viewBox="0 0 68 68"><defs><style>.cls-1{fill:#e65400;}.cls-2{fill:#76787c;}</style></defs><title>ai-icons</title><g id="demo"><path id="secondary" class="cls-1" d="M10,25h8v2H10Zm12,2H38V25H22Zm20-2v2H58V25ZM10,35h8V33H10Zm12,0H38V33H22Zm30,0h6V33H52ZM10,43h8V41H10Zm12,0H38V41H22ZM10,50h8V48H10Zm12,0H38V48H22Zm20,0h6V48H42Z"/><path id="primary" class="cls-2" d="M44.1,45.39V29.9L55.24,40.67l-5.34.14L53.36,49l-2.19.93-3.42-8.08ZM66,11V57H2V11Zm-2,8H4V55H64Zm0-6H4v4H64Z"/></g></svg>