<svg id="Layer_1" data-name="Layer 1" xmlns="http://www.w3.org/2000/svg" viewBox="0 0 41 41"><defs><style>.cls-1{fill:#e65400;}.cls-2{fill:#76787c;}</style></defs><title>ai-icons</title><g id="expense-management-sm"><circle id="secondary" class="cls-1" cx="20.6" cy="21.16" r="5.63"/><path id="primary" class="cls-2" d="M33,9.88H.5V31.13h40V9.88Zm6.27,1.25v4.35c-2.32-.21-4.62-1.59-5-4.35Zm-37.5,0h5c-.29,2.38-2.22,4.08-5,4.34Zm0,18.75V24.3a6.39,6.39,0,0,1,5,5.58Zm6.22,0c-.33-3.5-3.06-6.48-6.22-6.84V16.72c3.43-.29,5.92-2.53,6.22-5.59H33c.35,3.6,3.3,5.38,6.22,5.6V23c-3.48.4-5.93,3.68-6.22,6.83Zm31.28,0h-5c.28-2.55,2.21-5.19,5-5.58Z"/></g></svg>