<svg id="Layer_1" data-name="Layer 1" xmlns="http://www.w3.org/2000/svg" viewBox="0 0 68 68"><defs><style>.cls-1{fill:#e65400;}.cls-2{fill:#76787c;}</style></defs><title>ai-icons</title><g id="expense-management"><circle id="secondary" class="cls-1" cx="34.17" cy="35.05" r="9"/><path id="primary" class="cls-2" d="M54,17H2V51H66V17Zm10,2v7c-3.71-.34-7.4-2.55-7.95-7ZM4,19h7.94c-.46,3.82-3.56,6.53-7.94,6.95ZM4,49V40.07c3.95.58,7.43,4.47,7.95,8.93Zm10,0c-.54-5.6-4.89-10.38-10-10.94V27.95c5.48-.46,9.47-4,9.95-8.95H54c.56,5.76,5.28,8.61,10,9V38.07C58.43,38.71,54.52,44,54,49Zm50,0H56.06c.44-4.08,3.54-8.3,7.94-8.92Z"/></g></svg>