<svg id="Layer_1" data-name="Layer 1" xmlns="http://www.w3.org/2000/svg" viewBox="0 0 68 68"><defs><style>.cls-1{fill:#e65400;}.cls-2{fill:#76787c;}</style></defs><title>ai-icons</title><g id="financial-close"><path id="secondary" class="cls-1" d="M35.92,2A13.35,13.35,0,1,0,49.26,15.35,13.35,13.35,0,0,0,35.92,2Zm.87,20v1.75H35.16V22a6.39,6.39,0,0,1-3.8-1.79l1.33-1.84A5.4,5.4,0,0,0,36,19.8c1,0,2-.53,2-1.63,0-2.28-6.42-2.05-6.42-6.14a3.94,3.94,0,0,1,3.57-3.82V6.43h1.63V8.18a5.46,5.46,0,0,1,3.34,1.39l-1.06,2a4.93,4.93,0,0,0-3-1.18c-1.14,0-2,.66-2,1.61,0,2.26,6.4,1.86,6.4,6.12A3.92,3.92,0,0,1,36.79,22Z"/><path id="primary" class="cls-2" d="M65.17,42c-.06-.17-1.4-4.11-4.5-5.2a5.71,5.71,0,0,0-5.13.88l-.81.52c-1.43.92-3,1.9-4.63,2.92a6.52,6.52,0,0,0-1.59-4.34,5.15,5.15,0,0,0-4.76-1.35c-2.92.44-9.72,1.24-12.11.88a18.29,18.29,0,0,1-5.72-2.12c-3.72-1.91-8.45-2.78-19.32-.87V31h-4v2h2V61h-2v2h4V58.74a25.28,25.28,0,0,1,6.9,1.51,22.84,22.84,0,0,1,2.59,1.3c3.05,1.67,7.24,4,12.13,4,9.08,0,21.68-10.18,22.2-10.62l15-12.14ZM49.08,53.23c-.12.1-12.53,10.14-20.86,10.14-4.34,0-8.25-2.14-11.1-3.69a24.16,24.16,0,0,0-2.88-1.43A27.38,27.38,0,0,0,6.6,56.59V35.52c11.73-2.1,15.62-.79,18.34.61a20.29,20.29,0,0,0,6.38,2.33c2.86.44,10.17-.49,12.75-.88a3.16,3.16,0,0,1,2.9.72,5.24,5.24,0,0,1,.93,4.16c-1.13.65-2.32,1.31-3.6,2-3.19,1.65-8.62,1.63-13.52-.06l-.7,2c5.5,1.9,11.46,1.87,15.19-.06,4.3-2.23,7.65-4.38,10.61-6.29l.81-.52A3.67,3.67,0,0,1,60,38.85c1.5.52,2.47,2.24,2.91,3.2Z"/></g></svg>