<svg id="Layer_1" data-name="Layer 1" xmlns="http://www.w3.org/2000/svg" viewBox="0 0 41 41"><defs><style>.cls-1{fill:#e65400;}.cls-2{fill:#76787c;}</style></defs><title>ai-icons</title><g id="financial-close-sm"><path id="secondary" class="cls-1" d="M21.69.75A8.3,8.3,0,1,0,30,9.05,8.3,8.3,0,0,0,21.69.75Zm.54,12.45v1.09h-1V13.2a4,4,0,0,1-2.36-1.11l.83-1.15a3.36,3.36,0,0,0,2.09.89c.64,0,1.22-.33,1.22-1C23,9.39,19,9.53,19,7a2.45,2.45,0,0,1,2.22-2.38V3.51h1V4.59a3.4,3.4,0,0,1,2.08.86L23.65,6.7A3.06,3.06,0,0,0,21.8,6c-.71,0-1.26.41-1.26,1,0,1.41,4,1.16,4,3.81A2.44,2.44,0,0,1,22.24,13.2Z"/><path id="primary" class="cls-2" d="M39.89,25.66c0-.1-.87-2.56-2.8-3.23A3.55,3.55,0,0,0,33.9,23l-.5.32c-.89.57-1.84,1.18-2.88,1.81a4.05,4.05,0,0,0-1-2.7,3.21,3.21,0,0,0-3-.84,40.07,40.07,0,0,1-7.53.55,11.38,11.38,0,0,1-3.56-1.32c-2.31-1.19-5.26-1.73-12-.54V18.79H1V20H2.21V37.45H1v1.24H3.45V36A15.72,15.72,0,0,1,7.75,37a14.21,14.21,0,0,1,1.61.81c1.9,1,4.5,2.46,7.54,2.46,5.65,0,13.48-6.34,13.81-6.6L40,26.09Zm-10,7c-.08.06-7.79,6.31-13,6.31-2.7,0-5.13-1.33-6.91-2.3a15,15,0,0,0-1.79-.89,17,17,0,0,0-4.75-1V21.6c7.3-1.31,9.72-.49,11.41.38a12.62,12.62,0,0,0,4,1.45c1.78.27,6.33-.3,7.93-.55a2,2,0,0,1,1.8.45,3.26,3.26,0,0,1,.58,2.59c-.7.4-1.44.81-2.24,1.23-2,1-5.36,1-8.41,0l-.43,1.26c3.42,1.18,7.13,1.16,9.45,0,2.68-1.39,4.76-2.73,6.6-3.91l.5-.32a2.28,2.28,0,0,1,2-.41,3.73,3.73,0,0,1,1.81,2Z"/></g></svg>