<svg id="Layer_1" data-name="Layer 1" xmlns="http://www.w3.org/2000/svg" viewBox="0 0 68 68"><defs><style>.cls-1{fill:#e65400;}.cls-2{fill:#76787c;}</style></defs><title>ai-icons</title><g id="hand-and-coins"><path id="secondary" class="cls-1" d="M40.48,14a6,6,0,1,0-6-6A6,6,0,0,0,40.48,14Zm0-10a4,4,0,1,1-4,4A4,4,0,0,1,40.48,4Zm-16,20a6,6,0,1,0,6-6A6,6,0,0,0,24.48,24Zm6-4a4,4,0,1,1-4,4A4,4,0,0,1,30.48,20Zm-8-4a6,6,0,1,0-6-6A6,6,0,0,0,22.48,16Zm0-10a4,4,0,1,1-4,4A4,4,0,0,1,22.48,6Z"/><path id="primary" class="cls-2" d="M65.3,42.56c-.06-.17-1.4-4.09-4.47-5.17a5.67,5.67,0,0,0-5.08.87l-.81.52c-1.47.94-3,2-4.76,3a6.53,6.53,0,0,0-1.58-4.43A5.11,5.11,0,0,0,43.89,36c-2.93.45-9.76,1.25-12.17.89A18.37,18.37,0,0,1,26,34.77c-3.73-1.92-8.49-2.79-19.48-.84V31.75h-4v2h2v28h-2v2h4V59.2a25.38,25.38,0,0,1,7.09,1.53A23.09,23.09,0,0,1,16.18,62c3.06,1.67,7.24,4,12.13,4C37.39,66,50,55.8,50.54,55.37l15-12.15Zm-16,11.25c-.12.1-12.59,10.18-21,10.18-4.38,0-8.3-2.15-11.17-3.72a24.2,24.2,0,0,0-2.88-1.43A27.41,27.41,0,0,0,6.48,57.2V35.66l.05.28c11.85-2.13,15.77-.81,18.52.6a20.29,20.29,0,0,0,6.38,2.33c2.85.43,10.18-.49,12.77-.89a3.23,3.23,0,0,1,3,.74A5.26,5.26,0,0,1,48.11,43c-1.14.66-2.35,1.32-3.65,2-3.22,1.67-8.69,1.64-13.61-.06l-.65,1.89c5.5,1.9,11.46,1.87,15.19-.06,4.32-2.24,7.68-4.4,10.64-6.31l.8-.52a3.75,3.75,0,0,1,3.33-.67c1.55.54,2.55,2.33,3,3.29Z"/></g></svg>