<svg id="Layer_1" data-name="Layer 1" xmlns="http://www.w3.org/2000/svg" viewBox="0 0 68 68"><defs><style>.cls-1{fill:#e65400;}.cls-2{fill:#76787c;}</style></defs><title>ai-icons</title><g id="healthcare"><polygon id="secondary" class="cls-1" points="30 49.98 30 31.21 27.62 35.98 17 35.98 17 33.98 26.38 33.98 32 22.74 32 39.98 42 15.98 42 33.1 43.34 29.98 53 29.98 53 31.98 44.66 31.98 40 42.85 40 25.98 30 49.98"/><path id="primary" class="cls-2" d="M34,62a2.42,2.42,0,0,1-1.7-.69L6.13,35.5A17.13,17.13,0,0,1,6.13,11a17.64,17.64,0,0,1,24.75,0L34,14.15l3.1-3.08a17.7,17.7,0,0,1,24.75,0,17.15,17.15,0,0,1,0,24.48l-13,12.76-13.23,13A2.42,2.42,0,0,1,34,62ZM18.5,8a15.54,15.54,0,0,0-11,4.49,15.13,15.13,0,0,0,0,21.6L33.68,59.9a.42.42,0,0,0,.59,0l13.23-13,13-12.76a15.15,15.15,0,0,0,0-21.63,15.69,15.69,0,0,0-21.94,0L34,17l-4.55-4.5A15.54,15.54,0,0,0,18.5,8Z"/></g></svg>