<svg id="Layer_1" data-name="Layer 1" xmlns="http://www.w3.org/2000/svg" viewBox="0 0 41 41"><defs><style>.cls-1{fill:#e65400;}.cls-2{fill:#76787c;}</style></defs><title>ai-icons</title><g id="video-sm"><path id="secondary" class="cls-1" d="M17,25.51c-.09,0-.05,0-.14-.07s-.14-.28-.14-.48V16.24c0-.2,0-.38.14-.48a.43.43,0,0,1,.48,0h0L24,20.13a.53.53,0,0,1,.25.47.55.55,0,0,1-.28.48l-6.67,4.36A.58.58,0,0,1,17,25.51Z"/><path id="primary" class="cls-2" d="M.44,6.08V34.92H40.56V6.08ZM39.3,9.84h-5V7.34h5Zm-11.91,0V7.34H33V9.84Zm-1.25,0h-5V7.34h5Zm-6.27,0h-5V7.34h5Zm-6.27,0H8V7.34h5.64ZM39.3,11.1V29.9H1.7V11.1ZM6.71,7.34V9.84h-5V7.34Zm-5,26.33V31.16h5v2.51Zm6.27,0V31.16h5.64v2.51Zm6.89,0V31.16h5v2.51Zm6.27,0V31.16h5v2.51Zm6.27,0V31.16H33v2.51Zm6.89,0V31.16h5v2.51Z"/></g></svg>