<svg id="Layer_1" data-name="Layer 1" xmlns="http://www.w3.org/2000/svg" viewBox="0 0 68 68"><defs><style>.cls-1{fill:#e65400;}.cls-2{fill:#76787c;}</style></defs><title>ai-icons</title><g id="workforce-management"><path id="secondary" class="cls-1" d="M47,38.72V51H21V38.72c0-2.21,3.23-5.13,7.43-6.55a7.55,7.55,0,0,0,5.51,2.57,7.82,7.82,0,0,0,5.62-2.55C43.75,33.62,47,36.51,47,38.72ZM34,16.08c-3.68,0-6.67,2.7-6.67,7.11s3,8.89,6.67,8.89,6.67-4.47,6.67-8.89S37.71,16.08,34,16.08Z"/><path id="primary" class="cls-2" d="M53.73,31c3.4,0,6.15-4.12,6.15-8.2s-2.75-6.56-6.15-6.56-6.15,2.49-6.15,6.56S50.33,31,53.73,31Zm0-12.76c2.48,0,4.15,1.83,4.15,4.56,0,3.13-2.06,6.2-4.15,6.2s-4.15-3.07-4.15-6.2C49.58,20.09,51.24,18.26,53.73,18.26ZM66,37.14V48H47V46H64V37.14c0-.59-1.63-2.43-4.64-3.72a9.18,9.18,0,0,1-5.74,2.05,9.32,9.32,0,0,1-5.8-2.07,14.63,14.63,0,0,0-3,1.72,13.57,13.57,0,0,0-1.68-1.24,16.57,16.57,0,0,1,5.12-2.78,7.28,7.28,0,0,0,10.74,0C62.84,32.43,66,35.1,66,37.14ZM14.32,31c3.4,0,6.15-4.12,6.15-8.2s-2.75-6.56-6.15-6.56-6.15,2.49-6.15,6.56S10.93,31,14.32,31Zm0-12.76c2.48,0,4.15,1.83,4.15,4.56,0,3.13-2.06,6.2-4.15,6.2s-4.15-3.07-4.15-6.2C10.17,20.09,11.84,18.26,14.32,18.26Zm5.46,12.86a16.63,16.63,0,0,1,5.07,2.76,13.39,13.39,0,0,0-1.67,1.24,14.64,14.64,0,0,0-3-1.69,9.6,9.6,0,0,1-5.89,2.05,9,9,0,0,1-5.7-2.07C5.63,34.68,4,36.56,4,37.14V46H21v2H2V37.14c0-2,3.18-4.73,7-6a7.62,7.62,0,0,0,5.38,2.37A7.61,7.61,0,0,0,19.79,31.12Z"/></g></svg>