<svg id="Layer_1" data-name="Layer 1" xmlns="http://www.w3.org/2000/svg" viewBox="0 0 41 41"><defs><style>.cls-1{fill:#e65400;}.cls-2{fill:#76787c;}</style></defs><title>ai-icons</title><g id="workforce-management-sm"><path id="secondary" class="cls-1" d="M28.29,23.6V31H12.71V23.6c0-1.33,1.94-3.07,4.45-3.92a4.53,4.53,0,0,0,3.3,1.54,4.68,4.68,0,0,0,3.37-1.53C26.34,20.55,28.29,22.28,28.29,23.6ZM20.52,10a4,4,0,0,0-4,4.26c0,2.65,1.79,5.32,4,5.32s4-2.68,4-5.32A4,4,0,0,0,20.52,10Z"/><path id="primary" class="cls-2" d="M32.32,19c2,0,3.68-2.47,3.68-4.91a3.69,3.69,0,1,0-7.37,0C28.63,16.52,30.28,19,32.32,19Zm0-7.64a2.48,2.48,0,0,1,2.49,2.73c0,1.87-1.23,3.71-2.49,3.71s-2.49-1.84-2.49-3.71A2.48,2.48,0,0,1,32.32,11.34Zm7.35,11.31v6.51H28.29V28H38.47V22.66c0-.36-1-1.46-2.78-2.23a5.5,5.5,0,0,1-3.44,1.23,5.58,5.58,0,0,1-3.48-1.24,8.77,8.77,0,0,0-1.8,1,8.13,8.13,0,0,0-1-.75A9.93,9.93,0,0,1,29,19a4.36,4.36,0,0,0,6.44,0C37.78,19.84,39.67,21.44,39.67,22.66ZM8.71,19c2,0,3.68-2.47,3.68-4.91a3.69,3.69,0,1,0-7.37,0C5,16.52,6.68,19,8.71,19Zm0-7.64a2.48,2.48,0,0,1,2.49,2.73c0,1.87-1.23,3.71-2.49,3.71s-2.49-1.84-2.49-3.71A2.48,2.48,0,0,1,8.71,11.34ZM12,19a10,10,0,0,1,3,1.65,8,8,0,0,0-1,.74,8.77,8.77,0,0,0-1.78-1,5.75,5.75,0,0,1-3.53,1.23,5.42,5.42,0,0,1-3.42-1.24c-1.79.77-2.76,1.89-2.77,2.24V28H12.71v1.2H1.33V22.66c0-1.22,1.9-2.83,4.22-3.62a4.56,4.56,0,0,0,3.22,1.42A4.56,4.56,0,0,0,12,19Z"/></g></svg>