<svg xmlns="http://www.w3.org/2000/svg" xmlns:xlink="http://www.w3.org/1999/xlink" width="68" height="3924" viewBox="0 0 68 3924"><svg id="analyst-report" data-name="Layer 1" viewBox="0 0 68 68" width="68" height="68" y="0"><defs><style>.cls-1{fill:#e65400}.cls-2{fill:#76787c}</style></defs><title>ai-icons</title><g id="analyst-report"><path id="secondary" class="cls-1" d="M20.89 16.54a3.19 3.19 0 1 1-3.19-3.19 3.19 3.19 0 0 1 3.19 3.19zm18.2 26.39a3.19 3.19 0 1 0 3.19 3.19 3.19 3.19 0 0 0-3.19-3.19z"></path><path id="primary" class="cls-2" d="M51.73 6.55V2h-46v58h5.47l-.13 1.27L56.15 66l6.12-58.35zM7.73 58V4h42v54zm46.64 5.8L18.13 60h33.6V8.56l8.34.88zM42.28 16.54A3.19 3.19 0 0 0 36 16H20.84a3 3 0 0 1-.31 2h15.74a3.17 3.17 0 0 0 2.46 1.7v8.48A3.18 3.18 0 0 0 36.2 30H20.73v.37a3.18 3.18 0 1 0-4 4v8.73a3.18 3.18 0 1 0 4 3.9H36a3 3 0 0 1 .08-2H20.73v.16a3.18 3.18 0 0 0-2-2v-8.82A3.19 3.19 0 0 0 20.82 32H36a3.19 3.19 0 1 0 4.76-3.39v-9.34a3.18 3.18 0 0 0 1.52-2.73zM18.89 46.13a1.19 1.19 0 1 1-1.19-1.19 1.19 1.19 0 0 1 1.19 1.19zm-1.19-13.6a1.19 1.19 0 1 1 1.19-1.19 1.19 1.19 0 0 1-1.19 1.19zm21.39 0a1.19 1.19 0 1 1 1.19-1.19 1.19 1.19 0 0 1-1.19 1.19zm0-14.79a1.19 1.19 0 1 1 1.19-1.19 1.19 1.19 0 0 1-1.19 1.18z"></path></g></svg><svg id="analyst-report-sm" data-name="Layer 1" viewBox="0 0 41 41" width="41" height="41" y="68"><defs><style>.cls-1{fill:#e65400}.cls-2{fill:#76787c}</style></defs><title>ai-icons</title><g id="analyst-report-sm"><path id="secondary" class="cls-1" d="M12.31 9.59a2 2 0 1 1-2-2 2 2 0 0 1 2 2zm11.37 16.49a2 2 0 1 0 2 2 2 2 0 0 0-2-2z"></path><path id="primary" class="cls-2" d="M31.58 3.34V.5H2.83v36.25h3.42l-.08.79 28.17 3L38.17 4zM4.08 35.5V1.75h26.25V35.5zm29.15 3.63l-22.65-2.38h21V4.6l5.21.55zM25.68 9.59a2 2 0 0 0-4-.34h-9.4a1.86 1.86 0 0 1-.2 1.25h9.84a2 2 0 0 0 1.54 1.06v5.3A2 2 0 0 0 21.87 18h-9.66v.23a2 2 0 1 0-2.5 2.49v5.46a2 2 0 1 0 2.52 2.44h9.55a1.86 1.86 0 0 1 0-1.25h-9.57v.1A2 2 0 0 0 11 26.2v-5.49a2 2 0 0 0 1.31-1.46h9.47a2 2 0 1 0 3-2.12v-5.84a2 2 0 0 0 .9-1.7zM11.06 28.08a.74.74 0 1 1-.74-.75.75.75 0 0 1 .74.75zm-.74-8.5a.75.75 0 1 1 .74-.75.75.75 0 0 1-.74.75zm13.37 0a.75.75 0 1 1 .74-.75.75.75 0 0 1-.75.75zm0-9.24a.75.75 0 1 1 .74-.75.75.75 0 0 1-.75.74z"></path></g></svg><svg id="balance-sheet" data-name="Layer 1" viewBox="0 0 68 68" width="68" height="68" y="109"><defs><style>.cls-1{fill:#e65400}.cls-2{fill:#76787c}</style></defs><title>ai-icons</title><g id="balance-sheet"><path id="secondary" class="cls-1" d="M9.92 39.83h21.33a10.67 10.67 0 0 1-21.33 0zm34.66-10.47a10.67 10.67 0 1 0 21.33 0z"></path><path id="primary" class="cls-2" d="M56.68 9.07L39.42 13.8V8.5H2.08v48h37.34V15.87L57.21 11zm-19.26 5.27l-18.94 5.18.52 1.93 18.4-5V54.5H4.08v-44h33.34zM9.94 39.83l9.73-13.12a1.34 1.34 0 0 1 1.87 0l9.73 13.12h-2.9l.23-.23-8-10.82-8 10.82.23.23zm56-10.5H63l.23-.23-8-10.82-8 10.82.23.23h-2.85l9.73-13.12a1.34 1.34 0 0 1 1.87 0z"></path></g></svg><svg id="balance-sheet-sm" data-name="Layer 1" viewBox="0 0 41 41" width="41" height="41" y="177"><defs><style>.cls-1{fill:#e65400}.cls-2{fill:#76787c}</style></defs><title>ai-icons</title><g id="balance-sheet"><path id="secondary" class="cls-1" d="M5.45 25.08h13.33a6.67 6.67 0 0 1-13.33 0zm21.67-6.55a6.67 6.67 0 1 0 13.33 0z"></path><path id="primary" class="cls-2" d="M34.68 5.86l-10.79 3V5.5H.55v30h23.34V10.11L35 7.06zm-12 3.3L10.8 12.39l.33 1.21 11.5-3.15v23.8H1.8V6.75h20.84zM5.46 25.08l6.08-8.2a.84.84 0 0 1 1.17 0l6.08 8.2H17l.15-.14-5-6.76-5 6.76.15.14zm35-6.56h-1.81l.15-.14-5-6.76-5 6.76.15.14h-1.82l6.08-8.2a.84.84 0 0 1 1.17 0z"></path></g></svg><svg id="best-practices" data-name="Layer 1" viewBox="0 0 68 68" width="68" height="68" y="218"><defs><style>.cls-1{fill:#e65400}.cls-2{fill:#76787c}</style></defs><title>ai-icons</title><g id="best-practices"><path class="cls-1" d="M2.34 2.58L5.7 14.57l8.58-8.62L2.34 2.58z" id="secondary"></path><path id="primary" class="cls-2" d="M66 14.24L53.58 1.83 49.91 5.5l-1.25 1.25-3 3-1.26 1.26-3 3-1.26 1.26-3 3-1.26 1.26-2.07 2.07L19.44 7.4l-5.16-1.45-1.43 1.44L18.51 9l44.64 44.82-4.2 4.18-44.5-44.63-1.26 1.25 44.5 44.69-4.32 4.35L8.74 18.83l-1.6-5.7-1.44 1.44 1.45 5.18L21.37 34l-1.55 1.55-1.26 1.26-3 3-.71.71-3.59 3.59-.08.08-4.25 4.29-1.26 1.26L2 53.41l12.42 12.42 19.34-19.35 19.61 19.69 12.29-12.35-19.58-19.66zM14.42 63.31l-9.9-9.9L6.93 51l1.59 1.59 1.26-1.26-1.6-1.59 3-3 1.59 1.59L14.08 47l-1.59-1.59 3-3L20 46.84l1.26-1.26-4.44-4.44 3-3 1.59 1.59 1.26-1.26-1.59-1.59 1.55-1.55 9.88 9.92zM34.95 23L37 20.91l1.59 1.59 1.26-1.26-1.59-1.59 3-3 4.5 4.35L47 19.79l-4.44-4.44 3-3 1.59 1.59 1.26-1.26-1.59-1.59 3-3L51.5 9.6l1.26-1.26-1.59-1.59 2.41-2.41 9.9 9.9L44.83 32.9z"></path></g></svg><svg id="best-practices-sm" data-name="Layer 1" viewBox="0 0 41 41" width="41" height="41" y="286"><defs><style>.cls-1{fill:#e65400}.cls-2{fill:#76787c}</style></defs><title>ai-icons</title><g id="best-practices-sm"><path class="cls-1" d="M1.56 1.7l2.01 7.18L8.7 3.71 1.56 1.7z" id="secondary"></path><path id="primary" class="cls-2" d="M39.65 8.68l-7.43-7.43L30 3.45l-.75.75-1.8 1.8-.75.75-1.82 1.84-.75.75-1.83 1.82-.75.75-1.24 1.24-8.52-8.56-3.09-.87-.86.86 3.39 1 26.71 26.78-2.51 2.53L8.81 8.15l-.75.75 26.62 26.74-2.59 2.6L5.38 11.42 4.43 8l-.86.87.87 3.13 8.51 8.55-.93.93-.75.75L9.45 24l-.45.44-2.13 2.15-2.57 2.57-.75.75-2.2 2.2 7.43 7.43L20.36 28l11.73 11.75 7.35-7.39L27.73 20.6zM8.78 38l-5.92-5.89 1.44-1.44 1 1 .7-.8-1-1 1.87-1.77 1 1 .75-.75-1-1 1.82-1.82 2.66 2.66.75-.75-2.65-2.67L12 23l1 1 .75-.75-1-1 .93-.93 5.91 5.94zm12.29-24.1l1.24-1.24 1 1 .75-.75-1-1 1.82-1.82 2.66 2.66.75-.75-2.66-2.66 1.82-1.82 1 1 .75-.75-1-1L30 4.95l1 1 .75-.75-1-1 1.44-1.44 5.93 5.93L27 19.84z"></path></g></svg><svg id="blog-post" data-name="Layer 1" viewBox="0 0 68 68" width="68" height="68" y="327"><defs><style>.cls-1{fill:#e65400}.cls-2{fill:#76787c}</style></defs><title>ai-icons</title><g id="blog-post"><path id="secondary" class="cls-1" d="M8 23h52v12H8z"></path><path id="primary" class="cls-2" d="M2 11v46h64V11zm62 2v4H4v-4zM4 55V19h60v36zm4-6h52v2H8zm0-5h52v2H8zm0-5h52v2H8z"></path></g></svg><svg id="blog-post-sm" data-name="Layer 1" viewBox="0 0 41 41" width="41" height="41" y="395"><defs><style>.cls-1{fill:#e65400}.cls-2{fill:#76787c}</style></defs><title>ai-icons</title><g id="blog-post-sm"><path id="secondary" class="cls-1" d="M4.25 13.63h32.5v7.5H4.25z"></path><path id="primary" class="cls-2" d="M.5 6.13v28.75h40V6.13zm38.75 1.25v2.5H1.75v-2.5zM1.75 33.63v-22.5h37.5v22.5zm2.5-3.75h32.5v1.25H4.25zm0-3.12h32.5V28H4.25zm0-3.12h32.5v1.25H4.25z"></path></g></svg><svg id="brochure" data-name="Layer 1" viewBox="0 0 68 68" width="68" height="68" y="436"><defs><style>.cls-1{fill:#e65400}.cls-2{fill:#76787c}</style></defs><title>ai-icons</title><g id="brochure"><path id="secondary" class="cls-1" d="M7.73 4v54h42V4zm21 50h-16v-2h16zm16-6h-32v-2h32zm0-6h-32v-2h32zm0-7h-32V15h32zm0-24h-32V9h32z"></path><path id="primary" class="cls-2" d="M51.73 6.55V2h-46v58h5.47l-.13 1.27L56.15 66l6.12-58.35zM7.73 58V4h42v54zm46.64 5.8L18.13 60h33.6V8.56l8.34.88z"></path></g></svg><svg id="brochure-sm" data-name="Layer 1" viewBox="0 0 41 41" width="41" height="41" y="504"><defs><style>.cls-1{fill:#e65400}.cls-2{fill:#76787c}</style></defs><title>ai-icons</title><g id="brochure-sm"><path id="secondary" class="cls-1" d="M4.08 1.75V35.5h26.25V1.75zM17.21 33h-10v-1.25h10zm10-3.75h-20V28h20zm0-3.75h-20v-1.25h20zm0-4.37h-20V8.63h20zm0-15h-20V4.88h20z"></path><path id="primary" class="cls-2" d="M31.58 3.34V.5H2.83v36.25h3.42l-.08.79 28.18 3L38.17 4zM4.08 35.5V1.75h26.25V35.5zm29.15 3.63l-22.65-2.38h21V4.6l5.21.55z"></path></g></svg><svg id="building-1" data-name="Layer 1" viewBox="0 0 68 68" width="68" height="68" y="545"><defs><style>.cls-1{fill:#e65400}.cls-2{fill:#76787c}</style></defs><title>ai-icons</title><g id="building-1"><path id="secondary" class="cls-1" d="M17 59.63h-2V31.7h2zM53 31.7h-2v27.93h2zM34 10.5a6 6 0 1 0 6 6 6 6 0 0 0-6-6z"></path><path id="primary" class="cls-2" d="M12 59.63h-2V31.7h2zM29.11 31.7h-2v27.93h2zm10.89 0h-2v27.93h2zm18 0h-2v27.93h2zM66 64H2v2h64zM34 4.55L7.74 25.41h52.52L34 4.55M34 2l32 25.41H2L34 2z"></path></g></svg><svg id="building-1-sm" data-name="Layer 1" viewBox="0 0 41 41" width="41" height="41" y="613"><defs><style>.cls-1{fill:#e65400}.cls-2{fill:#76787c}</style></defs><title>ai-icons</title><g id="building-1-sm"><path id="secondary" class="cls-1" d="M10 36.27H8.81V19.09H10zm22.19-17.18H31v17.18h1.23zM20.5 6a3.69 3.69 0 1 0 3.69 3.69A3.69 3.69 0 0 0 20.5 6z"></path><path id="primary" class="cls-2" d="M7 36.27H5.73V19.09H7zm10.49-17.18h-1.23v17.18h1.23zm6.72 0H23v17.18h1.23zm11.05 0H34v17.18h1.23zM40.19 39H.81v1.23h39.38zM20.5 2.38L4.34 15.21h32.32L20.5 2.38m0-1.57l19.69 15.63H.81L20.5.81z"></path></g></svg><svg id="calendar-2" data-name="Layer 1" viewBox="0 0 68 68" width="68" height="68" y="654"><defs><style>.cls-1{fill:#e65400}.cls-2{fill:#76787c}</style></defs><title>ai-icons</title><g id="calendar-2"><circle id="secondary" class="cls-1" cx="53.07" cy="41.5" r="3"></circle><path id="primary" class="cls-2" d="M47 13.5v-5h-2v5H23v-5h-2v5H2v46h64v-46zm17 44H4v-32h60zm0-34H4v-8h17v3h2v-3h22v3h2v-3h17zm-50.95 9a2 2 0 1 1 2 2 2 2 0 0 1-2-2zm9.47 0a2 2 0 1 1 2 2 2 2 0 0 1-1.99-2zm9.47 0a2 2 0 1 1 2 2 2 2 0 0 1-1.99-2zm9.37 0a2 2 0 1 1 2 2 2 2 0 0 1-1.99-2zm9.58 0a2 2 0 1 1 2 2 2 2 0 0 1-1.99-2zm-37.89 9a2 2 0 1 1 2 2 2 2 0 0 1-2-2zm9.47 0a2 2 0 1 1 2 2 2 2 0 0 1-1.99-2zm9.47 0a2 2 0 1 1 2 2 2 2 0 0 1-1.99-2zm9.37 0a2 2 0 1 1 2 2 2 2 0 0 1-1.99-2zm-28.32 9a2 2 0 1 1 2 2 2 2 0 0 1-1.99-2zm9.47 0a2 2 0 1 1 2 2 2 2 0 0 1-1.98-2zm9.47 0a2 2 0 1 1 2 2 2 2 0 0 1-1.98-2zm9.37 0a2 2 0 1 1 2 2 2 2 0 0 1-1.98-2z"></path></g></svg><svg id="calendar-2-sm" data-name="Layer 1" viewBox="0 0 41 41" width="41" height="41" y="722"><defs><style>.cls-1{fill:#e65400}.cls-2{fill:#76787c}</style></defs><title>ai-icons</title><g id="calendar-2-sm"><circle id="secondary" class="cls-1" cx="32.21" cy="25.11" r="1.84"></circle><path id="primary" class="cls-2" d="M28.49 7.91V4.83h-1.23v3.08H13.72V4.83h-1.23v3.08H.84v28.26h39.32V7.91zm10.44 27H2.07V15.28h36.86zm0-20.89H2.07V9.13h10.42V11h1.23V9.13h13.54V11h1.23V9.13h10.44zm-31.3 5.56a1.23 1.23 0 1 1 1.23 1.23 1.23 1.23 0 0 1-1.23-1.23zm5.82 0a1.23 1.23 0 1 1 1.23 1.23 1.23 1.23 0 0 1-1.23-1.23zm5.82 0a1.23 1.23 0 1 1 1.23 1.23 1.23 1.23 0 0 1-1.23-1.23zm5.76 0a1.23 1.23 0 1 1 1.23 1.23A1.23 1.23 0 0 1 25 19.58zm5.88 0a1.23 1.23 0 1 1 1.23 1.23 1.23 1.23 0 0 1-1.23-1.23zM7.63 25.11a1.23 1.23 0 1 1 1.23 1.23 1.23 1.23 0 0 1-1.23-1.23zm5.82 0a1.23 1.23 0 1 1 1.23 1.23 1.23 1.23 0 0 1-1.23-1.23zm5.82 0a1.23 1.23 0 1 1 1.23 1.23 1.23 1.23 0 0 1-1.23-1.23zm5.76 0a1.23 1.23 0 1 1 1.23 1.23A1.23 1.23 0 0 1 25 25.11zm-17.4 5.53a1.23 1.23 0 1 1 1.23 1.23 1.23 1.23 0 0 1-1.23-1.23zm5.82 0a1.23 1.23 0 1 1 1.23 1.23 1.23 1.23 0 0 1-1.23-1.23zm5.82 0a1.23 1.23 0 1 1 1.23 1.23 1.23 1.23 0 0 1-1.23-1.23zm5.76 0a1.23 1.23 0 1 1 1.23 1.23A1.23 1.23 0 0 1 25 30.64z"></path></g></svg><svg id="calendar-4" data-name="Layer 1" viewBox="0 0 68 68" width="68" height="68" y="763"><defs><style>.cls-1{fill:#e65400}.cls-2{fill:#76787c}</style></defs><title>ai-icons</title><g id="calendar-4"><path id="secondary" class="cls-1" d="M55 37.5a11 11 0 1 0 11 11 11 11 0 0 0-11-11zm4.94 18L55 51.72l-4.94 3.78 1.89-6.11L47 45.61h6.11L55 39.5l1.89 6.11H63l-4.94 3.78z"></path><path id="primary" class="cls-2" d="M54 19.5H4v-6h14v2h2v-2h18v2h2v-2h14zm-10 29H4v-27h50v16.05c.33 0 .66-.05 1-.05s.67 0 1 .05V11.49H40v-3h-2v3H20v-3h-2v3H2v39h42.19A11 11 0 0 1 44 48.5z"></path></g></svg><svg id="calendar-4-sm" data-name="Layer 1" viewBox="0 0 41 41" width="41" height="41" y="831"><defs><style>.cls-1{fill:#e65400}.cls-2{fill:#76787c}</style></defs><title>ai-icons</title><g id="calendar-4-sm"><path id="secondary" class="cls-1" d="M33.26 22.63A6.69 6.69 0 1 0 40 29.31a6.69 6.69 0 0 0-6.74-6.68zm3 10.94l-3-2.3-3 2.3 1.15-3.71-3-2.3h3.71l1.15-3.71 1.15 3.71h3.71l-3 2.3z"></path><path id="primary" class="cls-2" d="M32.66 11.69H2.26V8h8.51v1.25H12V8h10.93v1.25h1.22V8h8.51zm-6.08 17.62H2.26V12.9h30.4v9.76h1.22V6.82h-9.73V5h-1.22v1.82H12V5h-1.23v1.82H1v23.7h25.69a6.71 6.71 0 0 1-.11-1.21z"></path></g></svg><svg id="capital-management" data-name="Layer 1" viewBox="0 0 68 68" width="68" height="68" y="872"><defs><style>.cls-1{fill:#e65400}.cls-2{fill:#76787c}</style></defs><title>ai-icons</title><g id="capital-management"><path id="secondary" class="cls-1" d="M43 32.37v2H31v-2zm-12 10h12v-2H31zm0 8h12v-2H31z"></path><path id="primary" class="cls-2" d="M55 64.37v-50h-9V1.87L13 9.8v54.57H4v2h60v-2zm-40 0v-53l29-7v10h-9v10H25v40zm12 0v-38h20v38zm22 0v-40H37v-8h16v48z"></path></g></svg><svg id="capital-management-sm" data-name="Layer 1" viewBox="0 0 41 41" width="41" height="41" y="940"><defs><style>.cls-1{fill:#e65400}.cls-2{fill:#76787c}</style></defs><title>ai-icons</title><g id="capital-management-sm"><path id="secondary" class="cls-1" d="M26 19.42v1.23h-7.4v-1.23zm-7.4 6.17H26v-1.24h-7.4zm0 4.93H26v-1.23h-7.4z"></path><path id="primary" class="cls-2" d="M33.45 39.15V8.32H27.9V.62L7.55 5.51v33.64H2v1.23h37v-1.23zm-24.66 0V6.48l17.88-4.3v6.14h-5.55v6.17H15v24.66zm7.4 0V15.72h12.33v23.43zm13.56 0V14.49h-7.4V9.56h9.87v29.6z"></path></g></svg><svg id="collaborative" data-name="Layer 1" viewBox="0 0 68 68" width="68" height="68" y="981"><defs><style>.cls-1{fill:#e65400}.cls-2{fill:#76787c}</style></defs><title>ai-icons</title><g id="collaborative"><circle id="secondary" class="cls-1" cx="34" cy="34.91" r="4.57"></circle><path id="primary" class="cls-2" d="M34 4a2.57 2.57 0 1 1-2.57 2.57A2.57 2.57 0 0 1 34 4m0-2a4.57 4.57 0 1 0 4.57 4.57A4.57 4.57 0 0 0 34 2zm0 56.86a2.57 2.57 0 1 1-2.57 2.57A2.57 2.57 0 0 1 34 58.86m0-2a4.57 4.57 0 1 0 4.57 4.57A4.57 4.57 0 0 0 34 56.86zm23.77-10.8a2.57 2.57 0 1 1-2.57 2.57 2.57 2.57 0 0 1 2.57-2.57m0-2a4.57 4.57 0 1 0 4.57 4.57 4.57 4.57 0 0 0-4.57-4.57zm0-25.43a2.57 2.57 0 1 1-2.57 2.57 2.57 2.57 0 0 1 2.57-2.57m0-2a4.57 4.57 0 1 0 4.57 4.57 4.57 4.57 0 0 0-4.57-4.57zM10.23 46.06a2.57 2.57 0 1 1-2.57 2.57 2.57 2.57 0 0 1 2.57-2.57m0-2a4.57 4.57 0 1 0 4.57 4.57 4.57 4.57 0 0 0-4.57-4.57zm0-25.43a2.57 2.57 0 1 1-2.57 2.57 2.57 2.57 0 0 1 2.57-2.57m0-2a4.57 4.57 0 1 0 4.57 4.57 4.57 4.57 0 0 0-4.57-4.57zm4.35 3.23l16.69-9.64A4.57 4.57 0 0 1 30 8.66l-16.42 9.46a4.54 4.54 0 0 1 1 1.74zm22.16-9.64l16.69 9.64a4.54 4.54 0 0 1 1-1.74L38 8.66a4.57 4.57 0 0 1-1.27 1.56zM34 56.86a4.56 4.56 0 0 1 1 .14V43.08a7.49 7.49 0 0 1-2 0V57a4.56 4.56 0 0 1 1-.14zm19.49-34.1L40.7 30.15a8.21 8.21 0 0 1 1 1.76l12.91-7.46a4.56 4.56 0 0 1-1.12-1.69zm-12.89 17l13 6.94a4.55 4.55 0 0 1 .46-.79l.51-1-13-6.93a8.22 8.22 0 0 1-.97 1.83zM34 26.69a8.24 8.24 0 0 1 1 .07V11a4.32 4.32 0 0 1-2 0v15.75a8.24 8.24 0 0 1 1-.06zm-7.47 11.65l-12.79 7.39a4.53 4.53 0 0 1 .91 1.78L27.58 40a8.24 8.24 0 0 1-1.05-1.66zM30.16 59l-15.58-9a4.54 4.54 0 0 1-1 1.74l15.9 9.18a4.53 4.53 0 0 1 .68-1.92zm27.61-33.2a4.56 4.56 0 0 1-1-.12v18.5a4.32 4.32 0 0 1 2 0V25.66a4.57 4.57 0 0 1-1 .11zM53.42 50l-15.58 9a4.53 4.53 0 0 1 .67 1.92l15.9-9.18a4.54 4.54 0 0 1-.99-1.74zm-43.2-5.92a4.56 4.56 0 0 1 1 .12V25.65a4.32 4.32 0 0 1-2 0v18.52a4.57 4.57 0 0 1 1.01-.11zm16.93-13.71l-13-6.91A4.58 4.58 0 0 1 12.8 25l13.46 7.18a8.21 8.21 0 0 1 .89-1.81z"></path></g></svg><svg id="collaborative-sm" data-name="Layer 1" viewBox="0 0 41 41" width="41" height="41" y="1049"><defs><style>.cls-1{fill:#e65400}.cls-2{fill:#76787c}</style></defs><title>ai-icons</title><g id="collaborative-sm"><circle id="secondary" class="cls-1" cx="20.5" cy="21.07" r="2.86"></circle><path id="primary" class="cls-2" d="M20.5 1.75a1.61 1.61 0 1 1-1.61 1.61 1.61 1.61 0 0 1 1.61-1.61m0-1.25a2.86 2.86 0 1 0 2.86 2.86A2.86 2.86 0 0 0 20.5.5zm0 35.5a1.61 1.61 0 1 1-1.61 1.61A1.61 1.61 0 0 1 20.5 36m0-1.25a2.86 2.86 0 1 0 2.86 2.86 2.86 2.86 0 0 0-2.86-2.86zM35.36 28a1.61 1.61 0 1 1-1.61 1.61A1.61 1.61 0 0 1 35.36 28m0-1.25a2.86 2.86 0 1 0 2.86 2.86 2.86 2.86 0 0 0-2.86-2.86zm0-15.89a1.61 1.61 0 1 1-1.61 1.61 1.61 1.61 0 0 1 1.61-1.61m0-1.25a2.86 2.86 0 1 0 2.86 2.86 2.86 2.86 0 0 0-2.86-2.86zM5.64 28A1.61 1.61 0 1 1 4 29.64 1.61 1.61 0 0 1 5.64 28m0-1.25a2.86 2.86 0 1 0 2.86 2.89 2.86 2.86 0 0 0-2.86-2.86zm0-15.89A1.61 1.61 0 1 1 4 12.5a1.61 1.61 0 0 1 1.61-1.61m0-1.25A2.86 2.86 0 1 0 8.5 12.5a2.86 2.86 0 0 0-2.86-2.86zm2.72 2l10.43-6a2.85 2.85 0 0 1-.82-1l-10.2 5.93a2.84 2.84 0 0 1 .62 1.09zm13.85-6l10.43 6a2.84 2.84 0 0 1 .62-1.09L23 4.67a2.85 2.85 0 0 1-.79.97zM20.5 34.79a2.85 2.85 0 0 1 .62.07v-8.69a4.68 4.68 0 0 1-1.25 0v8.69a2.85 2.85 0 0 1 .63-.07zm12.18-21.31l-8 4.62a5.13 5.13 0 0 1 .6 1.1l8.07-4.66a2.85 2.85 0 0 1-.67-1.06zm-8.06 10.65l8.13 4.34A2.84 2.84 0 0 1 33 28l.32-.6-8.07-4.4a5.13 5.13 0 0 1-.63 1.13zm-4.12-8.2a5.15 5.15 0 0 1 .62 0V6.14a2.7 2.7 0 0 1-1.25 0V16a5.15 5.15 0 0 1 .63-.07zm-4.67 7.28l-8 4.62a2.83 2.83 0 0 1 .57 1.12l8.08-4.67a5.15 5.15 0 0 1-.65-1.07zm2.27 12.9l-9.74-5.63a2.84 2.84 0 0 1-.62 1.09l9.94 5.74a2.83 2.83 0 0 1 .42-1.2zm17.26-20.75a2.85 2.85 0 0 1-.64-.08v11.58a2.7 2.7 0 0 1 1.25 0V15.29a2.85 2.85 0 0 1-.61.07zm-2.72 15.12l-9.74 5.63a2.83 2.83 0 0 1 .42 1.2l9.94-5.74a2.84 2.84 0 0 1-.62-1.09zm-27-3.7a2.85 2.85 0 0 1 .64.08V15.28a2.7 2.7 0 0 1-1.25 0v11.58a2.85 2.85 0 0 1 .61-.07zm10.57-8.55l-8.1-4.32a2.86 2.86 0 0 1-.87 1l8.41 4.49a5.13 5.13 0 0 1 .57-1.17z"></path></g></svg><svg id="comprehensive" data-name="Layer 1" viewBox="0 0 68 68" width="68" height="68" y="1090"><defs><style>.cls-1{fill:#e65400}.cls-2{fill:#76787c}</style></defs><title>ai-icons</title><g id="comprehensive"><path id="secondary" class="cls-1" d="M29.38 13.56a6.07 6.07 0 0 1 4.22 1.68 1 1 0 0 0 1.71-.7V4.06h-2v8.51a8.4 8.4 0 0 0-3.93-1 7.59 7.59 0 1 0 3.93 14.08v19.16a1 1 0 0 0 .7.93 1 1 0 0 0 1.13-.37l.15-.16.22-.21a5.59 5.59 0 1 1 3.74 9.75A6.07 6.07 0 0 1 35 53.06a1 1 0 0 0-1.71.7V64h1.97v-8.2a8.4 8.4 0 0 0 3.93 1 7.59 7.59 0 1 0-3.93-14.09V23.5a1 1 0 0 0-.7-.93 1 1 0 0 0-1.13.37l-.15.16-.22.21a5.59 5.59 0 1 1-3.74-9.75z"></path><path id="primary" class="cls-2" d="M34 2a32 32 0 1 0 32 32A32 32 0 0 0 34 2zm29.95 32.8a30 30 0 0 1-59.9 0h8.38a8.4 8.4 0 0 0-1 3.93 7.59 7.59 0 1 0 14.08-3.93h7.8v-2.05h-9.94a1 1 0 0 0-.93.7 1 1 0 0 0 .37 1.13l.16.15.21.22a5.59 5.59 0 1 1-9.75 3.74 6.07 6.07 0 0 1 1.68-4.22 1 1 0 0 0-.7-1.71H3.79c0 .41.24.83.24 1.25a30 30 0 0 1 59.91-1.2H55.6a8.4 8.4 0 0 0 1-3.93 7.59 7.59 0 1 0-14.08 3.92h-7.25v2h9.4a1 1 0 0 0 .93-.7 1 1 0 0 0-.37-1.1l-.16-.15-.21-.22a5.59 5.59 0 1 1 9.75-3.74 6.07 6.07 0 0 1-1.68 4.22 1 1 0 0 0 .7 1.71z"></path></g></svg><svg id="comprehensive-sm" data-name="Layer 1" viewBox="0 0 41 41" width="41" height="41" y="1158"><defs><style>.cls-1{fill:#e65400}.cls-2{fill:#76787c}</style></defs><title>ai-icons</title><g id="comprehensive-sm"><path id="secondary" class="cls-1" d="M17.61 7.72a3.79 3.79 0 0 1 2.64 1 .63.63 0 0 0 1.07-.44V1.79h-1.25V7.1a5.25 5.25 0 0 0-2.46-.63 4.74 4.74 0 1 0 2.46 8.8v11.98a.62.62 0 0 0 .44.58.64.64 0 0 0 .71-.23l.09-.1.14-.13a3.49 3.49 0 1 1 2.34 6.09 3.79 3.79 0 0 1-2.64-1 .63.63 0 0 0-1.07.44v6.37h1.25v-5.19a5.25 5.25 0 0 0 2.46.63 4.74 4.74 0 1 0-2.46-8.8V13.93a.62.62 0 0 0-.43-.58.64.64 0 0 0-.7.23l-.09.1-.14.13a3.49 3.49 0 1 1-2.34-6.09z"></path><path id="primary" class="cls-2" d="M20.5.5a20 20 0 1 0 20 20 20 20 0 0 0-20-20zM39.22 21a18.72 18.72 0 0 1-37.44 0H7a5.25 5.25 0 0 0-.63 2.46A4.74 4.74 0 1 0 15.19 21h4.87v-1.25h-6.21a.62.62 0 0 0-.58.44.64.64 0 0 0 .23.71l.1.09.13.14a3.49 3.49 0 1 1-6.09 2.34 3.79 3.79 0 0 1 1-2.64.62.62 0 0 0-.44-1.07H1.62c0 .26.15.52.15.78a18.73 18.73 0 0 1 37.44-.75H34a5.25 5.25 0 0 0 .63-2.46 4.74 4.74 0 1 0-8.8 2.46h-4.54V21h5.87a.62.62 0 0 0 .58-.44.64.64 0 0 0-.23-.71l-.1-.09-.13-.14a3.49 3.49 0 1 1 6.09-2.34 3.79 3.79 0 0 1-1 2.64.62.62 0 0 0 .4 1.08z"></path></g></svg><svg id="continuous" data-name="Layer 1" viewBox="0 0 68 68" width="68" height="68" y="1199"><defs><style>.cls-1{fill:#e65400}.cls-2{fill:#76787c}</style></defs><title>ai-icons</title><g id="continuous"><path id="secondary" class="cls-1" d="M60.4 41a27.1 27.1 0 0 1-51.9 1.53l6 2.74.76-1.64-8.93-4.09-4.15 9 1.64.75L6.74 43a28.9 28.9 0 0 0 55.4-1.51z"></path><path id="primary" class="cls-2" d="M64.18 18.27l-2.75 6a28.92 28.92 0 0 0-55.16 2.27L8 27a27.1 27.1 0 0 1 51.82-1.79l-6.28-2.89L52.8 24l8.87 4.08 4.15-9z"></path></g></svg><svg id="continuous-sm" data-name="Layer 1" viewBox="0 0 41 41" width="41" height="41" y="1267"><defs><style>.cls-1{fill:#e65400}.cls-2{fill:#76787c}</style></defs><title>ai-icons</title><g id="continuous-sm"><path id="secondary" class="cls-1" d="M37.09 24.9a17 17 0 0 1-32.62 1l3.74 1.72.48-1L3.11 24 .5 29.66l1 .47 1.83-4a18.17 18.17 0 0 0 34.82-.95z"></path><path id="primary" class="cls-2" d="M39.47 10.61l-1.73 3.76a18.18 18.18 0 0 0-34.67 1.44l1.1.29A17 17 0 0 1 36.74 15l-3.95-1.82-.48 1 5.58 2.57 2.61-5.68z"></path></g></svg><svg id="customer-story" data-name="Layer 1" viewBox="0 0 68 68" width="68" height="68" y="1308"><defs><style>.cls-1{fill:#e65400}.cls-2{fill:#76787c}</style></defs><title>ai-icons</title><g id="customer-story"><path id="secondary" class="cls-1" d="M22.38 14.65l-5.33-2.45-5.32 2.45V4h10.65v10.65z"></path><path id="primary" class="cls-2" d="M51.73 6.55V2h-46v58h5.47l-.13 1.27L56.15 66l6.12-58.35zM7.73 58V4h42v54h-7.57v-9c0-2.26-3.67-5.28-8.06-6.65-.13.16-.26.31-.4.46v.11h-.1a6.88 6.88 0 0 1-4.87 2.44 6.87 6.87 0 0 1-4.87-2.43h-.1v-.17c-.12-.14-.24-.27-.36-.42-4.4 1.39-8.1 4.41-8.1 6.66v9zm46.64 5.8L18.21 60h33.52V8.56l8.34.88zm-32.1-30.65c0-4.21 2.66-7.15 6.46-7.15s6.46 2.94 6.46 7.15c0 4.77-3.08 9.11-6.46 9.11s-6.46-4.34-6.46-9.11z"></path></g></svg><svg id="customer-story-sm" data-name="Layer 1" viewBox="0 0 41 41" width="41" height="41" y="1376"><defs><style>.cls-1{fill:#e65400}.cls-2{fill:#76787c}</style></defs><title>ai-icons</title><g id="customer-story-sm"><path id="secondary" class="cls-1" d="M13.24 8.41L9.91 6.87 6.58 8.41V1.75h6.66v6.66z"></path><path id="primary" class="cls-2" d="M31.58 3.34V.5H2.83v36.25h3.42l-.08.79 28.18 3L38.17 4zM4.08 35.5V1.75h26.25V35.5H25.6v-5.62c0-1.42-2.29-3.3-5-4.16l-.25.29v.07a4.3 4.3 0 0 1-3 1.52 4.3 4.3 0 0 1-3-1.52h-.25v-.1l-.22-.26c-2.74.86-5 2.74-5 4.16v5.62zm29.15 3.63l-22.6-2.37h20.95V4.6l5.21.55zM13.17 20c0-2.63 1.66-4.47 4-4.47s4 1.84 4 4.47c0 3-1.92 5.69-4 5.69s-4-2.69-4-5.69z"></path></g></svg><svg id="datasheet" data-name="Layer 1" viewBox="0 0 68 68" width="68" height="68" y="1417"><defs><style>.cls-1{fill:#e65400}.cls-2{fill:#76787c}</style></defs><title>ai-icons</title><g id="datasheet"><path id="secondary" class="cls-1" d="M19.73 12h4v11h-4zm-7 11h4v-9h-4zm14-13v13h4V10z"></path><path id="primary" class="cls-2" d="M51.73 6.55V2h-46v58h5.47l-.13 1.27L56.15 66l6.12-58.35zM7.73 58V4h42v54zm46.64 5.8L18.13 60h33.6V8.56l8.34.88zM33.73 16h11v2h-11zm0 5h11v2h-11zm-21 5h32v2h-32zm0 5h32v2h-32zm0 5h32v2h-32zm0 5h32v2h-32zm0 5h32v2h-32zm0 5h16v2h-16zm21-40h11v2h-11z"></path></g></svg><svg id="datasheet-sm" data-name="Layer 1" viewBox="0 0 41 41" width="41" height="41" y="1485"><defs><style>.cls-1{fill:#e65400}.cls-2{fill:#76787c}</style></defs><title>ai-icons</title><g id="datasheet-sm"><path id="secondary" class="cls-1" d="M11.62 6.82h2.49v6.84h-2.49zm-4.35 6.84h2.49v-5.6H7.27zM16 5.57v8.09h2.49V5.57z"></path><path id="primary" class="cls-2" d="M31.53 3.43V.6H2.92v36.07h3.4l-.08.79 28 2.94 3.84-36.29zm-27.37 32V1.84h26.12v33.59zm29 3.61l-22.53-2.37h20.9v-32l5.19.54zM20.33 9.3h6.84v1.24h-6.84zm0 3.11h6.84v1.24h-6.84zM7.27 15.52h19.9v1.24H7.27zm0 3.11h19.9v1.24H7.27zm0 3.11h19.9V23H7.27zm0 3.11h19.9v1.25H7.27zm0 3.11h19.9v1.24H7.27zm0 3.11h10v1.24h-10zM20.33 6.19h6.84v1.25h-6.84z"></path></g></svg><svg id="demo" data-name="Layer 1" viewBox="0 0 68 68" width="68" height="68" y="1526"><defs><style>.cls-1{fill:#e65400}.cls-2{fill:#76787c}</style></defs><title>ai-icons</title><g id="demo"><path id="secondary" class="cls-1" d="M10 25h8v2h-8zm12 2h16v-2H22zm20-2v2h16v-2zM10 35h8v-2h-8zm12 0h16v-2H22zm30 0h6v-2h-6zm-42 8h8v-2h-8zm12 0h16v-2H22zm-12 7h8v-2h-8zm12 0h16v-2H22zm20 0h6v-2h-6z"></path><path id="primary" class="cls-2" d="M44.1 45.39V29.9l11.14 10.77-5.34.14L53.36 49l-2.19.93-3.42-8.08zM66 11v46H2V11zm-2 8H4v36h60zm0-6H4v4h60z"></path></g></svg><svg id="demo-sm" data-name="Layer 1" viewBox="0 0 41 41" width="41" height="41" y="1594"><defs><style>.cls-1{fill:#e65400}.cls-2{fill:#76787c}</style></defs><title>ai-icons</title><g id="demo-sm"><path id="secondary" class="cls-1" d="M5.5 14.88h5v1.25h-5zm7.5 1.25h10v-1.25H13zm12.5-1.25v1.25h10v-1.25zm-20 6.25h5v-1.25h-5zm7.5 0h10v-1.25H13zm18.75 0h3.75v-1.25h-3.75zm-26.25 5h5v-1.25h-5zm7.5 0h10v-1.25H13zM5.5 30.5h5v-1.25h-5zm7.5 0h10v-1.25H13zm12.5 0h3.75v-1.25H25.5z"></path><path id="primary" class="cls-2" d="M26.81 27.62v-9.68l7 6.73-3.34.09 2.16 5.1-1.37.58-2.14-5.05zM40.5 6.13v28.75H.5V6.13zm-1.25 5H1.75v22.5h37.5zm0-3.75H1.75v2.5h37.5z"></path></g></svg><svg id="disability-insurance" data-name="Layer 1" viewBox="0 0 68 68" width="68" height="68" y="1635"><defs><style>.cls-1{fill:#e65400}.cls-2{fill:#76787c}</style></defs><title>ai-icons</title><g id="disability-insurance"><path id="secondary" class="cls-1" d="M40.51 15.74v11.75h11.75v13H40.51v11.77h-13V40.5H15.74v-13h11.75V15.74h13m1.22-2H26.28a.78.78 0 0 0-.78.78v11h-11a.78.78 0 0 0-.78.78v15.42a.78.78 0 0 0 .78.78h11v11a.78.78 0 0 0 .78.78h15.45a.78.78 0 0 0 .78-.78v-11h11a.78.78 0 0 0 .78-.78V26.27a.79.79 0 0 0-.79-.78h-11v-11a.78.78 0 0 0-.78-.78z"></path><path id="primary" class="cls-2" d="M34 4A30 30 0 1 1 4 34 30 30 0 0 1 34 4m0-2a32 32 0 1 0 32 32A32 32 0 0 0 34 2z"></path></g></svg><svg id="disability-insurance-sm" data-name="Layer 1" viewBox="0 0 41 41" width="41" height="41" y="1703"><defs><style>.cls-1{fill:#e65400}.cls-2{fill:#76787c}</style></defs><title>ai-icons</title><g id="disability-insurance-sm"><path id="secondary" class="cls-1" d="M24.49 9.29v7.21h7.22v8H24.5v7.22h-8v-7.23H9.29v-8h7.22v-7.2h8m.75-1.23h-9.5a.48.48 0 0 0-.48.48v6.74H8.54a.48.48 0 0 0-.48.48v9.48a.48.48 0 0 0 .48.48h6.74v6.74a.48.48 0 0 0 .48.48h9.49a.48.48 0 0 0 .48-.48v-6.74h6.73a.48.48 0 0 0 .48-.48v-9.48a.48.48 0 0 0-.48-.48h-6.74V8.54a.48.48 0 0 0-.48-.48z"></path><path id="primary" class="cls-2" d="M20.5 2.08A18.42 18.42 0 1 1 2.08 20.5 18.44 18.44 0 0 1 20.5 2.08m0-1.23A19.65 19.65 0 1 0 40.15 20.5 19.65 19.65 0 0 0 20.5.85z"></path></g></svg><svg id="donut" data-name="Layer 1" viewBox="0 0 68 68" width="68" height="68" y="1744"><defs><style>.cls-1{fill:#e65400}.cls-2{fill:#76787c}</style></defs><title>ai-icons</title><g id="donut"><path class="cls-1" d="M33.29 10.53a1.07 1.07 0 0 0-1 1.46l1.65 4.28a1.08 1.08 0 0 0 2-.77l-1.65-4.28a1.08 1.08 0 0 0-1-.69zm13.91 1.86a1.07 1.07 0 0 0-.72.28l-3.41 3.07a1.07 1.07 0 0 0 .72 1.87 1.07 1.07 0 0 0 .72-.28l3.41-3.07a1.07 1.07 0 0 0-.72-1.87zm-21.59 1.36A1.08 1.08 0 0 0 25 14l-3.63 2.81a1.08 1.08 0 0 0 1.32 1.7l3.63-2.81a1.08 1.08 0 0 0-.66-1.93zm-10.9 5.1a1.07 1.07 0 0 0-1 1.47l1.69 4.27a1.08 1.08 0 0 0 2-.79l-1.69-4.27a1.08 1.08 0 0 0-1-.68zm32.6 3.21a1.08 1.08 0 0 0-.53 2l4 2.24a1.07 1.07 0 0 0 .52.14 1.08 1.08 0 0 0 .53-2l-4-2.24a1.07 1.07 0 0 0-.52-.14zm9.89 1.62a1.07 1.07 0 0 0-1 1.47l1.71 4.26a1.08 1.08 0 1 0 2-.8l-1.71-4.26a1.08 1.08 0 0 0-1-.68zm-47 4.71a1.08 1.08 0 0 0-1.07.93l-.62 4.55a1.08 1.08 0 0 0 .92 1.21h.14a1.08 1.08 0 0 0 1.07-.93l.62-4.55a1.08 1.08 0 0 0-.92-1.21zm42.15 6.7a1.08 1.08 0 0 0-1.05.91l-.62 4.55a1.07 1.07 0 0 0 .92 1.21h.14a1.08 1.08 0 0 0 1.07-.93l.62-4.55a1.08 1.08 0 0 0-.92-1.21zM13.56 38a1.08 1.08 0 0 0-.56 2l4 2.24a1.07 1.07 0 0 0 .52.14 1.08 1.08 0 0 0 .53-2l-4-2.24a1.07 1.07 0 0 0-.52-.14zm1.91 9.2a1.07 1.07 0 0 0-1 1.46L16.12 53a1.08 1.08 0 1 0 2-.77l-1.64-4.33a1.08 1.08 0 0 0-1-.69zm40.22.19h-.21L51 48.3a1.08 1.08 0 0 0 .2 2.13h.21l4.5-.88a1.08 1.08 0 0 0-.2-2.13zm-27.24 1.52a1.07 1.07 0 0 0-.69.25l-3.52 2.94a1.08 1.08 0 0 0 1.38 1.65l3.52-2.94a1.08 1.08 0 0 0-.69-1.9zm14.71.78H43a1.07 1.07 0 0 0-.92 1.21l.62 4.55a1.08 1.08 0 0 0 1.07.93h.14a1.08 1.08 0 0 0 .92-1.21l-.62-4.55a1.07 1.07 0 0 0-1.07-.93zm-10.79 5.84a1.08 1.08 0 0 0-.27 2.12l4.43 1.18a1.08 1.08 0 1 0 .55-2.08l-4.43-1.18a1.08 1.08 0 0 0-.28 0z" id="Secondary"></path><path id="primary" class="cls-2" d="M34 4A30 30 0 1 1 4 34 30 30 0 0 1 34 4m0-2a32 32 0 1 0 32 32A32 32 0 0 0 34 2zm0 22a10 10 0 1 1-10 10 10 10 0 0 1 10-10m0-2a12 12 0 1 0 12 12 12 12 0 0 0-12-12z"></path></g></svg><svg id="donut-sm" data-name="Layer 1" viewBox="0 0 41 41" width="41" height="41" y="1812"><defs><style>.cls-1{fill:#e65400}.cls-2{fill:#76787c}</style></defs><title>ai-icons</title><g id="donut-sm"><path class="cls-1" d="M20.06 6a.67.67 0 0 0-.62.91l1 2.65A.67.67 0 0 0 21.7 9l-1-2.65a.67.67 0 0 0-.64-.35zm8.61 1.15a.67.67 0 0 0-.45.17l-2.1 1.88a.67.67 0 0 0 .45 1.16.66.66 0 0 0 .45-.17l2.11-1.9a.67.67 0 0 0-.45-1.16zM15.31 8a.67.67 0 0 0-.41.14l-2.25 1.7a.67.67 0 0 0 .81 1.05l2.25-1.74a.67.67 0 0 0-.4-1.15zm-6.75 3.12a.67.67 0 0 0-.62.91l1 2.64a.67.67 0 0 0 1.24-.49l-1-2.64a.67.67 0 0 0-.62-.42zm20.19 2a.67.67 0 0 0-.33 1.25l2.48 1.39a.66.66 0 0 0 .32.09.67.67 0 0 0 .33-1.25l-2.48-1.39a.66.66 0 0 0-.32-.09zm6.13 1a.66.66 0 0 0-.62.91l1.06 2.64a.67.67 0 1 0 1.24-.5l-1.06-2.64a.67.67 0 0 0-.62-.42zM5.77 17a.67.67 0 0 0-.66.58l-.38 2.82a.67.67 0 0 0 .57.75h.09A.67.67 0 0 0 6 20.6l.38-2.82a.67.67 0 0 0-.52-.78zm26.1 4.15a.67.67 0 0 0-.66.58l-.38 2.82a.66.66 0 0 0 .57.75h.09a.67.67 0 0 0 .66-.58l.38-2.82a.67.67 0 0 0-.57-.75zM7.85 23a.67.67 0 0 0-.33 1.25L10 25.62a.66.66 0 0 0 .32.09.67.67 0 0 0 .33-1.25l-2.48-1.39a.66.66 0 0 0-.32-.07zM9 28.68a.66.66 0 0 0-.62.9l1 2.65a.67.67 0 0 0 .62.43.67.67 0 0 0 .62-.91l-1-2.65a.67.67 0 0 0-.62-.42zm24.9.12h-.1l-2.8.55a.67.67 0 0 0 .13 1.32h.13l2.79-.54a.67.67 0 0 0-.13-1.32zm-16.87.94a.66.66 0 0 0-.43.15l-2.18 1.82a.67.67 0 0 0 .86 1l2.18-1.82a.67.67 0 0 0-.43-1.18zm9.11.48h-.09a.67.67 0 0 0-.57.75l.38 2.82a.67.67 0 0 0 .66.58h.09a.67.67 0 0 0 .57-.75l-.38-2.82a.67.67 0 0 0-.66-.58zm-6.68 3.61a.67.67 0 0 0-.17 1.31l2.74.73h.17a.67.67 0 0 0 .17-1.31l-2.74-.73h-.17z" id="secondary"></path><path id="primary" class="cls-2" d="M20.5 1.93A18.57 18.57 0 1 1 1.93 20.5 18.6 18.6 0 0 1 20.5 1.93m0-1.24A19.81 19.81 0 1 0 40.31 20.5 19.81 19.81 0 0 0 20.5.69zm0 13.62a6.19 6.19 0 1 1-6.19 6.19 6.2 6.2 0 0 1 6.19-6.19m0-1.24a7.43 7.43 0 1 0 7.43 7.43 7.43 7.43 0 0 0-7.43-7.43z"></path></g></svg><svg id="easy" data-name="Layer 1" viewBox="0 0 68 68" width="68" height="68" y="1853"><defs><style>.cls-1{fill:#e65400}.cls-2{fill:#76787c}</style></defs><title>ai-icons</title><g id="easy"><path id="secondary" class="cls-1" d="M28.81 45.86L14.42 31.78l2.1-2.14 12.26 11.99L63.4 6.65l2.13 2.12-36.72 37.09z"></path><path id="primary" class="cls-2" d="M51.21 28.33a24 24 0 1 1-4.5-8.23l1.43-1.43a25.83 25.83 0 1 0 4.66 8.07z"></path></g></svg><svg id="easy-sm" data-name="Layer 1" viewBox="0 0 41 41" width="41" height="41" y="1921"><defs><style>.cls-1{fill:#e65400}.cls-2{fill:#76787c}</style></defs><title>ai-icons</title><g id="easy-sm"><path id="secondary" class="cls-1" d="M17.21 28.02l-9.13-8.93 1.33-1.36 7.78 7.61L39.15 3.16l1.35 1.33-23.29 23.53z"></path><path id="primary" class="cls-2" d="M31.41 16.91a15.21 15.21 0 1 1-2.86-5.22l.9-.9a16.38 16.38 0 1 0 3 5.12z"></path></g></svg><svg id="ebook" data-name="Layer 1" viewBox="0 0 68 68" width="68" height="68" y="1962"><defs><style>.cls-1{fill:#e65400}.cls-2{fill:#76787c}</style></defs><title>ai-icons</title><g id="ebook"><path id="secondary" class="cls-1" d="M18.73 66l-4-1.55-4 1.55v-6h8v6z"></path><path id="primary" class="cls-2" d="M37.73 22h-18v-2h18zm0-7h-18v2h18zm24.54-7.35L56.15 66l-37.42-3.93v-2l35.64 3.73 5.7-54.37-8.34-.88V60h-46V2h46v4.55zM49.73 4h-42v54h42z"></path></g></svg><svg id="ebook-sm" data-name="Layer 1" viewBox="0 0 41 41" width="41" height="41" y="2030"><defs><style>.cls-1{fill:#e65400}.cls-2{fill:#76787c}</style></defs><title>ai-icons</title><g id="ebook-sm"><path id="secondary" class="cls-1" d="M10.96 40.5l-2.5-.97-2.5.97v-3.75h5v3.75z"></path><path id="primary" class="cls-2" d="M22.83 13H11.58v-1.25h11.25zm0-4.37H11.58v1.25h11.25zM38.17 4l-3.83 36.5L11 38v-1.21l22.27 2.34 3.57-34-5.26-.53v32.15H2.83V.5h28.75v2.84zm-7.84-2.25H4.08V35.5h26.25z"></path></g></svg><svg id="expense-management" data-name="Layer 1" viewBox="0 0 68 68" width="68" height="68" y="2071"><defs><style>.cls-1{fill:#e65400}.cls-2{fill:#76787c}</style></defs><title>ai-icons</title><g id="expense-management"><circle id="secondary" class="cls-1" cx="34.17" cy="35.05" r="9"></circle><path id="primary" class="cls-2" d="M54 17H2v34h64V17zm10 2v7c-3.71-.34-7.4-2.55-7.95-7zM4 19h7.94c-.46 3.82-3.56 6.53-7.94 6.95zm0 30v-8.93c3.95.58 7.43 4.47 7.95 8.93zm10 0c-.54-5.6-4.89-10.38-10-10.94V27.95c5.48-.46 9.47-4 9.95-8.95H54c.56 5.76 5.28 8.61 10 9v10.07C58.43 38.71 54.52 44 54 49zm50 0h-7.94c.44-4.08 3.54-8.3 7.94-8.92z"></path></g></svg><svg id="expense-management-sm" data-name="Layer 1" viewBox="0 0 41 41" width="41" height="41" y="2139"><defs><style>.cls-1{fill:#e65400}.cls-2{fill:#76787c}</style></defs><title>ai-icons</title><g id="expense-management-sm"><circle id="secondary" class="cls-1" cx="20.6" cy="21.16" r="5.63"></circle><path id="primary" class="cls-2" d="M33 9.88H.5v21.25h40V9.88zm6.27 1.25v4.35c-2.32-.21-4.62-1.59-5-4.35zm-37.5 0h5c-.29 2.38-2.22 4.08-5 4.34zm0 18.75V24.3a6.39 6.39 0 0 1 5 5.58zm6.22 0c-.33-3.5-3.06-6.48-6.22-6.84v-6.32c3.43-.29 5.92-2.53 6.22-5.59H33c.35 3.6 3.3 5.38 6.22 5.6V23c-3.48.4-5.93 3.68-6.22 6.83zm31.28 0h-5c.28-2.55 2.21-5.19 5-5.58z"></path></g></svg><svg id="fast" data-name="Layer 1" viewBox="0 0 68 68" width="68" height="68" y="2180"><defs><style>.cls-1{fill:#e65400}.cls-2{fill:#76787c}</style></defs><title>ai-icons</title><g id="fast"><path id="secondary" class="cls-1" d="M9.37 51L8 49.57l13.4-13.45 1.41 1.41zm22.45-4.44l-1.41-1.41L17 58.57 18.37 60zm-2.61-7.82l-1-.42L2 64.53l1.41 1.41 26.22-26.22z"></path><path id="primary" class="cls-2" d="M59.2 4.06a31.51 31.51 0 0 1 4.56.33A31.48 31.48 0 0 1 63 16.12c-2.46 9.3-9.11 15.75-19.75 19.18l-1.25.42-.09 1.35c-.43 6.25-1.09 10.36-1.55 11.29l-1.99 1.94-5.78-13.87-.32-.76-.76-.32-13.87-5.78 1.95-1.95c.94-.46 5.26-1.16 11.61-1.57l1.38-.05.4-1.33C38.06 7.63 50 4.06 59.2 4.06m0-2c-8.29 0-22.45 3-28.14 22-2 .13-11.55.81-12.8 2.06l-4.16 4.16 16.64 6.92 6.93 16.63 4.16-4.16c1.18-1.18 1.86-9.94 2-12.46C71.19 28.4 65.51 2.67 65.51 2.67a29.82 29.82 0 0 0-6.31-.61z"></path></g></svg><svg id="fast-sm" data-name="Layer 1" viewBox="0 0 41 41" width="41" height="41" y="2248"><defs><style>.cls-1{fill:#e65400}.cls-2{fill:#76787c}</style></defs><title>ai-icons</title><g id="fast-sm"><path id="secondary" class="cls-1" d="M5.1 31.11l-.88-.88 8.4-8.4.88.88zm14-2.77l-.88-.88-8.4 8.4.88.88zm-1.63-4.89l-.62-.26L.5 39.58l.88.88 16.39-16.38z"></path><path id="primary" class="cls-2" d="M36.25 1.79A19.69 19.69 0 0 1 39.1 2a19.68 19.68 0 0 1-.48 7.34c-1.54 5.81-5.69 9.84-12.34 12l-.81.26-.06.84a31.61 31.61 0 0 1-1 7.05l-1.22 1.22L19.62 22l-.2-.48-.48-.2-8.67-3.61 1.22-1.22a32.65 32.65 0 0 1 7.26-1l.87-.06.25-.83C23 4 30.53 1.79 36.25 1.79m0-1.25c-5.18 0-14 1.85-17.59 13.75-1.22.08-7.22.51-8 1.28l-2.6 2.6 10.4 4.33 4.34 10.39 2.6-2.6c.74-.74 1.16-6.21 1.27-7.79C43.74 17 40.19.92 40.19.92a18.64 18.64 0 0 0-3.94-.38z"></path></g></svg><svg id="financial-close" data-name="Layer 1" viewBox="0 0 68 68" width="68" height="68" y="2289"><defs><style>.cls-1{fill:#e65400}.cls-2{fill:#76787c}</style></defs><title>ai-icons</title><g id="financial-close"><path id="secondary" class="cls-1" d="M35.92 2a13.35 13.35 0 1 0 13.34 13.35A13.35 13.35 0 0 0 35.92 2zm.87 20v1.75h-1.63V22a6.39 6.39 0 0 1-3.8-1.79l1.33-1.84A5.4 5.4 0 0 0 36 19.8c1 0 2-.53 2-1.63 0-2.28-6.42-2.05-6.42-6.14a3.94 3.94 0 0 1 3.57-3.82V6.43h1.63v1.75a5.46 5.46 0 0 1 3.34 1.39l-1.06 2a4.93 4.93 0 0 0-3-1.18c-1.14 0-2 .66-2 1.61 0 2.26 6.4 1.86 6.4 6.12A3.92 3.92 0 0 1 36.79 22z"></path><path id="primary" class="cls-2" d="M65.17 42c-.06-.17-1.4-4.11-4.5-5.2a5.71 5.71 0 0 0-5.13.88l-.81.52c-1.43.92-3 1.9-4.63 2.92a6.52 6.52 0 0 0-1.59-4.34 5.15 5.15 0 0 0-4.76-1.35c-2.92.44-9.72 1.24-12.11.88a18.29 18.29 0 0 1-5.72-2.12c-3.72-1.91-8.45-2.78-19.32-.87V31h-4v2h2v28h-2v2h4v-4.26a25.28 25.28 0 0 1 6.9 1.51 22.84 22.84 0 0 1 2.59 1.3c3.05 1.67 7.24 4 12.13 4 9.08 0 21.68-10.18 22.2-10.62l15-12.14zM49.08 53.23c-.12.1-12.53 10.14-20.86 10.14-4.34 0-8.25-2.14-11.1-3.69a24.16 24.16 0 0 0-2.88-1.43 27.38 27.38 0 0 0-7.64-1.66V35.52c11.73-2.1 15.62-.79 18.34.61a20.29 20.29 0 0 0 6.38 2.33c2.86.44 10.17-.49 12.75-.88a3.16 3.16 0 0 1 2.9.72 5.24 5.24 0 0 1 .93 4.16c-1.13.65-2.32 1.31-3.6 2-3.19 1.65-8.62 1.63-13.52-.06l-.7 2c5.5 1.9 11.46 1.87 15.19-.06 4.3-2.23 7.65-4.38 10.61-6.29l.81-.52a3.67 3.67 0 0 1 3.31-.68c1.5.52 2.47 2.24 2.91 3.2z"></path></g></svg><svg id="financial-close-sm" data-name="Layer 1" viewBox="0 0 41 41" width="41" height="41" y="2357"><defs><style>.cls-1{fill:#e65400}.cls-2{fill:#76787c}</style></defs><title>ai-icons</title><g id="financial-close-sm"><path id="secondary" class="cls-1" d="M21.69.75A8.3 8.3 0 1 0 30 9.05a8.3 8.3 0 0 0-8.31-8.3zm.54 12.45v1.09h-1V13.2a4 4 0 0 1-2.36-1.11l.83-1.15a3.36 3.36 0 0 0 2.09.89c.64 0 1.22-.33 1.22-1C23 9.39 19 9.53 19 7a2.45 2.45 0 0 1 2.22-2.38V3.51h1v1.08a3.4 3.4 0 0 1 2.08.86l-.65 1.25A3.06 3.06 0 0 0 21.8 6c-.71 0-1.26.41-1.26 1 0 1.41 4 1.16 4 3.81a2.44 2.44 0 0 1-2.3 2.39z"></path><path id="primary" class="cls-2" d="M39.89 25.66c0-.1-.87-2.56-2.8-3.23a3.55 3.55 0 0 0-3.19.57l-.5.32c-.89.57-1.84 1.18-2.88 1.81a4.05 4.05 0 0 0-1-2.7 3.21 3.21 0 0 0-3-.84 40.07 40.07 0 0 1-7.53.55 11.38 11.38 0 0 1-3.56-1.32c-2.31-1.19-5.26-1.73-12-.54v-1.49H1V20h1.21v17.45H1v1.24h2.45V36a15.72 15.72 0 0 1 4.3 1 14.21 14.21 0 0 1 1.61.81c1.9 1 4.5 2.46 7.54 2.46 5.65 0 13.48-6.34 13.81-6.6L40 26.09zm-10 7c-.08.06-7.79 6.31-13 6.31-2.7 0-5.13-1.33-6.91-2.3a15 15 0 0 0-1.79-.89 17 17 0 0 0-4.75-1V21.6c7.3-1.31 9.72-.49 11.41.38a12.62 12.62 0 0 0 4 1.45c1.78.27 6.33-.3 7.93-.55a2 2 0 0 1 1.8.45 3.26 3.26 0 0 1 .58 2.59c-.7.4-1.44.81-2.24 1.23-2 1-5.36 1-8.41 0l-.43 1.26c3.42 1.18 7.13 1.16 9.45 0 2.68-1.39 4.76-2.73 6.6-3.91l.5-.32a2.28 2.28 0 0 1 2-.41 3.73 3.73 0 0 1 1.81 2z"></path></g></svg><svg id="generic-money-bill" data-name="Layer 1" viewBox="0 0 68 68" width="68" height="68" y="2398"><defs><style>.cls-1{fill:#e65400}.cls-2{fill:#76787c}</style></defs><title>ai-icons</title><g id="generic-money-bill"><path class="cls-1" d="M21 34a3 3 0 1 1-3-3 3 3 0 0 1 3 3zm29-3a3 3 0 1 0 3 3 3 3 0 0 0-3-3z" id="secondary"></path><path id="primary" class="cls-2" d="M64 19v30H4V19h60m2-2H2v34h64V17zM34 27a7 7 0 1 1-7 7 7 7 0 0 1 7-7m0-2a9 9 0 1 0 9 9 9 9 0 0 0-9-9z"></path></g></svg><svg id="generic-money-bill-sm" data-name="Layer 1" viewBox="0 0 41 41" width="41" height="41" y="2466"><defs><style>.cls-1{fill:#e65400}.cls-2{fill:#76787c}</style></defs><title>ai-icons</title><g id="generic-money-bill-sm"><path class="cls-1" d="M12.65 20.5a1.81 1.81 0 1 1-1.81-1.81 1.81 1.81 0 0 1 1.81 1.81zm17.52-1.81A1.81 1.81 0 1 0 32 20.5a1.81 1.81 0 0 0-1.83-1.81z" id="secondary"></path><path id="primary" class="cls-2" d="M38.63 11.44v18.12H2.38V11.44h36.25m1.21-1.21H1.17v20.54h38.66V10.23zm-19.33 6a4.23 4.23 0 1 1-4.23 4.23 4.23 4.23 0 0 1 4.23-4.23m0-1.21a5.44 5.44 0 1 0 5.44 5.44 5.44 5.44 0 0 0-5.44-5.44z"></path></g></svg><svg id="hand-and-coins" data-name="Layer 1" viewBox="0 0 68 68" width="68" height="68" y="2507"><defs><style>.cls-1{fill:#e65400}.cls-2{fill:#76787c}</style></defs><title>ai-icons</title><g id="hand-and-coins"><path id="secondary" class="cls-1" d="M40.48 14a6 6 0 1 0-6-6 6 6 0 0 0 6 6zm0-10a4 4 0 1 1-4 4 4 4 0 0 1 4-4zm-16 20a6 6 0 1 0 6-6 6 6 0 0 0-6 6zm6-4a4 4 0 1 1-4 4 4 4 0 0 1 4-4zm-8-4a6 6 0 1 0-6-6 6 6 0 0 0 6 6zm0-10a4 4 0 1 1-4 4 4 4 0 0 1 4-4z"></path><path id="primary" class="cls-2" d="M65.3 42.56c-.06-.17-1.4-4.09-4.47-5.17a5.67 5.67 0 0 0-5.08.87l-.81.52c-1.47.94-3 2-4.76 3a6.53 6.53 0 0 0-1.58-4.43A5.11 5.11 0 0 0 43.89 36c-2.93.45-9.76 1.25-12.17.89A18.37 18.37 0 0 1 26 34.77c-3.73-1.92-8.49-2.79-19.48-.84v-2.18h-4v2h2v28h-2v2h4V59.2a25.38 25.38 0 0 1 7.09 1.53A23.09 23.09 0 0 1 16.18 62c3.06 1.67 7.24 4 12.13 4C37.39 66 50 55.8 50.54 55.37l15-12.15zm-16 11.25c-.12.1-12.59 10.18-21 10.18-4.38 0-8.3-2.15-11.17-3.72a24.2 24.2 0 0 0-2.88-1.43 27.41 27.41 0 0 0-7.77-1.64V35.66l.05.28c11.85-2.13 15.77-.81 18.52.6a20.29 20.29 0 0 0 6.38 2.33c2.85.43 10.18-.49 12.77-.89a3.23 3.23 0 0 1 3 .74 5.26 5.26 0 0 1 .91 4.28c-1.14.66-2.35 1.32-3.65 2-3.22 1.67-8.69 1.64-13.61-.06l-.65 1.89c5.5 1.9 11.46 1.87 15.19-.06 4.32-2.24 7.68-4.4 10.64-6.31l.8-.52a3.75 3.75 0 0 1 3.33-.67c1.55.54 2.55 2.33 3 3.29z"></path></g></svg><svg id="hand-and-coins-sm" data-name="Layer 1" viewBox="0 0 41 41" width="41" height="41" y="2575"><defs><style>.cls-1{fill:#e65400}.cls-2{fill:#76787c}</style></defs><title>ai-icons</title><g id="hand-and-coins-sm"><path id="secondary" class="cls-1" d="M24.5 8.16a3.7 3.7 0 1 0-3.7-3.7 3.7 3.7 0 0 0 3.7 3.7zm0-6.16A2.47 2.47 0 1 1 22 4.45 2.47 2.47 0 0 1 24.5 2zm-9.88 12.33a3.7 3.7 0 1 0 3.7-3.7 3.7 3.7 0 0 0-3.7 3.7zm3.7-2.47a2.47 2.47 0 1 1-2.47 2.47 2.47 2.47 0 0 1 2.48-2.47zm-4.93-2.47a3.7 3.7 0 1 0-3.7-3.7 3.7 3.7 0 0 0 3.7 3.7zm0-6.17a2.47 2.47 0 1 1-2.47 2.47 2.47 2.47 0 0 1 2.47-2.47z"></path><path id="primary" class="cls-2" d="M39.82 25.79c0-.1-.86-2.52-2.76-3.19a3.5 3.5 0 0 0-3.14.54l-.5.32c-.9.58-1.87 1.2-2.94 1.85a4 4 0 0 0-1-2.73 3.15 3.15 0 0 0-2.91-.82 39.69 39.69 0 0 1-7.51.55A11.33 11.33 0 0 1 15.54 21c-2.3-1.18-5.24-1.72-12-.52v-1.37H1v1.23h1.28v17.29H1v1.23h2.51v-2.8a15.67 15.67 0 0 1 4.38.94 14.25 14.25 0 0 1 1.61.81c1.89 1 4.47 2.44 7.49 2.44 5.61 0 13.39-6.3 13.72-6.56l9.29-7.5zm-9.89 6.94C29.85 32.79 22.15 39 17 39c-2.7 0-5.12-1.33-6.89-2.29a14.93 14.93 0 0 0-1.78-.88 16.92 16.92 0 0 0-4.8-1V21.52v.17c7.31-1.32 9.74-.5 11.43.37a12.53 12.53 0 0 0 3.94 1.44c1.76.27 6.28-.3 7.88-.55a2 2 0 0 1 1.83.46 3.25 3.25 0 0 1 .59 2.63c-.7.41-1.45.82-2.25 1.23-2 1-5.36 1-8.4 0l-.4 1.17c3.39 1.17 7.07 1.16 9.37 0 2.66-1.38 4.74-2.71 6.57-3.89l.5-.32a2.31 2.31 0 0 1 2.06-.41 3.78 3.78 0 0 1 1.84 2z"></path></g></svg><svg id="healthcare" data-name="Layer 1" viewBox="0 0 68 68" width="68" height="68" y="2616"><defs><style>.cls-1{fill:#e65400}.cls-2{fill:#76787c}</style></defs><title>ai-icons</title><g id="healthcare"><path id="secondary" class="cls-1" d="M30 49.98V31.21l-2.38 4.77H17v-2h9.38L32 22.74v17.24l10-24V33.1l1.34-3.12H53v2h-8.34L40 42.85V25.98l-10 24z"></path><path id="primary" class="cls-2" d="M34 62a2.42 2.42 0 0 1-1.7-.69L6.13 35.5a17.13 17.13 0 0 1 0-24.5 17.64 17.64 0 0 1 24.75 0L34 14.15l3.1-3.08a17.7 17.7 0 0 1 24.75 0 17.15 17.15 0 0 1 0 24.48l-13 12.76-13.23 13A2.42 2.42 0 0 1 34 62zM18.5 8a15.54 15.54 0 0 0-11 4.49 15.13 15.13 0 0 0 0 21.6L33.68 59.9a.42.42 0 0 0 .59 0l13.23-13 13-12.76a15.15 15.15 0 0 0 0-21.63 15.69 15.69 0 0 0-21.94 0L34 17l-4.55-4.5A15.54 15.54 0 0 0 18.5 8z"></path></g></svg><svg id="healthcare-sm" data-name="Layer 1" viewBox="0 0 41 41" width="41" height="41" y="2684"><defs><style>.cls-1{fill:#e65400}.cls-2{fill:#76787c}</style></defs><title>ai-icons</title><g id="healthcare-sm"><path id="secondary" class="cls-1" d="M18.1 30.1V18.83l-1.43 2.86h-6.38v-1.2h5.63l3.38-6.75v10.35l6.01-14.42v10.29l.8-1.88h5.8v1.21H26.9l-2.8 6.53V15.68l-6 14.42z"></path><path id="primary" class="cls-2" d="M20.49 37.33a1.45 1.45 0 0 1-1-.42L3.76 21.4a10.29 10.29 0 0 1 0-14.69 10.6 10.6 0 0 1 14.86 0l1.89 1.87 1.86-1.85a10.63 10.63 0 0 1 14.87 0 10.3 10.3 0 0 1 0 14.7l-7.79 7.67-7.95 7.82a1.45 1.45 0 0 1-1.01.41zm-9.3-32.46a9.33 9.33 0 0 0-6.59 2.7 9.09 9.09 0 0 0 0 13l15.7 15.52a.25.25 0 0 0 .36 0l7.95-7.82 7.78-7.67a9.1 9.1 0 0 0 0-13 9.43 9.43 0 0 0-13.18 0l-2.7 2.69-2.73-2.7a9.33 9.33 0 0 0-6.59-2.72z"></path></g></svg><svg id="idea" data-name="Layer 1" viewBox="0 0 68 68" width="68" height="68" y="2725"><defs><style>.cls-1{fill:#e65400}.cls-2{fill:#76787c}</style></defs><title>ai-icons</title><g id="Idea"><path id="secondary" class="cls-1" d="M51.63 19.65l-.92-1.77 6.56-3.42.92 1.77zM35.17 2h-2v7.61h2zM17.86 17.76l-6.66-3.22-.87 1.8L17 19.56zm40.41 17.1l-3.33-1.61-.88 1.75 3.33 1.61zM13.94 35l-.87-1.8-3.34 1.66.87 1.8z"></path><path id="primary" class="cls-2" d="M27.32 52.5l-.25-.15a3.11 3.11 0 0 1-1.39-2.42l-.3-3.64c-.38-1.58-1.9-4-3.38-6.35a15.82 15.82 0 0 1-2.18-3.6v-.05a1.15 1.15 0 0 1-.17-.44 15.79 15.79 0 1 1 28.51 1.81l-.13.26c-.56 1.1-1.31 2.36-2 3.58a23.48 23.48 0 0 0-2.1 3.93L43 49.85a3.42 3.42 0 0 1-2 2.44h-.29zm-5.64-16.9a14.15 14.15 0 0 0 1.91 3.12l.07.1c1.68 2.66 3.26 5.17 3.69 7.09v.13l.31 3.71a1.39 1.39 0 0 0 .27.73l12.47-.14a1.64 1.64 0 0 0 .6-.85l.9-4.49a20.71 20.71 0 0 1 2.34-4.55c.43-.71.86-1.44 1.25-2.13h-.05l.78-1.32a13.78 13.78 0 1 0-24.67-1.7zm19.85 24.35l-.31-2-13.6 2.11.31 2zm0 3.93l-.31-2L27.62 64l.31 2zm0-7.68l-.31-2-13.6 2.11.31 2z"></path></g></svg><svg id="idea-sm" data-name="Layer 1" viewBox="0 0 41 41" width="41" height="41" y="2793"><defs><style>.cls-1{fill:#e65400}.cls-2{fill:#76787c}</style></defs><title>ai-icons</title><g id="Idea-sm"><path id="secondary" class="cls-1" d="M31.09 11.87l-.56-1.07 3.94-2.05.53 1.07zM21.2 1.27H20v4.57h1.2zm-10.4 9.47l-4-1.94-.53 1.09 4 1.94zM35.08 21l-2-1-.52 1.08 2 1zm-26.64.11L7.92 20l-2 1 .52 1.08z"></path><path id="primary" class="cls-2" d="M16.48 31.62l-.15-.09a1.87 1.87 0 0 1-.84-1.46l-.18-2.19a16.73 16.73 0 0 0-2-3.81A9.51 9.51 0 0 1 12 21.9a.69.69 0 0 1-.1-.26A9.49 9.49 0 1 1 29 22.69l-.08.16c-.34.66-.79 1.42-1.23 2.15a14.11 14.11 0 0 0-1.26 2.36L25.9 30a2.05 2.05 0 0 1-1.23 1.47h-.17zm-3.39-10.16a8.5 8.5 0 0 0 1.15 1.87v.06a16.49 16.49 0 0 1 2.21 4.26v.08L16.7 30a.83.83 0 0 0 .16.44l7.5-.09a1 1 0 0 0 .36-.51l.53-2.69a12.45 12.45 0 0 1 1.41-2.73c.26-.43.52-.86.75-1.28l.47-.82a8.28 8.28 0 1 0-14.83-1zM25 36.09l-.18-1.19-8.17 1.27.18 1.19zm0 2.36l-.18-1.19-8.17 1.27.18 1.19zm0-4.61l-.18-1.19-8.17 1.27.18 1.19z"></path></g></svg><svg id="in-person-event" data-name="Layer 1" viewBox="0 0 68 68" width="68" height="68" y="2834"><defs><style>.cls-1{fill:#e65400}.cls-2{fill:#76787c}</style></defs><title>ai-icons</title><g id="in-person-event"><path id="secondary" class="cls-1" d="M14.32 15.75l-1.63-1.16a27.65 27.65 0 0 1 43.51-1.92l.62-5.44 2 .23-1 8.83-8.83-1 .23-2 5.44.62a25.65 25.65 0 0 0-40.33 1.83zM35.53 63a25.65 25.65 0 0 1-19.63-8.49l5.45.49.18-2-8.85-.8-.8 8.85 2 .18.49-5.45A27.74 27.74 0 0 0 35 65h.63a27.74 27.74 0 0 0 22.2-12.1l-1.65-1.13A25.74 25.74 0 0 1 35.53 63z"></path><path id="primary" class="cls-2" d="M17.95 32.56a9.2 9.2 0 0 0 1.29-4.8c0-4-2.71-6.88-6.45-6.88s-6.45 2.89-6.45 6.88a9.24 9.24 0 0 0 1.21 4.67 17.81 17.81 0 0 0-6.16 4.36 1 1 0 0 0-.32.76v3.52a1.05 1.05 0 0 0 .27.7 15.29 15.29 0 0 0 11.47 5c5.08 0 9-3.09 10.84-4.94a1.05 1.05 0 0 0 .31-.75v-3.53a1.05 1.05 0 0 0-.21-.63 13 13 0 0 0-5.8-4.36zm-5.16-9.68c2.46 0 4.45 1.85 4.45 4.88s-2 6.1-4.45 6.1-4.45-3.07-4.45-6.1 1.98-4.88 4.44-4.88zm9.06 17.75c-1.74 1.63-5 4-9 4a13.24 13.24 0 0 1-9.63-4V38c1-1 3.37-3.21 5.77-3.78a5.73 5.73 0 0 0 3.84 1.66 5.69 5.69 0 0 0 3.73-1.57 10.52 10.52 0 0 1 5.28 3.61zm44.89-3.71a13 13 0 0 0-5.79-4.36 9.2 9.2 0 0 0 1.29-4.8c0-4-2.71-6.88-6.45-6.88s-6.45 2.89-6.45 6.88a9.24 9.24 0 0 0 1.21 4.67 17.81 17.81 0 0 0-6.16 4.36 1 1 0 0 0-.32.76v3.52a1.05 1.05 0 0 0 .27.7 15.29 15.29 0 0 0 11.47 5c5.08 0 9-3.09 10.84-4.94a1.05 1.05 0 0 0 .31-.75v-3.53a1.05 1.05 0 0 0-.23-.63zm-10.95-14c2.46 0 4.45 1.85 4.45 4.88s-2 6.1-4.45 6.1-4.45-3.07-4.45-6.1 1.98-4.92 4.44-4.92zm9.06 17.75c-1.74 1.63-5 4-9 4a13.24 13.24 0 0 1-9.63-4V38c1-1 3.37-3.21 5.77-3.78a5.25 5.25 0 0 0 7.58.1 10.52 10.52 0 0 1 5.28 3.61z"></path></g></svg><svg id="in-person-event-sm" data-name="Layer 1" viewBox="0 0 41 41" width="41" height="41" y="2902"><defs><style>.cls-1{fill:#e65400}.cls-2{fill:#76787c}</style></defs><title>ai-icons</title><g id="in-person-event-sm"><path id="secondary" class="cls-1" d="M8.55 9.42l-1-.71A16.79 16.79 0 0 1 34 7.55l.37-3.3 1.21.14L35 9.75l-5.36-.61.14-1.21 3.3.37A15.57 15.57 0 0 0 8.55 9.42zM21.43 38.1A15.57 15.57 0 0 1 9.51 33l3.31.3.11-1.3-5.37-.49-.49 5.37 1.21.12.3-3.31a16.84 16.84 0 0 0 12.5 5.59h.38A16.84 16.84 0 0 0 35 32l-1-.68a15.63 15.63 0 0 1-12.57 6.78z"></path><path id="primary" class="cls-2" d="M10.75 19.62a5.58 5.58 0 0 0 .78-2.91 3.93 3.93 0 1 0-7.83 0 5.61 5.61 0 0 0 .73 2.84A10.81 10.81 0 0 0 .7 22.2a.63.63 0 0 0-.2.46v2.14a.64.64 0 0 0 .16.42 9.28 9.28 0 0 0 7 3 9.72 9.72 0 0 0 6.58-3 .64.64 0 0 0 .19-.45v-2.11a.64.64 0 0 0-.13-.38 7.86 7.86 0 0 0-3.55-2.66zm-3.13-5.87a2.72 2.72 0 0 1 2.7 3c0 1.84-1.21 3.7-2.7 3.7s-2.7-1.86-2.7-3.7a2.72 2.72 0 0 1 2.7-3zm5.5 10.77A8.33 8.33 0 0 1 7.62 27a8 8 0 0 1-5.85-2.42v-1.67a8.57 8.57 0 0 1 3.5-2.29 3.48 3.48 0 0 0 2.33 1 3.45 3.45 0 0 0 2.27-1 6.39 6.39 0 0 1 3.21 2.19zm27.26-2.25a7.86 7.86 0 0 0-3.51-2.65 5.58 5.58 0 0 0 .78-2.91 3.93 3.93 0 1 0-7.83 0 5.61 5.61 0 0 0 .73 2.84 10.81 10.81 0 0 0-3.75 2.65.63.63 0 0 0-.2.46v2.14a.64.64 0 0 0 .16.42 9.28 9.28 0 0 0 7 3 9.72 9.72 0 0 0 6.58-3 .64.64 0 0 0 .19-.45v-2.11a.64.64 0 0 0-.16-.39zm-6.65-8.53a2.72 2.72 0 0 1 2.7 3c0 1.84-1.21 3.7-2.7 3.7S31 18.55 31 16.71a2.72 2.72 0 0 1 2.72-2.96zm5.5 10.77a8.33 8.33 0 0 1-5.5 2.49 8 8 0 0 1-5.85-2.42v-1.67a8.57 8.57 0 0 1 3.5-2.29 3.19 3.19 0 0 0 4.6.06 6.39 6.39 0 0 1 3.21 2.19z"></path></g></svg><svg id="infographic" data-name="Layer 1" viewBox="0 0 68 68" width="68" height="68" y="2943"><defs><style>.cls-1{fill:#e65400}.cls-2{fill:#76787c}</style></defs><title>ai-icons</title><g id="infographic"><path id="secondary" class="cls-1" d="M26 40h6v12h-6zm-9 12h6V36h-6zm-9 0h6v-8H8zm51.37-11.61l-3 1.29a4.69 4.69 0 0 1-6.38 6l-1.46 3a7.92 7.92 0 0 0 3.47.82 8 8 0 0 0 7.37-11.11z"></path><path id="primary" class="cls-2" d="M2 11v46h64V11zm62 2v4H4v-4zM4 55V19h60v36zm4-26h52v2H8zm0-6h52v2H8zm51.37 17.39l-3 1.29a4.69 4.69 0 1 0-6.38 6l-1.46 3a8 8 0 1 1 10.89-10.3z"></path></g></svg><svg id="infographic-sm" data-name="Layer 1" viewBox="0 0 41 41" width="41" height="41" y="3011"><defs><style>.cls-1{fill:#e65400}.cls-2{fill:#76787c}</style></defs><title>ai-icons</title><g id="infographic-sm"><path id="secondary" class="cls-1" d="M15.5 24.25h3.75v7.5H15.5zm-5.62 7.5h3.75v-10H9.88zm-5.62 0H8v-5H4.25zm32.11-7.26l-1.9.8a2.93 2.93 0 0 1-4 3.78l-.91 1.86a5 5 0 0 0 2.2.51 5 5 0 0 0 4.61-6.95z"></path><path id="primary" class="cls-2" d="M.5 6.13v28.75h40V6.13zm38.75 1.25v2.5H1.75v-2.5zM1.75 33.63v-22.5h37.5v22.5zm2.5-16.25h32.5v1.25H4.25zm0-3.75h32.5v1.25H4.25zm32.11 10.86l-1.9.81a2.93 2.93 0 1 0-4 3.78l-.91 1.86a5 5 0 1 1 6.8-6.44z"></path></g></svg><svg id="news" data-name="Layer 1" viewBox="0 0 68 68" width="68" height="68" y="3052"><defs><style>.cls-1{fill:#e65400}.cls-2{fill:#76787c}</style></defs><title>ai-icons</title><g id="news"><path id="secondary" class="cls-1" d="M64 33V19H4v14zm-17.66-8.81a2.75 2.75 0 0 1 3-2.63 3.89 3.89 0 0 1 2.76 1l-.89 1.71a3.27 3.27 0 0 0-1.89-.76c-.43 0-.91.19-.91.67 0 1.08 3.86.89 3.86 3.6a2.73 2.73 0 0 1-3 2.66 4.43 4.43 0 0 1-3.13-1.22l1.1-1.59a3.55 3.55 0 0 0 2.05.89c.43 0 .9-.17.9-.68.02-1.04-3.85-1.01-3.85-3.65zm-10.67-2.48l1.08 5.36a5 5 0 0 1 .11.9 4.73 4.73 0 0 1 .14-.9l1.32-5.36H40l1.28 5.36a4.73 4.73 0 0 1 .14.9 5 5 0 0 1 .11-.9l1.17-5.36h2.17l-2.17 8.58h-2.27L39.35 26a7.33 7.33 0 0 1-.17-1 7.23 7.23 0 0 1-.18 1l-1.08 4.33h-2.38l-2.09-8.58zm-9.11 0h5.37v1.8h-3.27v1.56h2.61v1.8h-2.61v1.62h3.44v1.8h-5.54zm-9.86 0h2.12l2.38 4a15.31 15.31 0 0 1 .72 1.46s-.1-.92-.1-1.46v-4h2.1v8.58h-2.09l-2.39-4a15.35 15.35 0 0 1-.72-1.46s.1.92.1 1.46v4h-2.1z"></path><path id="primary" class="cls-2" d="M2 11v46h64V11zm62 2v4H4v-4zM4 55V19h60v36zm5-6h11v2H9zm0-6h11v2H9zm19 6h12v2H28zm0-6h12v2H28zm11-6h1v2H28v-2zm9 12h11v2H48zm0-6h11v2H48zm0-6h11v2H48zM9 37h11v2H9z"></path></g></svg><svg id="news-sm" data-name="Layer 1" viewBox="0 0 41 41" width="41" height="41" y="3120"><defs><style>.cls-1{fill:#e65400}.cls-2{fill:#76787c}</style></defs><title>ai-icons</title><g id="news-sm"><path id="secondary" class="cls-1" d="M39.25 19.88v-8.75H1.75v8.75zm-11-5.5a1.72 1.72 0 0 1 1.9-1.64 2.43 2.43 0 0 1 1.72.61l-.55 1.07a2 2 0 0 0-1.18-.47c-.27 0-.57.12-.57.42 0 .67 2.41.55 2.41 2.25a1.71 1.71 0 0 1-1.89 1.66 2.77 2.77 0 0 1-2-.76l.69-1a2.22 2.22 0 0 0 1.28.55c.27 0 .56-.1.56-.43.01-.64-2.4-.64-2.4-2.27zm-6.67-1.55l.67 3.35a3.12 3.12 0 0 1 .07.56 3 3 0 0 1 .09-.56l.82-3.35h1.06l.8 3.35a3 3 0 0 1 .09.56 3.09 3.09 0 0 1 .07-.56l.75-3.36h1.36L26 18.18h-1.48l-.67-2.71a4.58 4.58 0 0 1-.1-.63 4.52 4.52 0 0 1-.1.63l-.68 2.71h-1.5l-1.3-5.36zm-5.69 0h3.36v1.12h-2v1h1.63V16h-1.72v1h2.15v1.12h-3.46zm-6.16 0H11l1.48 2.5a9.57 9.57 0 0 1 .45.91s-.06-.58-.06-.91v-2.5h1.31v5.36h-1.29l-1.49-2.5a9.6 9.6 0 0 1-.45-.91s.06.58.06.91v2.5H9.68z"></path><path id="primary" class="cls-2" d="M.5 6.13v28.75h40V6.13zm38.75 1.25v2.5H1.75v-2.5zM1.75 33.63v-22.5h37.5v22.5zm3.13-3.75h6.88v1.25H4.88zm0-3.75h6.88v1.25H4.88zm11.88 3.75h7.5v1.25h-7.5zm0-3.75h7.5v1.25h-7.5zm6.88-3.75h.63v1.25h-7.5v-1.25zm5.63 7.5h6.88v1.25h-6.9zm0-3.75h6.88v1.25h-6.9zm0-3.75h6.88v1.25h-6.9zm-24.37 0h6.88v1.25h-6.9z"></path></g></svg><svg id="powerful" data-name="Layer 1" viewBox="0 0 68 68" width="68" height="68" y="3161"><defs><style>.cls-1{fill:#e65400}.cls-2{fill:#76787c}</style></defs><title>ai-icons</title><g id="powerful"><path id="secondary" class="cls-1" d="M48.84 33.22l-2.13 1.99 5.46.03-23.51 22.32 4.25-9.46-3.78 3.53L22.67 66l34.48-32.74-8.31-.04z"></path><path id="primary" class="cls-2" d="M39.53 10.26l-6.91 15.8-1.2 2.79h3l12.09.06L23 51.25l7.05-15.69 1.27-2.82H15.86l23.67-22.48M45.33 2L10.85 34.74h17.42l-11.21 25L51.53 27l-17.06-.09L45.33 2z"></path></g></svg><svg id="powerful-sm" data-name="Layer 1" viewBox="0 0 41 41" width="41" height="41" y="3229"><defs><style>.cls-1{fill:#e65400}.cls-2{fill:#76787c}</style></defs><title>ai-icons</title><g id="powerful-sm"><path id="secondary" class="cls-1" d="M29.77 20.01l-1.33 1.25 3.42.01-14.7 13.95 2.66-5.91-2.36 2.21-4.04 8.98 21.55-20.46-5.2-.03z"></path><path id="primary" class="cls-2" d="M24 5.66l-4.32 9.88-.75 1.74h9.45l-14.73 14 4.41-9.81.79-1.76H9.16L24 5.66M27.58.5L6 21h10.92l-7 15.6 21.54-20.5-10.67-.1L27.58.5z"></path></g></svg><svg id="revenue-management" data-name="Layer 1" viewBox="0 0 68 68" width="68" height="68" y="3270"><defs><style>.cls-1{fill:#e65400}.cls-2{fill:#76787c}</style></defs><title>ai-icons</title><g id="revenue-management"><path id="secondary" class="cls-1" d="M52.65 36.31A13.35 13.35 0 1 0 66 49.65a13.35 13.35 0 0 0-13.35-13.34zm.87 20v1.75h-1.63v-1.75a6.39 6.39 0 0 1-3.8-1.79l1.33-1.84a5.4 5.4 0 0 0 3.36 1.42c1 0 2-.53 2-1.63 0-2.28-6.42-2.05-6.42-6.14a3.94 3.94 0 0 1 3.57-3.82v-1.77h1.63v1.75a5.46 5.46 0 0 1 3.34 1.39l-1.06 2a4.93 4.93 0 0 0-3-1.18c-1.14 0-2 .66-2 1.61 0 2.26 6.4 1.86 6.4 6.12a3.92 3.92 0 0 1-3.71 3.88z"></path><path id="primary" class="cls-2" d="M12 55.5H2v-2h10zm13-2H15v2h10zm13 0H28v2h10zm-26-7H2v2h10zm13 0H15v2h10zm13 0H28v2h10zm-13-7H15v2h10zm13 0H28v2h10zm-13-7H15v2h10zm13 0H28v2h10zm13 0H41v2h10zm-13-7H28v2h10zm13 0H41v2h10zm-13-7H28v2h10zm13 0H41v2h10zm0-7H41v2h10zm0-7H41v2h10zm-7 35h-3v2h1.1a13.41 13.41 0 0 1 1.9-2z"></path></g></svg><svg id="revenue-management-sm" data-name="Layer 1" viewBox="0 0 41 41" width="41" height="41" y="3338"><defs><style>.cls-1{fill:#e65400}.cls-2{fill:#76787c}</style></defs><title>ai-icons</title><g id="revenue-management-sm"><path id="secondary" class="cls-1" d="M32.16 22.1a8.34 8.34 0 1 0 8.34 8.34 8.34 8.34 0 0 0-8.34-8.34zm.55 12.5v1.1h-1v-1.1a4 4 0 0 1-2.37-1.12l.83-1.15a3.38 3.38 0 0 0 2.1.89c.64 0 1.22-.33 1.22-1 0-1.43-4-1.28-4-3.84A2.46 2.46 0 0 1 31.68 26v-1.13h1V26a3.41 3.41 0 0 1 2.09.87l-.66 1.25a3.08 3.08 0 0 0-1.86-.74c-.71 0-1.27.42-1.27 1 0 1.41 4 1.16 4 3.82a2.45 2.45 0 0 1-2.28 2.4z"></path><path id="primary" class="cls-2" d="M6.75 34.09H.5v-1.25h6.25zm8.13-1.25H8.63v1.25h6.25zm8.13 0h-6.26v1.25H23zM6.75 28.47H.5v1.25h6.25zm8.13 0H8.63v1.25h6.25zm8.13 0h-6.26v1.25H23zm-8.12-4.37H8.63v1.25h6.25zm8.13 0h-6.27v1.25H23zm-8.12-4.37H8.63V21h6.25zm8.13 0h-6.28V21H23zm8.13 0h-6.28V21h6.25zM23 15.34h-6.25v1.25H23zm8.13 0h-6.25v1.25h6.25zM23 11h-6.25v1.25H23zm8.13 0h-6.25v1.25h6.25zm0-4.37h-6.25v1.21h6.25zm0-4.37h-6.25v1.21h6.25zm-4.38 21.83h-1.87v1.25h.69a8.38 8.38 0 0 1 1.18-1.25z"></path></g></svg><svg id="video" data-name="Layer 1" viewBox="0 0 68 68" width="68" height="68" y="3379"><defs><style>.cls-1{fill:#e65400}.cls-2{fill:#76787c}</style></defs><title>ai-icons</title><g id="video"><path id="secondary" class="cls-1" d="M28.44 42c-.15 0-.08 0-.22-.12s-.22-.44-.22-.76V27.2c0-.32-.05-.6.22-.76a.68.68 0 0 1 .77 0l10.63 7a.85.85 0 0 1 .41.75.87.87 0 0 1-.44.76l-10.68 6.92a.92.92 0 0 1-.47.13z"></path><path id="primary" class="cls-2" d="M2 11v46h64V11zm62 6h-8v-4h8zm-19 0v-4h9v4zm-2 0h-8v-4h8zm-10 0h-8v-4h8zm-10 0h-9v-4h9zm41 2v30H4V19zm-52-6v4H4v-4zM4 55v-4h8v4zm10 0v-4h9v4zm11 0v-4h8v4zm10 0v-4h8v4zm10 0v-4h9v4zm11 0v-4h8v4z"></path></g></svg><svg id="video-sm" data-name="Layer 1" viewBox="0 0 41 41" width="41" height="41" y="3447"><defs><style>.cls-1{fill:#e65400}.cls-2{fill:#76787c}</style></defs><title>ai-icons</title><g id="video-sm"><path id="secondary" class="cls-1" d="M17 25.51c-.09 0-.05 0-.14-.07s-.14-.28-.14-.48v-8.72c0-.2 0-.38.14-.48a.43.43 0 0 1 .48 0L24 20.13a.53.53 0 0 1 .25.47.55.55 0 0 1-.28.48l-6.67 4.36a.58.58 0 0 1-.3.07z"></path><path id="primary" class="cls-2" d="M.44 6.08v28.84h40.12V6.08zM39.3 9.84h-5v-2.5h5zm-11.91 0v-2.5H33v2.5zm-1.25 0h-5v-2.5h5zm-6.27 0h-5v-2.5h5zm-6.27 0H8v-2.5h5.64zm25.7 1.26v18.8H1.7V11.1zM6.71 7.34v2.5h-5v-2.5zm-5 26.33v-2.51h5v2.51zm6.27 0v-2.51h5.64v2.51zm6.89 0v-2.51h5v2.51zm6.27 0v-2.51h5v2.51zm6.27 0v-2.51H33v2.51zm6.89 0v-2.51h5v2.51z"></path></g></svg><svg id="webcast" data-name="Layer 1" viewBox="0 0 68 68" width="68" height="68" y="3488"><defs><style>.cls-1{fill:#e65400}.cls-2{fill:#76787c}</style></defs><title>ai-icons</title><g id="webcast"><path id="secondary" class="cls-1" d="M25 50a3 3 0 1 1-3-3 3 3 0 0 1 3 3zm14.92-18.33l-10.63-7a.68.68 0 0 0-.77 0c-.27.16-.22.44-.22.76v13.95c0 .32-.05.6.22.76s.07.12.22.12a.92.92 0 0 0 .46-.13l10.65-6.95a.87.87 0 0 0 .44-.76.85.85 0 0 0-.37-.75z"></path><path id="primary" class="cls-2" d="M66 11v46H2V11zM4 13v4h60v-4zm60 42V19H4v36zm-45-5a3 3 0 0 1 .18-1H11v2h8.18a3 3 0 0 1-.18-1zm5.82-1a2.81 2.81 0 0 1 0 2H57v-2z"></path></g></svg><svg id="webcast-sm" data-name="Layer 1" viewBox="0 0 41 41" width="41" height="41" y="3556"><defs><style>.cls-1{fill:#e65400}.cls-2{fill:#76787c}</style></defs><title>ai-icons</title><g id="webcast-sm"><path id="secondary" class="cls-1" d="M14.88 30.5A1.88 1.88 0 1 1 13 28.63a1.87 1.87 0 0 1 1.88 1.87zM24.2 19l-6.65-4.35a.43.43 0 0 0-.48 0c-.17.1-.14.28-.14.47v8.7c0 .2 0 .38.14.47s0 .07.14.07a.58.58 0 0 0 .29-.08L24.18 20a.55.55 0 0 0 .28-.47.53.53 0 0 0-.26-.53z"></path><path id="primary" class="cls-2" d="M40.5 6.13v28.75H.5V6.13zM1.75 7.38v2.5h37.5v-2.5zm37.5 26.25v-22.5H1.75v22.5zM11.13 30.5a1.86 1.86 0 0 1 .11-.62H6.13v1.25h5.11a1.86 1.86 0 0 1-.11-.63zm3.64-.62a1.76 1.76 0 0 1 0 1.25h20.11v-1.25z"></path></g></svg><svg id="webinar" data-name="Layer 1" viewBox="0 0 68 68" width="68" height="68" y="3597"><defs><style>.cls-1{fill:#e65400}.cls-2{fill:#76787c}</style></defs><title>ai-icons</title><g id="webinar"><path id="secondary" class="cls-1" d="M40.69 29c0 4.34-2.93 8.73-6.55 8.73s-6.55-4.41-6.55-8.73 2.93-7 6.55-7 6.55 2.65 6.55 7zm-16.6 20A3 3 0 0 1 30 49h19v-4.77c0-2.17-4.26-5-8.36-6.41a8.91 8.91 0 0 1-6.05 2.51 11 11 0 0 1-6.85-2.52C23.62 39.2 19 42.06 19 44.23V49zM27 52.5a3 3 0 0 1-2.54-1.5H19v4h30v-4H29.63A3 3 0 0 1 27 52.5z"></path><path id="primary" class="cls-2" d="M2 11v46h64V11zm62 44H4V19h60zm0-38H4v-4h60zM24.46 51H11v-2h13.09a2.8 2.8 0 0 0 .37 2zm5.17 0a2.8 2.8 0 0 0 .37-2h27v2z"></path></g></svg><svg id="webinar-sm" data-name="Layer 1" viewBox="0 0 41 41" width="41" height="41" y="3665"><defs><style>.cls-1{fill:#e65400}.cls-2{fill:#76787c}</style></defs><title>ai-icons</title><g id="webinar-sm"><path id="secondary" class="cls-1" d="M24.64 17.39c0 2.69-1.82 5.41-4.06 5.41s-4.06-2.72-4.06-5.41a4.06 4.06 0 1 1 8.11 0zm-10.28 12.4a1.85 1.85 0 0 1 3.65 0h11.78v-3c0-1.34-2.64-3.1-5.18-4a5.52 5.52 0 0 1-3.75 1.55 6.79 6.79 0 0 1-4.25-1.56c-2.55.86-5.41 2.64-5.41 4v3zM16.19 32a1.85 1.85 0 0 1-1.6-.93h-3.38v2.48h18.58V31h-12a1.85 1.85 0 0 1-1.6 1z"></path><path id="primary" class="cls-2" d="M.67 6.25v28.5h39.66V6.25zm38.42 27.27H1.91V11.21h37.18zm0-23.55H1.91V7.48h37.18zM14.59 31H6.25v-1.21h8.11a1.74 1.74 0 0 0 .23 1.21zm3.2 0a1.74 1.74 0 0 0 .21-1.21h16.75V31z"></path></g></svg><svg id="whitepaper" data-name="Layer 1" viewBox="0 0 68 68" width="68" height="68" y="3706"><defs><style>.cls-1{fill:#e65400}.cls-2{fill:#76787c}</style></defs><title>ai-icons</title><g id="whitepaper"><path id="secondary" class="cls-1" d="M16.73 47a2 2 0 1 1-2-2 2 2 0 0 1 2 2zm-2-18a2 2 0 1 0 2 2 2 2 0 0 0-2-2zm0-11a2 2 0 1 0-2-2 2 2 0 0 0 2 2z"></path><path id="primary" class="cls-2" d="M51.73 6.55V2h-46v58h5.47l-.13 1.27L56.15 66l6.12-58.35zM7.73 58V4h42v54zm46.64 5.8L18.13 60h33.6V8.56l8.34.88zM21.73 46h21v2h-21zm0-16h21v2h-21zm0-15h21v2h-21z"></path></g></svg><svg id="whitepaper-sm" data-name="Layer 1" viewBox="0 0 41 41" width="41" height="41" y="3774"><defs><style>.cls-1{fill:#e65400}.cls-2{fill:#76787c}</style></defs><title>ai-icons</title><g id="whitepaper-sm"><path id="secondary" class="cls-1" d="M9.71 28.62a1.25 1.25 0 1 1-1.25-1.25 1.25 1.25 0 0 1 1.25 1.25zM8.46 17.38a1.25 1.25 0 1 0 1.25 1.25 1.25 1.25 0 0 0-1.25-1.25zm0-6.87a1.25 1.25 0 1 0-1.25-1.26 1.25 1.25 0 0 0 1.25 1.25z"></path><path id="primary" class="cls-2" d="M31.58 3.34V.5H2.83v36.25h3.42l-.08.79 28.17 3L38.17 4zM4.08 35.5V1.75h26.25V35.5zm29.15 3.63l-22.65-2.38h21V4.6l5.21.55zM12.83 28H26v1.25H12.83zm0-10H26v1.25H12.83zm0-9.37H26v1.25H12.83z"></path></g></svg><svg id="workforce-management" data-name="Layer 1" viewBox="0 0 68 68" width="68" height="68" y="3815"><defs><style>.cls-1{fill:#e65400}.cls-2{fill:#76787c}</style></defs><title>ai-icons</title><g id="workforce-management"><path id="secondary" class="cls-1" d="M47 38.72V51H21V38.72c0-2.21 3.23-5.13 7.43-6.55a7.55 7.55 0 0 0 5.51 2.57 7.82 7.82 0 0 0 5.62-2.55c4.19 1.43 7.44 4.32 7.44 6.53zM34 16.08c-3.68 0-6.67 2.7-6.67 7.11s3 8.89 6.67 8.89 6.67-4.47 6.67-8.89-2.96-7.11-6.67-7.11z"></path><path id="primary" class="cls-2" d="M53.73 31c3.4 0 6.15-4.12 6.15-8.2s-2.75-6.56-6.15-6.56-6.15 2.49-6.15 6.56 2.75 8.2 6.15 8.2zm0-12.76c2.48 0 4.15 1.83 4.15 4.56 0 3.13-2.06 6.2-4.15 6.2s-4.15-3.07-4.15-6.2c0-2.71 1.66-4.54 4.15-4.54zM66 37.14V48H47v-2h17v-8.86c0-.59-1.63-2.43-4.64-3.72a9.18 9.18 0 0 1-5.74 2.05 9.32 9.32 0 0 1-5.8-2.07 14.63 14.63 0 0 0-3 1.72 13.57 13.57 0 0 0-1.68-1.24 16.57 16.57 0 0 1 5.12-2.78 7.28 7.28 0 0 0 10.74 0c3.84 1.33 7 4 7 6.04zM14.32 31c3.4 0 6.15-4.12 6.15-8.2s-2.75-6.56-6.15-6.56-6.15 2.49-6.15 6.56 2.76 8.2 6.15 8.2zm0-12.76c2.48 0 4.15 1.83 4.15 4.56 0 3.13-2.06 6.2-4.15 6.2s-4.15-3.07-4.15-6.2c0-2.71 1.67-4.54 4.15-4.54zm5.46 12.86a16.63 16.63 0 0 1 5.07 2.76 13.39 13.39 0 0 0-1.67 1.24 14.64 14.64 0 0 0-3-1.69 9.6 9.6 0 0 1-5.89 2.05 9 9 0 0 1-5.7-2.07C5.63 34.68 4 36.56 4 37.14V46h17v2H2V37.14c0-2 3.18-4.73 7-6a7.62 7.62 0 0 0 5.38 2.37 7.61 7.61 0 0 0 5.41-2.39z"></path></g></svg><svg id="workforce-management-sm" data-name="Layer 1" viewBox="0 0 41 41" width="41" height="41" y="3883"><defs><style>.cls-1{fill:#e65400}.cls-2{fill:#76787c}</style></defs><title>ai-icons</title><g id="workforce-management-sm"><path id="secondary" class="cls-1" d="M28.29 23.6V31H12.71v-7.4c0-1.33 1.94-3.07 4.45-3.92a4.53 4.53 0 0 0 3.3 1.54 4.68 4.68 0 0 0 3.37-1.53c2.51.86 4.46 2.59 4.46 3.91zM20.52 10a4 4 0 0 0-4 4.26c0 2.65 1.79 5.32 4 5.32s4-2.68 4-5.32a4 4 0 0 0-4-4.26z"></path><path id="primary" class="cls-2" d="M32.32 19c2 0 3.68-2.47 3.68-4.91a3.69 3.69 0 1 0-7.37 0c0 2.43 1.65 4.91 3.69 4.91zm0-7.64a2.48 2.48 0 0 1 2.49 2.73c0 1.87-1.23 3.71-2.49 3.71s-2.49-1.84-2.49-3.71a2.48 2.48 0 0 1 2.49-2.75zm7.35 11.31v6.51H28.29V28h10.18v-5.34c0-.36-1-1.46-2.78-2.23a5.5 5.5 0 0 1-3.44 1.23 5.58 5.58 0 0 1-3.48-1.24 8.77 8.77 0 0 0-1.8 1 8.13 8.13 0 0 0-1-.75A9.93 9.93 0 0 1 29 19a4.36 4.36 0 0 0 6.44 0c2.34.84 4.23 2.44 4.23 3.66zM8.71 19c2 0 3.68-2.47 3.68-4.91a3.69 3.69 0 1 0-7.37 0C5 16.52 6.68 19 8.71 19zm0-7.64a2.48 2.48 0 0 1 2.49 2.73c0 1.87-1.23 3.71-2.49 3.71s-2.49-1.84-2.49-3.71a2.48 2.48 0 0 1 2.49-2.75zM12 19a10 10 0 0 1 3 1.65 8 8 0 0 0-1 .74 8.77 8.77 0 0 0-1.78-1 5.75 5.75 0 0 1-3.53 1.23 5.42 5.42 0 0 1-3.42-1.24c-1.79.77-2.76 1.89-2.77 2.24V28h10.21v1.2H1.33v-6.54c0-1.22 1.9-2.83 4.22-3.62a4.56 4.56 0 0 0 3.22 1.42A4.56 4.56 0 0 0 12 19z"></path></g></svg></svg>