<?xml version="1.0" encoding="UTF-8"?>
<svg width="2050px" height="603px" viewBox="0 0 2050 603" version="1.1" xmlns="http://www.w3.org/2000/svg" xmlns:xlink="http://www.w3.org/1999/xlink">
    <!-- Generator: Sketch 49.3 (51167) - http://www.bohemiancoding.com/sketch -->
    <title>circle-group-gradient</title>
    <desc>Created with Sketch.</desc>
    <defs>
        <path d="M77.0003,603.745174 C76.7168069,603.748322 76.4329374,603.7499 76.1487,603.7499 C34.5837,603.7499 0.8887,570.0029 0.8887,528.3749 C0.8887,486.7469 34.5837,452.9999 76.1487,452.9999 C76.4329374,452.9999 76.7168069,453.001478 77.0003,453.004626 C118.565162,452.999338 152.26,419.2524 152.26,377.6245 C152.26,419.2525 185.955,452.9995 227.52,452.9995 C185.955,452.9995 152.26,486.7465 152.26,528.3745 C152.26,486.7465 118.565,452.9995 77,452.9995 C76.7168069,452.998322 76.4329374,452.9999 76.1487,452.9999 C34.5837,452.9999 0.8887,419.2529 0.8887,377.6249 C0.8887,335.9969 34.5837,302.2499 76.1487,302.2499 C76.4329374,302.2499 76.7168069,302.251478 77.0003,302.254626 C76.7168069,302.248322 76.4329374,302.2499 76.1487,302.2499 C34.5837,302.2499 0.8887,268.5029 0.8887,226.8749 C0.8887,185.2469 34.5837,151.4999 76.1487,151.4999 C76.4329374,151.4999 76.7168069,151.501478 77.0003,151.504626 C118.565,151.4995 152.26,185.2465 152.26,226.8745 C152.26,185.2465 185.955,151.4995 227.52,151.4995 C185.955,151.4995 152.26,117.7535 152.26,76.1245 C152.26,117.7534 118.565162,151.499338 77.0003,151.4995 C76.7168069,151.498322 76.4329374,151.4999 76.1487,151.4999 C34.5837,151.4999 0.8887,117.7539 0.8887,76.1249 C0.8887,34.4969 34.5837,0.7499 76.1487,0.7499 C76.4329374,0.7499 76.7168069,0.751478128 77.0003,0.754626112 C118.565162,0.749662382 152.26,34.4966002 152.26,76.1245 C152.26,34.4965 185.955,0.7495 227.52,0.7495 L338.8503,0.7495 L338.8503,603.7495 L77.0003,603.7495 Z" id="path-1"></path>
        <linearGradient x1="0.242254019%" y1="20.2998922%" x2="101.999998%" y2="100.999999%" id="linearGradient-3">
            <stop stop-color="#00A19C" offset="0%"></stop>
            <stop stop-color="#006098" offset="100%"></stop>
        </linearGradient>
        <path d="M580.296855,0.8851 C618.915902,4.0884893 649.261,36.4955527 649.261,76.0001 C649.261,36.4955527 679.606098,4.0884893 718.225145,0.8851 L731.296855,0.8851 C769.915902,4.0884893 800.261,36.4955527 800.261,76.0001 C800.261,36.4955527 830.606098,4.0884893 869.225145,0.8851 L875.228,0.8851 L875.228,1 C916.793954,1.00005413 950.4879,34.7470334 950.4879,76.375 C950.4879,118.003967 916.793954,151.749946 875.228,151.75 L875.228,151.75 C916.793954,151.750054 950.4879,185.497033 950.4879,227.125 C950.4879,268.752967 916.793954,302.499946 875.228,302.5 L875.228,302.5 C916.793954,302.500054 950.4879,336.247033 950.4879,377.875 C950.4879,419.502967 916.793954,453.249946 875.228,453.25 L875.228,453.25 C916.793954,453.250054 950.4879,486.997033 950.4879,528.625 C950.4879,570.253 916.7939,604 875.2279,604 L867.967596,604 C870.451818,603.752056 872.971606,603.6251 875.521,603.6251 C833.956,603.6251 800.261,569.8791 800.261,528.2501 C800.261,569.8791 766.566,603.6251 725.001,603.6251 C727.550394,603.6251 730.070182,603.752056 732.554404,604 L0,604 L0,0.8851 L580.296855,0.8851 Z M1101.0081,528.800638 C1100.91348,570.347883 1067.25483,604 1025.7473,604 C984.1833,604 950.4883,570.253 950.4883,528.625 C950.4883,486.997 984.1833,453.25 1025.7473,453.25 C1067.25483,453.25 1100.91348,486.902117 1101.0081,528.449362 C1101.10272,486.902112 1134.76138,453.25 1176.2679,453.25 C1217.8329,453.25 1251.5279,486.997 1251.5279,528.625 C1251.5279,570.253 1217.8329,604 1176.2679,604 C1134.76138,604 1101.10272,570.347888 1101.0081,528.800647 Z M1101.0081,378.050638 C1100.91348,419.597883 1067.25483,453.25 1025.7473,453.25 C984.1833,453.25 950.4883,419.503 950.4883,377.875 C950.4883,336.247 984.1833,302.5 1025.7473,302.5 C1067.25483,302.5 1100.91348,336.152117 1101.0081,377.699362 C1101.10272,336.152112 1134.76138,302.5 1176.2679,302.5 C1217.8329,302.5 1251.5279,336.247 1251.5279,377.875 C1251.5279,419.503 1217.8329,453.25 1176.2679,453.25 C1134.76138,453.25 1101.10272,419.597888 1101.0081,378.050647 Z M1025.7473,151.75 C984.1833,151.75 950.4883,118.004 950.4883,76.375 C950.4883,34.747 984.1833,1 1025.7473,1 C1067.3133,1 1101.0083,34.747 1101.0083,76.375 C1101.0083,118.004 1067.3133,151.75 1025.7473,151.75 Z M1101.0083,227.125 C1101.0083,268.753 1067.3133,302.5 1025.7473,302.5 C984.1833,302.5 950.4883,268.753 950.4883,227.125 C950.4883,185.497 984.1833,151.75 1025.7473,151.75 C1067.3133,151.75 1101.0083,185.497 1101.0083,227.125 Z" id="path-4"></path>
    </defs>
    <g id="circle-group-gradient" stroke="none" stroke-width="1" fill="none" fill-rule="evenodd">
        <g id="graient-knocked-out-copy" transform="translate(0.000000, -1.000000)">
            <g id="Right" transform="translate(1711.000000, 0.000000)">
                <mask id="mask-2" fill="white">
                    <use xlink:href="#path-1"></use>
                </mask>
                <use id="Mask" fill="#7ED321" xlink:href="#path-1"></use>
                <rect id="Rectangle-Copy" fill="url(#linearGradient-3)" mask="url(#mask-2)" x="-1662" y="-150" width="2001" height="754"></rect>
            </g>
            <g id="Left">
                <mask id="mask-5" fill="white">
                    <use xlink:href="#path-4"></use>
                </mask>
                <use id="Mask" fill="#7ED321" xlink:href="#path-4"></use>
                <rect id="Rectangle" fill="url(#linearGradient-3)" mask="url(#mask-5)" x="0" y="-150" width="2001" height="754"></rect>
            </g>
        </g>
    </g>
</svg>