<?xml version="1.0" encoding="UTF-8"?>
<svg width="394px" height="655px" viewBox="0 0 394 655" version="1.1" xmlns="http://www.w3.org/2000/svg" xmlns:xlink="http://www.w3.org/1999/xlink">
    <!-- Generator: Sketch 49.3 (51167) - http://www.bohemiancoding.com/sketch -->
    <title>svg-pattern</title>
    <desc>Created with Sketch.</desc>
    <defs></defs>
    <g id="svg-pattern" stroke="none" stroke-width="1" fill="none" fill-rule="evenodd">
        <g id="Asset-1" fill-rule="nonzero">
            <path d="M131.71,458.17 C131.660311,494.255574 102.375675,523.473087 66.2900826,523.439972 C30.2044898,523.406858 0.973528472,494.135646 0.990068831,458.050041 C1.00660919,421.964437 30.264392,392.720034 66.35,392.72 C102.471042,392.747605 131.7321,422.048954 131.71,458.17" id="5%" fill="#231F20" opacity="0.05"></path>
            <g id="7%" transform="translate(131.000000, 130.000000)" fill="#231F20" opacity="0.07">
                <path d="M131.41,459.08 C131.354791,495.158739 102.072198,524.366758 65.9934353,524.329966 C29.9146724,524.293174 0.691710293,495.025495 0.710084986,458.946718 C0.728459679,422.867941 29.9812184,393.630042 66.06,393.63 C83.40516,393.643256 100.034641,400.546309 112.290144,412.820566 C124.545648,425.094823 131.423266,441.73484 131.41,459.08" id="Shape"></path>
                <path d="M262.12,66.36 C262.070308,102.446875 232.783641,131.664925 196.696749,131.629969 C160.609856,131.595012 131.37985,102.320278 131.400072,66.2333736 C131.420294,30.1464698 160.683091,0.90451296 196.77,0.91 C214.11516,0.923255757 230.744641,7.82630919 243.000144,20.1005663 C255.255648,32.3748233 262.133266,49.01484 262.12,66.36" id="Shape"></path>
                <path d="M131.41,197.27 C131.349273,233.347427 102.064245,262.550427 65.9867901,262.509959 C29.9093348,262.469491 0.689894495,233.200867 0.71010283,197.123395 C0.730311166,161.045923 29.982522,131.810051 66.06,131.81 C83.4068941,131.823255 100.037892,138.727681 112.293683,151.004102 C124.549473,163.280522 131.42592,179.923108 131.41,197.27" id="Shape"></path>
            </g>
            <path d="M393.12,65.45 C393.070308,101.536875 363.783641,130.754925 327.696749,130.719969 C291.609856,130.685012 262.37985,101.410278 262.400072,65.3233736 C262.420294,29.2364698 291.683091,-0.00548704023 327.77,0 C363.887136,0.0331231724 393.142102,29.332856 393.12,65.45" id="34%" fill="#FFFFFF" opacity="0.25"></path>
            <path d="M393.12,589.08 C393.070308,625.166875 363.783641,654.384925 327.696749,654.349969 C291.609856,654.315012 262.37985,625.040278 262.400072,588.953374 C262.420294,552.86647 291.683091,523.624513 327.77,523.63 C345.11516,523.643256 361.744641,530.546309 374.000144,542.820566 C386.255648,555.094823 393.133266,571.73484 393.12,589.08" id="Shape" fill="#FFFFFF" opacity="0.25"></path>
            <g id="17%" transform="translate(131.000000, 130.000000)" fill="#231F20" opacity="0.17">
                <path d="M131.41,66.36 C131.354791,102.438739 102.072198,131.646758 65.9934353,131.609966 C29.9146724,131.573174 0.691710293,102.305495 0.710084986,66.2267177 C0.728459679,30.1479407 29.9812184,0.910042241 66.06,0.91 C83.40516,0.923255757 100.034641,7.82630919 112.290144,20.1005663 C124.545648,32.3748233 131.423266,49.01484 131.41,66.36" id="Shape"></path>
                <path d="M262.12,328.17 C262.070308,364.256875 232.783641,393.474925 196.696749,393.439969 C160.609856,393.405012 131.37985,364.130278 131.400072,328.043374 C131.420294,291.95647 160.683091,262.714513 196.77,262.72 C232.887136,262.753123 262.142102,292.052856 262.12,328.17" id="Shape"></path>
                <path d="M131.41,328.17 C131.354791,364.248739 102.072198,393.456758 65.9934353,393.419966 C29.9146724,393.383174 0.691710293,364.115495 0.710084986,328.036718 C0.728459679,291.957941 29.9812184,262.720042 66.06,262.72 C102.177136,262.753123 131.432102,292.052856 131.41,328.17" id="Shape"></path>
            </g>
        </g>
    </g>
</svg>