<?xml version="1.0" encoding="UTF-8"?>
<svg width="394px" height="655px" viewBox="0 0 394 655" version="1.1" xmlns="http://www.w3.org/2000/svg" xmlns:xlink="http://www.w3.org/1999/xlink">
    <!-- Generator: Sketch 49.3 (51167) - http://www.bohemiancoding.com/sketch -->
    <title>svg-pattern-alt</title>
    <desc>Created with Sketch.</desc>
    <defs></defs>
    <g id="svg-pattern-alt" stroke="none" stroke-width="1" fill="none" fill-rule="evenodd">
        <path d="M130.719938,327.45 C130.670249,363.535574 101.385614,392.753087 65.3000208,392.719972 C29.214428,392.686858 -0.0165333429,363.415646 7.01606645e-06,327.330041 C0.016547375,291.244437 29.2743302,262.000034 65.3599382,262 C101.48098,262.027605 130.742038,291.328954 130.719938,327.45" id="5%" fill="#231F20" fill-rule="nonzero" opacity="0.07"></path>
        <path d="M262.41,589.08 C262.354791,625.158739 233.072198,654.366758 196.993435,654.329966 C160.914672,654.293174 131.69171,625.025495 131.710085,588.946718 C131.72846,552.867941 160.981218,523.630042 197.06,523.63 C214.40516,523.643256 231.034641,530.546309 243.290144,542.820566 C255.545648,555.094823 262.423266,571.73484 262.41,589.08" id="Shape" fill="#231F20" fill-rule="nonzero" opacity="0.07"></path>
        <path d="M393.12,196.36 C393.070308,232.446875 363.783641,261.664925 327.696749,261.629969 C291.609856,261.595012 262.37985,232.320278 262.400072,196.233374 C262.420294,160.14647 291.683091,130.904513 327.77,130.91 C345.11516,130.923256 361.744641,137.826309 374.000144,150.100566 C386.255648,162.374823 393.133266,179.01484 393.12,196.36" id="Shape" fill="#231F20" fill-rule="nonzero" opacity="0.07"></path>
        <path d="M261.719938,64.45 C261.670247,100.536875 232.38358,129.754925 196.296687,129.719969 C160.209794,129.685012 130.979789,100.410278 131.00001,64.3233736 C131.020232,28.2364698 160.283029,-1.00548704 196.369938,-1 C232.487074,-0.966876828 261.74204,28.332856 261.719938,64.45" id="34%" fill="#000000" fill-rule="nonzero" opacity="0.2"></path>
        <path d="M262.41,196.36 C262.354791,232.438739 233.072198,261.646758 196.993435,261.609966 C160.914672,261.573174 131.69171,232.305495 131.710085,196.226718 C131.72846,160.147941 160.981218,130.910042 197.06,130.91 C214.40516,130.923256 231.034641,137.826309 243.290144,150.100566 C255.545648,162.374823 262.423266,179.01484 262.41,196.36" id="Shape" fill="#231F20" fill-rule="nonzero" opacity="0.07"></path>
        <path d="M393.12,458.17 C393.070308,494.256875 363.783641,523.474925 327.696749,523.439969 C291.609856,523.405012 262.37985,494.130278 262.400072,458.043374 C262.420294,421.95647 291.683091,392.714513 327.77,392.72 C363.887136,392.753123 393.142102,422.052856 393.12,458.17" id="Shape" fill="#231F20" fill-rule="nonzero" opacity="0.15"></path>
        <path d="M262.41,458.17 C262.354791,494.248739 233.072198,523.456758 196.993435,523.419966 C160.914672,523.383174 131.69171,494.115495 131.710085,458.036718 C131.72846,421.957941 160.981218,392.720042 197.06,392.72 C233.177136,392.753123 262.432102,422.052856 262.41,458.17" id="Shape" fill="#231F20" fill-rule="nonzero" opacity="0.15"></path>
        <path d="M392.699908,327.46 C392.63918,363.537427 363.354153,392.740427 327.276698,392.699959 C291.199242,392.659491 261.979802,363.390867 262.00001,327.313395 C262.020219,291.235923 291.27243,262.000051 327.349908,262 C344.696802,262.013255 361.327799,268.917681 373.58359,281.194102 C385.839381,293.470522 392.715827,310.113108 392.699908,327.46" id="Shape" fill="#231F20" fill-rule="nonzero" opacity="0.25"></path>
    </g>
</svg>