<svg width="468" height="77" viewBox="0 0 468 77" fill="none" xmlns="http://www.w3.org/2000/svg">
<path d="M64.3867 75H45.0508L22.834 43.5547L15.6562 50.9277V75H0.861328V3.02734H15.6562V32.666L43.4395 3.02734H62.873L33.3809 32.666L64.3867 75ZM98.5176 34.6191C92.9186 34.6191 89.1589 36.4421 87.2383 40.0879C86.1641 42.1387 85.627 45.2962 85.627 49.5605V75H71.6133V21.7773H84.8945V31.0547C87.043 27.5065 88.9147 25.0814 90.5098 23.7793C93.1139 21.5983 96.4993 20.5078 100.666 20.5078C100.926 20.5078 101.138 20.5241 101.301 20.5566C101.496 20.5566 101.903 20.5729 102.521 20.6055V34.8633C101.643 34.7656 100.861 34.7005 100.178 34.668C99.4941 34.6354 98.9408 34.6191 98.5176 34.6191ZM112.727 27.5391C116.405 22.8516 122.72 20.5078 131.672 20.5078C137.499 20.5078 142.674 21.6634 147.199 23.9746C151.724 26.2858 153.986 30.6478 153.986 37.0605V61.4746C153.986 63.1673 154.019 65.2181 154.084 67.627C154.182 69.4499 154.458 70.6868 154.914 71.3379C155.37 71.9889 156.053 72.526 156.965 72.9492V75H141.828C141.405 73.9258 141.112 72.9167 140.949 71.9727C140.786 71.0286 140.656 69.9544 140.559 68.75C138.638 70.8333 136.424 72.6074 133.918 74.0723C130.923 75.7975 127.538 76.6602 123.762 76.6602C118.944 76.6602 114.956 75.293 111.799 72.5586C108.674 69.7917 107.111 65.8854 107.111 60.8398C107.111 54.2969 109.634 49.5605 114.68 46.6309C117.447 45.0358 121.516 43.8965 126.887 43.2129L131.623 42.627C134.195 42.3014 136.034 41.8945 137.141 41.4062C139.126 40.5599 140.119 39.2415 140.119 37.4512C140.119 35.2702 139.354 33.7728 137.824 32.959C136.327 32.1126 134.113 31.6895 131.184 31.6895C127.896 31.6895 125.568 32.5033 124.201 34.1309C123.225 35.3353 122.574 36.9629 122.248 39.0137H108.82C109.113 34.3587 110.415 30.5339 112.727 27.5391ZM123.078 64.9414C124.38 66.0156 125.975 66.5527 127.863 66.5527C130.858 66.5527 133.609 65.6738 136.115 63.916C138.654 62.1582 139.973 58.9518 140.07 54.2969V49.1211C139.191 49.6745 138.296 50.1302 137.385 50.4883C136.506 50.8138 135.285 51.123 133.723 51.416L130.598 52.002C127.668 52.5228 125.568 53.1576 124.299 53.9062C122.15 55.1758 121.076 57.1452 121.076 59.8145C121.076 62.1908 121.743 63.8997 123.078 64.9414ZM190.754 65.0879V75.4883L184.162 75.7324C177.587 75.9603 173.094 74.821 170.686 72.3145C169.123 70.7194 168.342 68.2617 168.342 64.9414V32.1777H160.92V22.2656H168.342V7.42188H182.111V22.2656H190.754V32.1777H182.111V60.3027C182.111 62.4837 182.388 63.8509 182.941 64.4043C183.495 64.9251 185.188 65.1855 188.02 65.1855C188.443 65.1855 188.882 65.1855 189.338 65.1855C189.826 65.153 190.298 65.1204 190.754 65.0879ZM245.246 59.375C244.888 62.5326 243.244 65.7389 240.314 68.9941C235.757 74.1699 229.377 76.7578 221.174 76.7578C214.403 76.7578 208.43 74.5768 203.254 70.2148C198.078 65.8529 195.49 58.7565 195.49 48.9258C195.49 39.7135 197.818 32.6497 202.473 27.7344C207.16 22.819 213.231 20.3613 220.686 20.3613C225.113 20.3613 229.1 21.1914 232.648 22.8516C236.197 24.5117 239.126 27.1322 241.438 30.7129C243.521 33.8704 244.872 37.5326 245.49 41.6992C245.848 44.1406 245.995 47.6562 245.93 52.2461H209.504C209.699 57.5846 211.376 61.3281 214.533 63.4766C216.454 64.8112 218.765 65.4785 221.467 65.4785C224.331 65.4785 226.659 64.6647 228.449 63.0371C229.426 62.1582 230.288 60.9375 231.037 59.375H245.246ZM231.477 43.0664C231.249 39.388 230.126 36.6048 228.107 34.7168C226.122 32.7962 223.648 31.8359 220.686 31.8359C217.463 31.8359 214.956 32.8451 213.166 34.8633C211.408 36.8815 210.301 39.6159 209.846 43.0664H231.477ZM307.258 69.6289C301.887 74.5443 295.018 77.002 286.652 77.002C276.301 77.002 268.163 73.6816 262.238 67.041C256.314 60.3678 253.352 51.2207 253.352 39.5996C253.352 27.0345 256.721 17.3503 263.459 10.5469C269.318 4.6224 276.773 1.66016 285.822 1.66016C297.932 1.66016 306.786 5.63151 312.385 13.5742C315.477 18.0339 317.137 22.5098 317.365 27.002H302.326C301.35 23.5514 300.096 20.9473 298.566 19.1895C295.832 16.0645 291.779 14.502 286.408 14.502C280.939 14.502 276.626 16.7155 273.469 21.1426C270.311 25.5371 268.732 31.7708 268.732 39.8438C268.732 47.9167 270.393 53.9714 273.713 58.0078C277.066 62.0117 281.314 64.0137 286.457 64.0137C291.73 64.0137 295.751 62.2884 298.518 58.8379C300.048 56.9824 301.317 54.1992 302.326 50.4883H317.219C315.917 58.3333 312.596 64.7135 307.258 69.6289ZM342.512 75H328.498V3.02734H350.373L363.459 59.6191L376.447 3.02734H398.078V75H384.064V26.3184C384.064 24.9186 384.081 22.9655 384.113 20.459C384.146 17.9199 384.162 15.9668 384.162 14.5996L370.539 75H355.939L342.414 14.5996C342.414 15.9668 342.43 17.9199 342.463 20.459C342.495 22.9655 342.512 24.9186 342.512 26.3184V75ZM438.166 64.5996C441.714 64.5996 444.595 64.209 446.809 63.4277C451.008 61.9303 453.107 59.1471 453.107 55.0781C453.107 52.7018 452.066 50.8626 449.982 49.5605C447.899 48.291 444.628 47.168 440.168 46.1914L432.551 44.4824C425.064 42.7897 419.888 40.9505 417.023 38.9648C412.173 35.6445 409.748 30.4525 409.748 23.3887C409.748 16.9434 412.092 11.5885 416.779 7.32422C421.467 3.0599 428.352 0.927734 437.434 0.927734C445.018 0.927734 451.48 2.94596 456.818 6.98242C462.189 10.9863 465.005 16.8132 465.266 24.4629H450.812C450.552 20.1335 448.664 17.0573 445.148 15.2344C442.805 14.0299 439.891 13.4277 436.408 13.4277C432.535 13.4277 429.442 14.209 427.131 15.7715C424.82 17.334 423.664 19.515 423.664 22.3145C423.664 24.8861 424.803 26.8066 427.082 28.0762C428.547 28.9225 431.672 29.9154 436.457 31.0547L448.859 34.0332C454.296 35.3353 458.397 37.0768 461.164 39.2578C465.461 42.6432 467.609 47.5423 467.609 53.9551C467.609 60.5306 465.087 65.9993 460.041 70.3613C455.028 74.6908 447.932 76.8555 438.752 76.8555C429.377 76.8555 422.004 74.7233 416.633 70.459C411.262 66.1621 408.576 60.2702 408.576 52.7832H422.932C423.387 56.071 424.283 58.5286 425.617 60.1562C428.059 63.1185 432.242 64.5996 438.166 64.5996Z" fill="black"/>
</svg>
